<mxfile host="app.diagrams.net" modified="2021-04-06T07:16:13.123Z" agent="5.0 (Windows NT 10.0; WOW64) AppleWebKit/537.36 (KHTML, like Gecko) Chrome/89.0.4389.114 Safari/537.36" etag="W97ad_MJuNyaBjLUrxtH" version="14.5.6" type="github">
  <diagram id="qIALlkbDJ19mlKs9f5HV" name="Page-1">
    <mxGraphModel dx="2249" dy="762" grid="1" gridSize="10" guides="1" tooltips="1" connect="1" arrows="1" fold="1" page="1" pageScale="1" pageWidth="827" pageHeight="1169" math="0" shadow="0">
      <root>
        <mxCell id="0" />
        <mxCell id="1" parent="0" />
        <mxCell id="fQ13p7MDhRn6-QS3Xnmx-1" value="" style="rounded=0;whiteSpace=wrap;html=1;dashed=1;fontSize=15;fontStyle=1" parent="1" vertex="1">
          <mxGeometry x="33" y="210" width="677" height="370" as="geometry" />
        </mxCell>
        <mxCell id="pGYAa5rE9HQfa07IEvMs-20" style="edgeStyle=orthogonalEdgeStyle;rounded=0;orthogonalLoop=1;jettySize=auto;html=1;" edge="1" parent="1" source="fQ13p7MDhRn6-QS3Xnmx-4">
          <mxGeometry relative="1" as="geometry">
            <mxPoint x="309" y="440" as="targetPoint" />
          </mxGeometry>
        </mxCell>
        <mxCell id="fQ13p7MDhRn6-QS3Xnmx-4" value="" style="rounded=0;whiteSpace=wrap;html=1;imageAlign=right;imageWidth=70;imageHeight=30;fontSize=15;fillColor=#d5e8d4;strokeColor=#82b366;fontStyle=1" parent="1" vertex="1">
          <mxGeometry x="50" y="396" width="185" height="60" as="geometry" />
        </mxCell>
        <mxCell id="fQ13p7MDhRn6-QS3Xnmx-5" value="K8S Kong Ingress" style="text;html=1;strokeColor=none;fillColor=none;align=center;verticalAlign=middle;whiteSpace=wrap;rounded=0;dashed=1;fontSize=15;fontStyle=1" parent="1" vertex="1">
          <mxGeometry x="100" y="414" width="40" height="20" as="geometry" />
        </mxCell>
        <mxCell id="fQ13p7MDhRn6-QS3Xnmx-29" value="K8S" style="text;html=1;strokeColor=none;fillColor=none;align=center;verticalAlign=middle;whiteSpace=wrap;rounded=0;fontSize=15;fontStyle=1" parent="1" vertex="1">
          <mxGeometry x="296.5" y="220" width="170" height="20" as="geometry" />
        </mxCell>
        <mxCell id="fQ13p7MDhRn6-QS3Xnmx-36" value="" style="rounded=0;whiteSpace=wrap;html=1;fontSize=15;dashed=1;" parent="1" vertex="1">
          <mxGeometry x="760" y="276" width="150" height="288" as="geometry" />
        </mxCell>
        <mxCell id="fQ13p7MDhRn6-QS3Xnmx-37" value="CA Validator" style="text;html=1;strokeColor=none;fillColor=none;align=center;verticalAlign=middle;whiteSpace=wrap;rounded=0;fontSize=15;fontStyle=1" parent="1" vertex="1">
          <mxGeometry x="790" y="286" width="90" height="20" as="geometry" />
        </mxCell>
        <mxCell id="fQ13p7MDhRn6-QS3Xnmx-38" value="OCSP CA1" style="rounded=0;whiteSpace=wrap;html=1;fontSize=15;fillColor=#6a00ff;strokeColor=#3700CC;fontColor=#ffffff;fontStyle=1" parent="1" vertex="1">
          <mxGeometry x="780" y="314" width="120" height="60" as="geometry" />
        </mxCell>
        <mxCell id="fQ13p7MDhRn6-QS3Xnmx-39" value="OCSP CA2" style="rounded=0;whiteSpace=wrap;html=1;fontSize=15;fillColor=#6a00ff;strokeColor=#3700CC;fontColor=#ffffff;fontStyle=1" parent="1" vertex="1">
          <mxGeometry x="780" y="394" width="120" height="60" as="geometry" />
        </mxCell>
        <mxCell id="fQ13p7MDhRn6-QS3Xnmx-40" value="OCSP CA3" style="rounded=0;whiteSpace=wrap;html=1;fontSize=15;fillColor=#6a00ff;strokeColor=#3700CC;fontColor=#ffffff;fontStyle=1" parent="1" vertex="1">
          <mxGeometry x="780" y="474" width="120" height="60" as="geometry" />
        </mxCell>
        <mxCell id="pGYAa5rE9HQfa07IEvMs-1" value="" style="rounded=0;whiteSpace=wrap;html=1;dashed=1;" vertex="1" parent="1">
          <mxGeometry y="630" width="250" height="150" as="geometry" />
        </mxCell>
        <mxCell id="pGYAa5rE9HQfa07IEvMs-44" style="edgeStyle=orthogonalEdgeStyle;rounded=0;orthogonalLoop=1;jettySize=auto;html=1;entryX=0;entryY=0.5;entryDx=0;entryDy=0;" edge="1" parent="1" source="pGYAa5rE9HQfa07IEvMs-28" target="fQ13p7MDhRn6-QS3Xnmx-36">
          <mxGeometry relative="1" as="geometry">
            <mxPoint x="690" y="420" as="targetPoint" />
          </mxGeometry>
        </mxCell>
        <mxCell id="pGYAa5rE9HQfa07IEvMs-56" style="edgeStyle=orthogonalEdgeStyle;rounded=0;orthogonalLoop=1;jettySize=auto;html=1;exitX=0.5;exitY=1;exitDx=0;exitDy=0;entryX=0.5;entryY=0;entryDx=0;entryDy=0;" edge="1" parent="1" source="pGYAa5rE9HQfa07IEvMs-28" target="pGYAa5rE9HQfa07IEvMs-1">
          <mxGeometry relative="1" as="geometry" />
        </mxCell>
        <mxCell id="pGYAa5rE9HQfa07IEvMs-57" style="edgeStyle=orthogonalEdgeStyle;rounded=0;orthogonalLoop=1;jettySize=auto;html=1;entryX=0.5;entryY=0;entryDx=0;entryDy=0;" edge="1" parent="1" source="pGYAa5rE9HQfa07IEvMs-28" target="pGYAa5rE9HQfa07IEvMs-45">
          <mxGeometry relative="1" as="geometry" />
        </mxCell>
        <mxCell id="pGYAa5rE9HQfa07IEvMs-58" style="edgeStyle=orthogonalEdgeStyle;rounded=0;orthogonalLoop=1;jettySize=auto;html=1;" edge="1" parent="1" source="pGYAa5rE9HQfa07IEvMs-28" target="pGYAa5rE9HQfa07IEvMs-46">
          <mxGeometry relative="1" as="geometry">
            <Array as="points">
              <mxPoint x="405" y="590" />
              <mxPoint x="695" y="590" />
            </Array>
          </mxGeometry>
        </mxCell>
        <mxCell id="pGYAa5rE9HQfa07IEvMs-28" value="" style="rounded=0;whiteSpace=wrap;html=1;dashed=1;strokeColor=#000000;fillColor=none;strokeWidth=2;" vertex="1" parent="1">
          <mxGeometry x="280" y="290" width="250" height="260" as="geometry" />
        </mxCell>
        <mxCell id="pGYAa5rE9HQfa07IEvMs-29" value="" style="shape=image;verticalLabelPosition=bottom;verticalAlign=top;imageAspect=0;aspect=fixed;image=data:image/png,iVBORw0KGgoAAAANSUhEUgAAAIAAAACACAYAAADDPmHLAAAABmJLR0QA/wD/AP+gvaeTAAAdZklEQVR4nO2deWBTVfbHv+clTZs2zda0ZSuUHZRdZFVBBxxnRMZRRBSQTXQE+SEIgqAoorK5jY6ODAgoi+Cg46gz48Ymlk3RFijIUihCbYE26Zo9ub8/0rQvafb3siB+/urbb3PPu+/e7z3nXOAqgzF2I2PsHcbYccZYHWOsjDFWwBh7jjHWJd7l+40owRgbxhjbxwLjZIx9yhi7Pt7l/Q2RqK/4A0Eq3hdfMcb6x7v80YbiXYBowBgjAHcCeBpAb+/jtWZ29MhZa8WpUhup5IQ22VL0yE3uwHFo4eN2/wPwHBHtj3Kx48KvygAYYxyAu+Cq+B5ehx1Fpfb9z2wwZB8/b+vgfS0R2M095fkL7lWRRsH18nH7LwEsIaJvxS95/PhVGEB9xd8OYDGavvHOC5ftBx5frW92utTeNpT7DeqacmTh/SpzM7XEV18gD8ByIvpUWKkTgyvaAOor/m64Kr6r12FbUan94IJ1+panS+25kdy/f+fko4vGqU3N1JK+aPpb/SoM4Yo0AF7FLwHQ2euwrajUfnDeWn2rs2X2NmI8r1uu7OQLD6grWmVKB6Dpb7YXwLIr1RCuKANgjCUBuA/AQgCdvA5bi0rt3z2xRp9TfMneOhrP75YrO7l4nLoyN1t6PZr+dvkAXgSwjYhYNJ4fDa4IA+BV/NMAvDtw1sJi24F5aw0dSg325rEoT9cc6enF47UX2zeXDgAg8TpcAOAFXCGGkNAGwBiTARgDYBGA9l6HLYXFtoNPrNN3LNM7msW+dEDXnKTTi8dr/BnCEQAvAdhIRM7Yly40EtIA6it+IlxvfCuvw3Xfn7Icevq9yi6XKh1ZMS+cD1pnSc4/P15bfG1u0kAAUq/DRwGsBLCJiByxL11gEsoAGGPJACbA9ca39DyGukOnLYeeeq+yy+UEqXhvghjCMQDLkWCGkBAGwBhLA/AggCcATzXOXfEL1xu6llc7M+NSwDDJ0UkvPHW/6kzfjsn9ASR7HT4DlyGsJSJ77EvnSVwNgDGmADAFwHwAzTyPoTav0Hxo0cbKHlV1Tk1cCiiQVjppydP3q4r6dkzuByDF6/BZAMsQZ0OIiwHwKv5JANmex1CTV2j+YdGGqp5VRoc6HuUTm5Y66S+L7led7tsx+XoAcq/DxQBeA/A2EVliXbaYGgBjLB3ANLiaeq3HMUD/9Y+mIy9uqe5VbXSoYlmuWJGp4sqfGqMuvKFbSj80NYSfAbwCYBURmWNVppgYAGNMCeARAPMAeDTnTsb02/PNR55/v6p3rcmpjEV54k2GkitfdJ+68IZuKdcDSPU6fB7AywD+QUSmaJclqgbAGMsAMAPATAAezbmToWJ7vunoks2VferMLD2a5UhUtEpO/8Qo1ZFhveR9iOD9G1yCq0V4PZqGEBUDYIzpADwK4DEAHs25k6H8swN1hcv/WX292cq8rf+qRJNO+nn3qI8M6yXvTQTvVtBtCG8QkVHsZ4tqAIyxTADTAcwCPP8RJ8Plzw7UHVv2QXU/i415f/9+FeRkSnH+cuQderWCM8wfrTo8rJe8FxG8+0HlAN4E8AoRVQspJx9RDIAxlgVgNlzNvcdb7XCyX7btqTv92ic1/axW5j0U+lXx7Dg16swML39YBaeAWYC0ZKqdM0p56I4BaT3J69OJRkN4lYiqBBQXgEADYIy1ALAAriGdR+U6nDi/YXvtqVX/rRlstTNvMeRXybPj1Lijfyq255vx9HsGWGzC5oLS5VT3+N2qI7f3k3fhiLwNoQKu4eOrRFQX6TMiNgDG2MNwKVoeTZXDiXNrv6gpXvNF3SC7w5kU6f2vRNwGAABHiq2Y/Q899DXC54EUKVQ3+y5VwR0DUrtw5Dl8hktHeIiIvork3hEZAGPsebjm5BuwOljx6s9rS979sqa/w9lEB78q4BsAAJRUODDz7QqcLRNH6EuVkfHxUervRg6QX8sRdLxDdgD3EdG2cO8ZtgEwxiYAWM/bZf7soOnAks2Vg+0OdlVWvBtvAwCAaqMTc9YYcOiUeCKfQs5Vvzldc7hbm+TBaKxDG4B+RJQfzr24cE5mjGnhmuN2Y5qzxnD8mQ2GIVd75ftDmcrhzelajOgn3oi31uRUTnip4ob3d9fu4e1OAvD3epf4kAnLAACMBRqbnr9+XP3jzgJTE7/73/AkSUJ4dpwaM0YqQSIOvF/aVn3T96csu3m7BgAIK5glXAMY5f7DUMsOvbe9dlCY11+1EAEThyuwdKIGsiTxrGD2Kn1fpxNlvF2jw7k+ZANgjKXAZWEAgNf/XZUwTg1XEsP7yPH2jAxoFOG+e76ps7C0bwrNJ3i7hoZzfTiluA6ADHA5aXzxvalnOA/6jUZ6tpVh/eM6tMkSp9u0/stavjNs93oHm5AIxwAGuv/Q1zhPWq4ScSdatNJJsf5xHfp0kAm+19Fz1o6MobJ+Uwog5OjmcEywwQCOnLMGlSBXTNHid70iV35NVoYJL11GUWlsnGW06Rz+Ni0DipTIm2ZNenjXKlM5vDktA89srMSXP0Q+4ccYSF/DijKUdF39roEAdoVybTgG0NC73FFgCbmJiRS5jPDSVC3GryxHrSm6XtUcAUse0KBzq9gLl7IkwosTNWjbTIpV/62J+D4/FJlrh/dumGMbGOhcPiGZLGOsDRq9dNneY0ZvH/2o0DpTiufGq0UdOvli+h1KDOgSvy8aEfDQH9LxzFg1pJLI/tmdBRYFb3NgqHpAqG1Wg0VZHazYUMO89eioMaR7Csbfogh+YoTc2C0FE4ZF7/7hMHJAKt54RIt0efifob3HTZ0AuJtKHZoG0vgkbAMoLrOXhFc04cwYqUT/zuK/oS20kpi0MOHQr3My1s7WoYXWO9AoMDVGlm6xsbO8XSFpNGEbQF6hOebxbhwHPD9Bgyx1eD9KIGRJhJUPaqFMFWc8LibtmkmxYW4merYLb4RwptReytsMqR8Q9L9njMkBNIz5dxRY4hKHp03nsHyyBkkRfiO9eXK0Cl1yEne2Wq3g8PajGfj9daE7T31b6OFMLI4BwFMAqv3pgrVdyCUSmR5tZZjxJ+H+o38elIqRAxLfHVGWRHh+ggZdQzTUnYdN/KiqbvXe2AEJxQAaBaA650mns0kUbEwZe7MCw/tE7lLYuVUS5o66MsIOHE5g+QdVOH7eFtL5J0vsbRlgqN+UAOgb7JqwDOBwkVU0Z0QhLLpfjXbNwpdRlakcVj6oRbKIkzHRwmhhmLWqAtu+Dd3bizFQRZWjiLcr6GcgFAPgCUDGhBgvpSa7RKK0lNArkiNXR7JlRlwbsJC4WOnAg6+VI+9Y+E4kP56x1fI2hRkAYywXjdG6LO+YNSYCUCi0yZLiqftCDx188LZ0DL4m8acvCs9ZMW7FZZy4EFqz7832fDP/uz8gmCAUrAXgCUA4m2hRurf2kWPMkOCqdL/OyZh6W+IHH+0sMOOh1ysEOZLuLTR1AuCeqs8A0DHQ+SEbwNky2y8RlyqKzPqzEj3a+h8vEwHzR6vAJd5w34ONO2rxxDt6mK3CZJY6C1NYrB6CUMDPQLCeVMPF3x4NTwA69YsNCnnwb3QLrQQ5mZHPi0slhGWTNRi34rLPN4cxYOW2Krz+SAa4CPt+VjsLqWLkyRS2TuFwAiv+WRVWZy8YRWX20mtaJ7mTaQ0E8K6/c/3+8vUCUEO61Z0FprAycK3+X2gzW9p0DhufyES2AJUvWy3B0kkaTPtbBRw+Ws99xy1Y/b8aPPzH8D8DVhvDpFfL8VMIQzFfXsGBMFoYFqw3YM9RcaPBvzlq5q5p3aAdBGwBAjWMfdEoANWcKAktzWq46GuceOIdA2wOYU1f347JeOR2/7rHms9rIupVL/2gKqTKD5fLVa6evtiVDwA7C8whC0KBDIDvAXQqmgLQ0WIrXvuXcIlh4nAFbunp2wnFyYCn3jWgpCJ0V8YP8+rwyX7RA3JxqsSGCS+XR9zTD0ZRqS3XyZi+fpMD0M/fuSEZQP6Z6AtAW3bX4T8HhYXBEwGLx2uQm+37y1ZtdGLuGn1IMXsnLtjw8ofi/9t7j1kw5bVyXDREz6eWMVBFtTMkQSiQATR4AO88bI6JALR0a6VgF7DUZMLyyRqkyHx3xk5csOGlDwN7tIVjKOHwUZ4Rj62qQF0MJlQPnbLxe5XhGQBjrC0as3axvcfMMRGATFaGuWv0gn+gDi2SAopEH+UZ/TbtkXwqguF0ukYiL2yp9NlJjQbbC0z8CY+B9Qm2m+CvBWiwGIuNxVQAOnfJjkUbDGACX5I/9JXj7sH+e+T+OneRdhb9YbIyzFmjx5bd4g3zQuHAcXNHNApCajRNrg0gBAM4U2aPuQC067AZm3fVBj8xCHNGqXBtG99TqVabq7WpNja+kgdPWLD688gdM70pr3Zg6mvl2H0kZkm/GqizMIXFhqD9gKAGkHcs9h5AAPDXj6vxw2mroHvIpIQVU7RQ+4nC+UXvwKINlWAMuGhw4Mn1BjhFaqJP/2LDhJfKQ57KjQYnS2wXeZuhGYC3ALSrwByTFOzeOJzAgvUGVFQLq5FmGgmWjNf4VQH3HDVj9ec1mPuOAZW14tT+3mMWTHqlHGVR7OmHwreFZn79htwCXA9XqDEYQ/WJC7a4eQBdrnJg7ho97AJFokHXJGPqH/yrgKv+W4PCc8JaGzcf7zVi1j/0MFriv1TAznwTP9P6NYyxJp4wvgzAUwBiYUcQi0rBWSve/FT4d/nB29IxKMrTwZt21mHJ+5WCDVYszly0t3YyVNRv+hSEAhrAj2es4vWIBLBhRy2+zhcmEnEEvBBlh5BTJfH73vuCMdClKvsZ3q4mnwFfBtDoAZRvSohJdMaAxRsrBefauZJcwsTixyCCkIcBMMbagScA7T+eOB5ARgvDvLV6mATOl3dulYQ5d18ZTqFisD3fxFfEBngLQt4tAF8AOpNo6dqLSu14fnNl8BODcNfgK8MtXAwOnLB2hCuLGOAShDyW2fNrAGfKHAnpAfT5IRO27RGuqiV6YIhYGC3ONLOV8QUhj5AxvwaQVxh79SpUVn5YjYIzAkWi+tAwVVqC+4qJwKkSu19BqOG/Z4ylgicAbS8w+lpJOyGwO1yeNEKFmxZaCZ4ZK15waK/2sojdzqLJ7qMm/tDHtwHAJQBJAYAxVJ2OkgdQuPirnDKDAwvfNQhKygy4ws8nDhdntvvOgalYNjnxRhm7Dpv5glBXxljD5J5PqbCi2hF3AQhwJYh4eaoWEj8l2f+TRVBWDTfTRoiXIOJ3vVKwemYGtGGmi4kmZ8vsbZwMl+s3CTxByKcB/HjaKnwqTiDuFDFDuqdg2gj/vn7vfFGDXYeF9VfcKWKEOKbyubaNDOsfz4wofC1aXDLYfbqK8w2gQQDaftgcdwFo/mgV2jd3/YAThin8JpxiDFi8qRIl5cImXrTpHFZMES/8vGWGBO/OyUyYaKTvT9n4HjCeBsAYa4/G5ducB36KrwA0+qY0jOC5VxMBz44L7Os3RwQXrm65Mjz2Z/HWrUpNJrz6cAZG3RD1nFpB2ZFv4jv1NAhC7haAJwChqDqOAtC1bWSY5aMSgvn6nSyxYcU2wQtoYMyQNFETO0s44Ml7VZg7ShXXEcKBkxa+IKQE0BXwYQBFpbYyxAllKodlkzWQSX3/Uh1aJOHpAL5+H+814t8iuHHPv7fx8yMWY4akYelkTdxGCGYrSzVZ2GneroGADwOIRqBCKLhn64IlR7qtrzxgk7osjIQK/pDLXCJROOHnoTCslxyr/i9+I4QTJdZLvE2XAdTnle3u3rvziDkuAtDDfwx9vn7uKCV6+gkIdfv6VdUJE4naZEnx3HiN6BnEuufKsH52pt/+TDTZc8TaRBDi4CUAFZXYYi4A9e+cjMm3hj7wkEoISydp/Pr6leodeGZjpWCRaGiPFIy9WfyQiJY6CdbN1uG6jrEdIew4bGzN2+zCGNNy4DX/5XEQgJppJHhxoibs8O1sjQRLA1y356gZ678SLmf835+UoiR09sa9ksjt/WK3hOLPlxw5Tgb3Z4AA9JOCFwF04oJNNAFo5p1KXN8puIVnqji/b3Iw+nVOxkO3peNtP2rg3/9TjW5tktBPQJJJCQesnqkLfmIEJEkIi8dp0DJDitWf1wiOhQgFQ43zfIaSy6rfHCgFcI374Jkyh2hvf8sMacjpzYQw9hYFNuyo9RlN5Kz3LN40T1j4eTQhcvV/WumkWLK5UnCUdDAuVTlMGcqGau7CAWiYKOA4JIY3Yxgs/6AqYCiZoVac8PNoc3s/OVbNFG8lEX9w5FHHLTgADeO+HJ0ksX8lL7bsrsNnB4OP+48WW/HqRwmR4S4gPdvKsG62eCuJ+EKnlvDH0GYOwM/urT7tkzOi9mSRCTenwNZvQjOWeJOTKd5KIt6kyMioTeP4LmE/cwC2u7fSU+narjlJp5temlhUG514cl34zfqyrVUxW4FECK4RQgb+0FfcEcKYIWk/EoHfAnzFwbUKqPuX5FZO0VQ0uTKBcDJXx+4XffizfyYrw5zV+qivQCIGMilhyQOaiPIa+SI1maubNiKdr/FUAviUI6LDALa69zbPkPb/y+3pe5rcIUF4+z812Hc88vDtny/bsWRzVUyGXEJxrzUoxmjqrUc1P0g44qu8TxFRnbvLOQPAefeRqbelX9+7g+yY4KeKzJ6jZqz7UrgH0Nf5JmzaGXefl6BUG5149C294LmNKb9X7Ouem3wjb9duAG8D9ZNBRFQO16qg7lcrZdWMDLUmnfRIEMSSd928/m/h4efRpKTcgUmvlAtedLpbruzktBFK/hqPZQDuJyIHwPMIIqKDAGa5tyUctdg6P7uY4xD3FULFmuDh43AC89bqcTkBF0A9UmzFxFcuo/iisA6rKlVSueaxjBQAbgcHG4DRRNQQ8+GhOhDR3wGsc29nKLk+Sydq4t4fEGOK1xf6GifmvWNImGhewPV5elhgvmAAIALbNE93IklC/Amgx4nIoz59yU7TAPzg3hjWWz7kz4PTDggqjQD+JZKThz8KzlrxNxHCz8Vgy+46PLnWIEp2sqWTtLubayX8lcS3ENEb3uc1MQAiMgO4G2iIK6eF96o652ZJf/Y+N9qcLLFhpQhuXsHYKEL4uRAcTmDp1iqs3FYlSh9nWG/5D8N7p/A7fT8BeMjXuT41RyIqZoxNBPBvABwR1JvnZV665ckyo9nKQnKYM1mdHgmYwsVkcY3Zxc7V5wvGgOc2VULKEeTJkXuAtG8uhU4Z5nJvJtdn6MAJcTKTtcyQ/LJ0kjoXaMjsWgPgLiLy2cwF/G8ZY0sAPOXeLiq1541+8dJgUUr6KyTcZNEXKx2YtUovWsrYZClZvlra7ExaCnWt38Xg6vRt83dNsKmnZwB87t5o31w6eMYdym+EF/U3hK4M4ot3ZukO8iofAFYEqnwgiAEQkRPAWAANUSUTb1X079tJViCopFc5YqwM4s2kWxV5XVsn8b/7O8Frvf0RdPKZiPQA7gLg7iUl/326LlObziX0nEGismV3nSgrg/Dplis7+egdyj68XWUAxhJRUCEhJO8DIsoH8FjDRRxafLAg61wiiERXCk4nsPyf4vX03dSLPXIA7qlDG4B7iKg0wGUNhOx+QkT/ALDWva1RcH1eelAbV5EoWy3BoTdaYMWUmC1mHhFGC8Ps1Xp88I24+YI5gnPrAt3pJAnl8HbPIqJvQ75HmM+cDuCQe2NI95Qh99yYtj/Me1xVXK5yYOpfo7MyyNLJ2m8yVRL+6qDvE9Gb4dwjLAPgiUTl7l3z7lF1bdtMeibAZVGjxuTEyx9VRWVVDzFwrwwSjSVnhvWR/zCsl4fYcwTA1HDvE7YHIhGdA3A/6lORE0G1aW6mI0VGMa8Fo4Vh884671WzE4J9x6O3MkgrnbRk6cQmYs9oIgr7GxORCyoRfQXgefd2sow6bpiTmR/JvYTgrw/QuVUSDr3RAovHqaFWcFg0Vo2vlzbDvleaY91sHXq39+9vd/fgNPxzYRb2vdoc/3kuG4+MSIdUQtixrBk+W5zt9zo+H+UZMfPt6KwMIpOR+f35mdUckfufZgAmEdFPkdxPiA/ycwD+595o11w6aOadiSUSKeQc1s3WYWj3FJwsseF8uQM92srw1vQMn9G/0+9QYsEYFZppJPi20ILCczbcP1SBFyaGFi3vZMAbn1RHdWWQtY/pvk9N9hB7lhHRh5HeL2L/YyJyMsbGAvgeQDsAeOB3ioEHT1oP7ztm7hH46tgwtEcKdhSYseg9Q0OG0RkjlZg4XIGxtyjw3KbGpJPtm0sxcbgClyodmPxqOUrrfQ6z1a44PlUaB6MlcHP+5qfVgtPbB2LaiPQ9XXOaiD1PC7mnoCgEIjLAUyRKev1hTaY2XXIxwGUxo87MsGRzpUd62Xe+qIHdwdCrnednYOSAVHAEvPt1bUPlAy69fl2IMYbRrPweubITU36fzu/xXwBwr9uzJ1IEh6EQUQGAhxtuyFHzDxZklko4xN3/+tjP1iYzkkYLQ3m1E5kqz1m77rkug/CVcGp7HKeKAUCVxhnWzNKlwlPsGUNElwNcFhKixCER0QYAa9zbGgXX65WHtCGLEdHiUqXvN7LOzCD1mrXVKSVwMvh0ETPUOmG1x8driCM4tz6ZWSThwBd7ZhJRnij3F+Mm9TwKV38AAHDDtSlD7r1JsU/E+4cNE9H3W+xEEaGyYkoTsWdzveueKIhmAERkgZdINHeUsnunlvERicKlvMYBjgCdqqlDh0bBiZY+LhxG9E/97uaeKTfxdkUk9gRC1FBUIvoZwBg0ikSK9Y9nOuQySngn/CNnXS7iN/domo/wlp6xS+LgppVOWvLsOHV7NNaRW+wRVXATPRaZiLbDpREAAJKTqOOmeZmHxX6O2Hyy3wgnAx4YpkC2prEVyFJLMOnWmKyc24Bb7CGAL/ZMjFTsCUS0gtGXAPjYvdEmSzpozt3K3VF6ligUldqx/qtaZKsl2LYwCyumaLF8igbbFmah8JwN1UZnzHIMrJ/dROx5kYg+isazomIARMQATAYaV668b6hi0A3XyBK6JXjz02os3VqFiwYHbuqejG5tZNiyuxbPbjRAIedQLWJgij9m3qn6pnPLpBt4u3bA5ZoXFaLas2GM9QCwD/WRKU6GS7cvuohLlY6swFcmFn06yLB6pg4f5RnxwhbhS9b4o2+nlMJVM7QdALiTGp0HcJ0Y431/RDUfSX3kcYM/OkfI2jI/s0TCUWKtr1ZPK520SW8/Wy3B3FGuRaa+OBQ9QUiVxhnemq5VorHyRRN7AhH1bIVEtIkxdiPq1UJVGtf79b9od01/q2JotJ8dLmNvTsNtfeU4WmyDvsaBTJUEPdrJIJcRPj1gxPcCAzX9wRGcH7jEHv54fwYR7Y3KA3nEZHDLGEsCsAuNCxaxlduq92/ZXetzPdt40b9zMu4bmoYuOUlQKzjY7MDZMhs+2W/CR3l1ovry8Xnl4YxdQ7olD+Xt2kRE46LzNE9ipm4wxnLgcifLdG2jbuyKy2UnLtgSZm3CeDCyf+p3z4xTX4fGz/FhAAPFHu/7I2ZZQYnoPDxForT1c3RcWorvkKWrgRyd9MIiT7GnEq4wrph5V8U0LSwReQxpZBJqu2leVgFw5eUnFEq92FPrJfZMJqKiQNeJTTzylr8IoEHUyNFJbpg/WpVQnkSx4N3Zuu/lydSFt+t5IvpXrMsRcwOoF4mmAGhIR3fPjWmDbu4p/zHWZYkXc+9R7e7kKfZ8CeDZeJQlLisXEFElXDmJ3N+6pJVTNJ0SXSkUgxl3pO8Zc1Maf4bvHFxhXHHJXRfXFQ4ZY+MBvMfbZdtz1JK3cL2+b52FxXYGJso010hL33pUe7Z1lpS/dq8FwI1E9F28yhX3JS4ZY3+DK+KIj/HcJXv+sXM2a1GZLclkif8iluGQJGEmEJzpcok0N1uCXu2SlRlKrica/fjdTCWiNb7uESsSwQAkcGUrjYnwkUAsJKIX412IuL9Z9V6tEwEsAC9z+a+YS3Bp/HGvfCABWgA+jLE2ACYAGAlXrIEm8BVXBAxAKYATALbB5dMXvSnFMPl/1hoZ5Y+sRGwAAAAASUVORK5CYII=" vertex="1" parent="1">
          <mxGeometry x="170" y="400" width="52" height="52" as="geometry" />
        </mxCell>
        <mxCell id="pGYAa5rE9HQfa07IEvMs-37" style="edgeStyle=orthogonalEdgeStyle;rounded=0;orthogonalLoop=1;jettySize=auto;html=1;entryX=0;entryY=0.5;entryDx=0;entryDy=0;" edge="1" parent="1" source="pGYAa5rE9HQfa07IEvMs-30" target="pGYAa5rE9HQfa07IEvMs-36">
          <mxGeometry relative="1" as="geometry">
            <Array as="points">
              <mxPoint x="348" y="480" />
              <mxPoint x="348" y="480" />
            </Array>
          </mxGeometry>
        </mxCell>
        <mxCell id="pGYAa5rE9HQfa07IEvMs-38" style="edgeStyle=orthogonalEdgeStyle;rounded=0;orthogonalLoop=1;jettySize=auto;html=1;entryX=0;entryY=0.5;entryDx=0;entryDy=0;" edge="1" parent="1" source="pGYAa5rE9HQfa07IEvMs-30" target="pGYAa5rE9HQfa07IEvMs-35">
          <mxGeometry relative="1" as="geometry">
            <Array as="points">
              <mxPoint x="348" y="355" />
            </Array>
          </mxGeometry>
        </mxCell>
        <mxCell id="pGYAa5rE9HQfa07IEvMs-30" value="" style="shape=image;verticalLabelPosition=bottom;verticalAlign=top;imageAspect=0;aspect=fixed;image=data:image/png,iVBORw0KGgoAAAANSUhEUgAAAQAAAAEACAYAAABccqhmAAAABmJLR0QA/wD/AP+gvaeTAAAgAElEQVR4nO2dd4BU1fn+n/dO3TLbdwGXskhHekcRLNjRxIINwRY1scSCiqCiojGaosbE+EtikNhQY+I3oiYWkCLScWHpu/S6sL3OzM7M+f0xA+zCPXfnzs6dtu/nL5hz7r3vzsx55pTnvIfAtAuEEF0AXAXgbACDAOQDyARQCaAeQAmADQC+BvAdETVGKVSGYcKBEIKEEFcIIb4VQvhE8FQKIV4RQpwZ7b+BYRidBBr+lUKI1ToavRpeIcTHQog+0f6bGIZphWYNf20bG75MCPpG+29kGOYUhBBKoOGvD3PDVxOCBUKIodH+mxmm3RNo+JOFEFsMbvgyIRgW7feAYdodQgizEOJWIcSOUFqvT4hKl1sU1zt9W+qdvi0er9gvhPCEdivxLyHEkGi/J0xoULQDYIJHCGEBMA3ALAB6ZuibDpZ713/6Q73nm3WN3Q+Ue884tYLFTO7hvWw7rj47qXz8WfYCq4W66QkNwAIAc4honY7rmCjDAhAHCCGsAG4DMBNAQfDXoX7FVufaF+ZX9y2t8nYI9joiiIuHJa9/fHK6KSOF9P66fwHgeSJapfM6JgqwAMQwgYZ/I4DZAHoEfx3q15W41j31TlXfY1XevLbEMLafreipmzOcHTNMI3VeuhzA00T0XVuezxgLC0AM0uwX/2kAnYO/DnXLNzvXzX6valB1vS8znDGN7mPbNPuWjMaOGaYR0Pe9WQ7gGSJaGM54mPDAAhBDCCFsAG6F/xc/P/jrAg3/3erB1Q3eDMMCBDCwwLrjhWkZ5Z1zzWOgXwheJqIFBoXGhAALQAwghEgB8DMAMwB0Cvo6oOLbHxuLXvywZkhNgzfdsABVGFBg3fErFoK4hwUgigghUgHcCeAJAB2Dvc4nRMXCQmfRC/Orh9Y1+tIMCzAI+nexlDw7NbO0RyfzGAAmHZeuAPBrAJ8TkTAmOqY1WACiQLOGPxNA0LPzPoHyhYWNm57/oGpYvVM4DAswBPp1sZQ8F5oQbADwKwCfsBBEHhaACCKEcAC4F8DjALKCvc4nUPb5qvrNL/+zZqTTLZINCzAM9M637H9uaubB3vnmEQDMOi7dCOAFsBBEFBaACCCESAPwC/i7+kFP0h1v+C99XDPK1SSSDAvQALrlmfY/PzVrz1kFlrHQJwRFAH4H4H0i8hoTHXMcFgADEUJkA3gAwIPQ0/B9OPTPZXUlf/hP7ch4a/in0iXHfOD5WzP3DSywjARg0XHpZgC/AQuBobAAGIAQIgfA/QAeAhD07LzXJw59sqy+5LXPake53cJuWIBRoHOO+eDTN6fvHNHLNhqATcelWwC8DOADIvIYE137hQUgjAghcgFMh/9XP+ixuteHA58sq9v1h/+rHe3yCD2NI+7IzzYdmj0lo2REL9soAHpEbhf8QjCXhSB8sACEASFEHoBHAPwSQNBddq8P+9/5tnbPm1/UjvX6dI2T456cNOXY0zdlbBk3wD4KOt4zAHvgXz58m4iaDAmuHcEC0AaEP9HmowDugo4vcZNX7H9vYV27bPinkp2mlM2+KWPzuAH2kdDRawKwF8CrAP5CRE5jokt8WABCQAjRFf6u/t3Q0Y11NYmdb31dd2Te17VjfD5da+UJT5ZDKX98cvqmiUOShhFBj8dhH4BXwEIQEiwAOhBCFAB4GMA90DGR5W5Cyd++ri3lht86mQ6qmDE5o2jikKShRNDjciyFv0fwOqc0Dx4WgCAQQnSHfw3/DuhY03a5RfFb39Qdnfd17VifD4phASYgmQ6lYsbk9KKJQ5KGEAW/kgLgKPw9gj8SUYNB4SUMLAAaCH9e/BnQ3/B3vP5ZbflHS+vGCMHvcVtIsVHdo9elrbtydMpgouC9FACOAfgzgFeIqMag8OIe/nKqIIToD/8v/s3Q4Wt3usX2P35WW8ENP/ycEIIxKYPIf6JRsJQBeAPAq0RUbVB4cQt/SZshhBgAv09fV8OvbfBteuXTmsYFqxpGcMM3lhQb1d93pWPd5PGpfRWCnmxH5QD+BOA1IqoyKLy4g7+sAIQQAwE8BmAKEPxYvbbBV/TKpzXOz1Y26E2XxbSRZJtSf/+Vqesmj0/to1DwOyoB1AB4E/6cBJUGhRc3tGsBEEIMAvAUgOug473ghh87JNmVhgcmpa6dfG5KH0UhPUJQC/8cwW+IqMKg8GKedikAgTz2sxBCw58zv9qzqLCRT8aJMaxmct99WeqqWyc6eilK8MlVANQBmAvgRSIqNSi8mKVdCYAQYiz8Df8K6Gz4z71f5f1uo5MPwIhxLGZy/+yS1PW3X5xaYFJIjxDUA/g7gJeI6LBB4cUc7UIAhBDnwD+rP0nPdeV1vvVPzqu0rdnuOsuYyBijsJiVpqkTU1bffWlqF4uJuuq49LgQvExEhwwKL2ZIaAEQQoyDfx1ff8N/u9K+ZoervzGRMZHCbFKapl2UsvruSx35FlPwh6oAcAH4B/ynHR00Jrrok5ACEGj4zwG4QM9lR6q8a5+eV5m6fqe7n0GhMVHCbCLfLeenrr1nUmqe1UQFOi51A5gH/2lHB4yILZoklAAEGv4cAOfruMx3pMq7btbblY4Nu9x9DQqNiREUgu/68amrHrw6rYPVpOt8RTeAjwA8R0Q7DQov4iSEAAghJsKfUHK0jst8R6q862bOrXRs3M0Nv72hEHyTRievmzE5Pc1upT46Lm0C8CH8PYJig8KLGHEtAIGG/yIAPevxvgPHPKse/Xtlh+KDTXp+AZgE5LgQPH5duiPJRnp+CI4LwQtEtMOg8Awn7gRACEHwT+o9A2C4jkt9B455Vk3/W0XHksOe7sZEx8QrRBBXjk5e++i16akpdtIzB+QD8C/4D0LdblB4hhE3AiCEUOBfv38WwDAdlzbtPOxZPXNuReedRzx6zrxn2ikThyatnz0lw55iIz2rQMeF4Bki2mpQaGEn5gUg0PCvhX9WX48yN+087Fk9Y25F593c8JkQmDg0af3TN2fYUu2kxwfiA/Al/EKw3qDQwkbMCkCzhj8HgJ6xmXvnYc+ax9+q6LLnqEePAYRhVDm7n71ozrQMb2aqoscJKgB8AeBZIlpnUGhtJuYEQAhhAXATgCcB9NZxqXvznqZVM+ZW9jxc6Qn6hF2GCZaz+9mLnp2W4clOVfTsBTkuBHOIaI1BoYVMzAhAs4b/FIBeOi51bd7TtPrxtyt6Hanw6vF+M0xInN3PXvTkzenOjhkmvbtBvwXwJBGtNiKuUIi6AAghrABuBDAbQA8dl9avLXate/qdqr5Hq7x6EkMwTFhooxA8TUQrjYhLD1ETgMAv/l3wH5HdOfjrULdym2vl7HcrB1XU+rjhM1FndB9b8TNT0us7ZJr17hb9GsBT0RwaREUAhBATAPw/6JjcEwK1P2x1rpz9buWQqjqRa1x0DBMaw3tai5+bllXTKVMZhuDblgDwLoCHopGhKKICEDDxPAP/OD+onHtCoHpxkXPNnPerhtc0+PQkg2SYqDDkTGvJs7dk1HTJNQ9F8G1sL4DrIz0/EDEBEEKY4d9nPS24+qhcVOhc+/z8ypG1jUJPOmiGiQnOKrCUPH9LRlW3DpZhCC7XZD2Aa4noK4NDO0EkBeAtAHe2Vs8nRMX/1jqLXvqoani9S6RGIDSGMZT+XSwlL9yaWdatg3kUWhcCJ4CJRLQ8AqFFRgCEEI8A+H0r1dw/bHGumDmvamhdo0/PkVAMExcM6Wnd9srPsprSU5SBrVQtBzAkEvkHDBcAIcRgAKugcZZek1fsu/+N8rq1xW7OwMMkNArB98wtmcsmjUo6B9qnTX0L4GIiEkbGEwkB+B7AObLyeqfY+tM5pXkVtb5so2NhmFjhqjHJa56ZkjEA2sfK30xE842Mw1ABEEJcCeAzWbnTLbZfPOtIPo/1mfbI5SOT1j0/LXMw5D2B3QB6E5HHqBiMPrH2QVmBT6Ds2l8dTefGz7RXvlzTOHz+4roVGlW6A7jKyBgME4DAkdrSpJzPf1C1m737THvn9/+uGXes2qvlBLzDyOcb2QO4DJIhxsFy7yo+VothACFAd71W3gn+NORqXCiESDbq+UYKwIWS18Vjb1XkGPhchokr9pd5Oq8vca2SFNsBjDPq2UYKwNlqL5bX+NZvP9CkZ9cfwyQ8L35U3Q3+fQFqqLalcKC1DhkygfG/6vj+vUV1sq5Ou+PjWXko6GDIRxA3/OmzGryzsC7aYUSd3Uc83WqdYpPDTgNUisca9Vyjvn2ygH2fr27Qk4M9oTGbAJPR6zAxjtLO//7mLN/kLL90hKotYIwQQiEiX7ifadTbP0btRadblLDhh2HU+XxVY5akKA36EuIGjVECoDpmKT7oOWLQ8xgm7llf4uoN+WqAIcOAsAuAECIJwCC1siWbGoPKAcAw7RGXR9jqnKJEUhwfAgD/MV0WtYLFG51Bp/5imPbI1n2ucklR3AiAaqA+ISr2lHKefobRYnGRyyop6iuEkM0RhEzEBOBYta9EiOhnIWaYWGbxBqfs3EqCvtOvg8IIAVANcm2xu8GAZzFMQnGk0tvB58NhSXHYhwFhFQAhxJmQGIAWFjo5rx/DBMGhcs8eSVFsCwDkAXrXbnfqOe2HYdotK7e53JKi0UKIsK6kRUQAnG5RXO8SKWF+FsMkJAs3uGRmOQeAsKbNi4gA7DjoPhrm5zBMwrJhp6sX/NmB1QjrMCBsAhDYs6xuACpysQGIYYLE5RG22gZfRAxB4ewBjIRkc9HiDc4uYXwOwyQ8W/c1RcQQFE4BkBiAULH3GBuAGEYPizc6ZWn0ewshwpZQx3ABOFrpKRGGZjZnmMRjcZGmIWhUuJ4TTgGQGICa2ADEMDoprfJ28PrEIUlx2IYBYREAIUQPAB3UyhYVNvKJvgwTAgfKvHslRbElAJAH5Flb7OoZpmcwTLtildwQNCpchiBDBaDRJUrYAMQwobFwg0s22ecAoJY7UDeGCsB2NgAxTMgU7nT3BtAoKQ7LMKDNAiCESAGgetzxsiI3G4AYJkQ8Xp/FaENQOHoAUgPQoo0NvP7PMG1g0153haQoZgRAZgAq23fUyw5AhmkDS4pcMkNQTyFEblvvb5gAHK307gzDvRmmXbNko1N2ilZYMgS1SQCEEATJGQCrdzhlu5kYhgmSo9XeXK8PByXFbR4GtLUH0AOAajfkuw0uzgDEMGFg/zHPPklR1AVAwwDkZgMQw4SBFducTZKiUUKINh3v19azAVUFoMElihtcPkOOMkokymt8SLJ6I/pMqwXS1MxeL+AJ++lz2tQ7eadYayz60Zl704RUtaIU+A1BhaHe2xAB2L7ffQwGnWWWSNz1h7KIPi81ScGS36jmbAUAHK3y4rKnSyMYERMMG/d4egJoAJCsUjwWbRCAkIcAAQOQqh1x6SZX+z7zmmHCiMfrs1TXG2MIasscwCjIMgAVNfL6P8OEkc173ZWSoqgJABuAGCZCLNroskuKegohVLfiB0PYBaCUDUAME3aWFjXKDEFAGwxBIQlAwACk+tA129kAxDDhprzGl+P1Yb+kOORhQKg9gJ6QGIAWcgYghjGEvcc8MSMAsgc2rS1pYgMQwxjAyi0uj6RoZKiGoLAKQL1TlDjdQm2tkmGYNrJwY2OepEh6KE9rhFUAth9wHwvxfgzDtELRLndPIVAvKQ5pGKBbAAIGoLPUypawAYhhDMPrg7k6zBmCQukBjIbEALRkg5MzADGMgWza0xRWQ1AoAiAzAB3bX+bpHEoQDMMEx6INjbI5tjOFEPKNHhLCJgCHKzy7QrgXwzA6+H6zU2uVTbchSJcAaBuAXGwAYhiDKa/xZTV5RdgShOjtAfQCoHpYwaINLjYAMUwE2HfUGzZDkF4BkBqA1pXwEWAMEwlWbHXKssiMFEJY9NwrLAJQ7xLFbABimMiwsNApMwQlARis515hEYDt+z1sAGKYCLFpr7tXuAxBQQuAEMIBmQFoY6OubgfDMKHj88FUVe8rlhQbIwDwZwBSPetvcZGzm56HMgzTNjbuaaqSFBkmADIDUOmBMk++nocyDNM2Fhc2pkiKCoQQZwR7nzYLwOEK724d92AYJgws2+LsAUCWUz1oQ1BQAhAwAI1SK1u93ekK9mEMw4SHylpfVpMXeyXFQQ8Dgu0B9IbEALSw0JkV7MMYhgkfe0ub2nxmYLDbd6UGoPUliXcEmCNJwVVjktG7sxl2i+wcnfjDbNL+W9KSFbx8R2IZOivrfFi+xYVlmxLPqf7DVre35xmqC3AjhBBWInK3do82CUC9S+xwNQnVpcF4JT/HhL/9MgcdMlUXPBIau5UwcWhStMMIO5PPTcHnqxvw7HtVEAl0EtnCwsaO0y5UnQu0w28IWtPaPYIdAqgbgPZ5Inu2VQR48oaMdtn4E51Jo5JxyfDEErct+9w9hECtpDioYUCrAhAwAPVXK/uuqMEazEPihbRkBaP62KIdBmMQFyVY78ZvCBJtyhAUTA9gNCQGoCUbE8sAlOVQQIkz5GdOIcvRlnNwYpMNu101kqKwCYC6AcgnSg+We4M2HMQD3PgTm0T8fL8rdMoMQd2EEK0a9EIWgEPlbABimGizbLOmIWhMa9drCoC2AcjFBiCGiTLV9b5Mt1fskRS3OgxobRmwD4BstYJFG1ztzgD020+qsWxzfK8nv/7zbBR0UP/YV2x14dcfy/aYxAfPTsnEsJ4JNTfdKnuOeA72zrd0VylqswDIbuBet8vVq9XIEoyKWh8OlsmSscQHTR75QnijW8T93+d0J9BCf5As3+wUvfNVDUHDhRA2IpL21lubA1AVgDqnKHa7hey8coZhIsiiDS5ZOnAbgCFa14YkANv2uxPOAMQw8cq2/e4eQiCk5UCpAAgh0gD0UytbXORqX4MsholhfAJKRX1oR4Zp9QDajQGIYeKdDSWukCzBWgIgNQAdKvcklAGIYeKd7zY6UyVFXYQQ0iP7dAsAG4AYJvb4frO7JwCfpFhqCFIVAC0D0Iptrlb3GDMME1lqGrzprib9hiBZD6AvAFWjz3cbnKrGIIZhosuuI55DkiLdAiC7wFW4K/EyADFMIrB8i1PmghomhFDd565LAGobfCWuJvUbMQwTXRZvcHaSFNkADFMr0CUAW/e5y0OIi2GYCLDtQFMPIaDrwJDTBEDLALSkyM0GIIaJUYQAVdT6dkqKgxMA+JcMVHsGS/gIMIaJaX7c5ZYZgs5We1GtoUsMQCg9XOmRjTEYhokBFhU2OiRFZwghupz6YtACcLDMwwYgholxftjm6gW5Iei0tt1CALQMQCu3O9kAxDAxTm29L83VJGQ/1toCAP/kn+rRMAs3uNgAxDBxwK7DwRuCThUAqQFo4042ADFMPLBss1OW/3iYEKLF4QhBCUCtUxS7PGwAYph44LsNjbLduhYAQ5u/EJQAbN3LBiCGiReKD3m6C6BSUtyijZ8QACFEBvybgE5j8UYn//ozTJwgBKi82huUIah5D2A0JAagpZucBeEJjWGYSPDjrqY6SZFUAGQGoEOHK7yyrKMMw8Qg3xY2pkmKzhBCdD3+n+bnAqgKwIEyz14AMZ8CzGwiXDcuuU33SLYRVm2XH3jUp7OlzQdMfrmmETUNMp+GNpcMT0Jmatuev7/Mi4o69ec3uny4cYLsqLngWFvsRsmhppCuHdLDir6dVfPbB01Ng0/6GdY2tP3v23/Mg+VbYv9QrBVbnL0AeKGe1/NsAPuAgAAEDEAj1W60cpsztE8zwljNwGPXpRv6jNFhODp8zQ5XyAIw7cJU9O3StgbSGleo2sCC5+V/VocsAOcPsuOWC2Sp7cLDxDYeEf5tYWNcCEC9UzhcblFis5La8v1YAB8CJ4cA/SExAC3a4MoxJkSGYYxk5xHPYUnRid6+cuoLp+DauMvdI6xRMQwTEZZucsrGi0OEEMlAKwJQ5xQ72ADEMPHJd4WahqBhwEkBUE0bXLTbVWFAXAzDRICdRzwFPiFkbXgsAChaBqAlRS7+9WeYOEUIUHmNdoYgBRoGoB+2urqqvc4wTHxQuMvdICk6IQCq3X8hUH2wjDMAMUw8U7izSZbHs6MQokDBKbuDjuNqEqUAZNsKGYaJA4oPujM0igcr8HsATsPZJGRdB4Zh4oTqBp+W86mvAkDm8+dff4ZJbHIVAKrmaJuZeAWAYeKczFSTVk/eoQBQTfZpt1GeMSExDBMpenSyVGsUuxQAqkYBArI6ZZllyQUZhokDhva0aGXzrlIASPP9XzjYvifsETEMEzFG9rKpbvILUKwAWC8rvbaN++sZhokeWWlKRXqKorrKF2CjAmCprLRrnnlopoN4PwDDxCH3XuEoQsukP805CqBIAfA/AI2SSkkzrs3YaERwDMMYh81MrqvGJGud5fE5EfkUIqoD8E9ZrYnDkkbkpCtHwx8iwzBG8ei1aStNCuVrVHkLOLkJ6FUAQq0WEVLnPpwj21HEMEyMUdDRtP/qc5JVU/wF+IGIVgABASCiQgAfyGrnZ5vH/mKSY1l4w2QYJtxYzOT+x/S8GiLSmsF/4vg/mm8DfhyA9ASgn13iGDm0p21LGGJkGMYg/vrLrJWpdjpLo8rfiejEj/kJASCiQwDugmQoAMD+lwey0jJSFT4mjGFikFsvcvwwqLttvEaVnQAebv5Ci0QgRPQpgFdkV5sU6vzxzLy9igJvmyJlGCas9O9qLf7lVY4hGlWcAK4notrmL6plAnoCwBLZXbLTlGG/vi2T5wMYJkZIsVHd3x/JMQHQGvf/gohOM/2dJgBE5AFwA4CDsjtNHJo0ftKYpBWhBMswTPgggpg/M2+T1YQzNar9mYjmqRWo5gIkolIA10GyUxCA8uzNmf0K8sz7dEXLMExYmTM1c2l+tkk1rV+A1QAekRVKD5ojopUAHpOXI+ODGblOu5U4cxDDRIHzByf9ePnIpHEaVcoB3EBE0rPMNE+aJKLXAbwjK7dZqfc7j+b+2GqkDMOElTOyzYd+c2dmV6gf/gkAPgA3E9EerfvINgo05174TxEZoFbYo5P5nAeuTFv6xwU1WssPhuP2AK/8uyaaIQTFserQDgYFgHcX1SHbIfu8Y4PCnVrbz7VZUuTE0arQ359IsPeoJ9ohwGxSmj54PKdcIQzUqPYkEX3d2r2CyvsnhOgFYA0A2fG7rnteL9u+ttg9KJj7MQwTOvOmZy8bWGA7V6PKAgA/ISKZp+cEQR02T0TFAKZBbhKyvXl/Tk6Wg01CDGMkt010LG+l8ZcAmBpM4weCFAAAIKLPAPxWeiMFZ3w8i01CDGMUAwqsOx74iUP1HI8AjfCbfbTyALYgaAEIMAuAdFyRmaoM++0dbBJimHCTlmyqfuuhbDtaN/vompTXJQBE5AUwFcABWZ3zBidNuHZcyko992UYRg4RxHuPZ2+zmEjrrM4/EdE/9N5bbw8ARHQUfpOQbG2RZl6f3q97R/MuvfdmGOZ0fnVr1pL8bPNojSqrAEwP5d66BQAAiEjzgURIf/+xXC+bhBimbVwwJOnHS4bbtSb9jgK4johCWn8NSQAAgIjeACDtctis1OvdR3MLQ70/w7R38nPMh16+I6Mb5GYfL4BbiEg6JG+NkAUgwC8ASCcdzuxkPvvBn6ZJsw4zDKOOzUyu+U/kVilEWRrVZhHRN215TpsEgIgaAVwPoEpWZ9qFqWPH9rdzZmGG0cFbD+esTrGRVk5/zWX5YGlrDwBEVAJtk5Dl9Xsyc7McptK2Poth2gO3XZS6vH9Xi9a4vxjAtGDNPlq0WQAAgIgWAHhJ+hCFOn08K/ewSUH0jdQME8MMKLDueOCqNC2zTz2Aa/SYfbQIiwAEeArAV7LCzFRlyCt3Z30fxucxTEKRnmyqeuuh7CRom33uJaJN4Xpm2ASAiHwAbgawR1Zn3Fn2CTeMT+VMQgxzCgrB99GsnGKLibpoVHudiKTb80N6bjhvRkQV8KcTk5qEHrsubWDvfDYJMUxzfn171tLcdJPWYR6aCXpCJawCAABEtBqnpB5uWY7UedNzvUlWqgv3sxkmHpk4NGn9xKGaZp9StMHso0XYBQAAiOhNAG/Lym0W6vXe47m8NMi0e/KzTYd+fXtGAbTNPlOJSJqkty0YIgAB7gVwWhri4xR0MJ89/Zo0afpxhkl0rFZyzn8ir7oVs88TbTX7aGGYABCRE8A10Dhu7ObzU88e19/KPQGmXTL3odw1KXbqp1HlPwB+b2QMRvYAQER7AdwGf4JCNSyv/jynY4d0M5uEmHbFPVc4VvTrYtYa9+8AcGs4zD5aGCoAAEBEnwN4URoAIW/+zJxDJoWajI6FYWKBAQXWHXdfqnmMVx3CaPbRwnABCPAMgP/KCtNTlKGv/zxreYRiYZio0czsk6RR7V4i2hyJeCIiAAGT0C0AdsvqjOlnm3DjBDYJMYlLwOxT0orZ5zUiejdiMUXqQQGT0DXwJy5UrfLotWmD+nS27IxUTAwTSV66I2tpbrpphEaVFQBmRCoeIIICAABEVAjgIXk5UuY9mqOk2FseYcww8c7EYUnrLxzSqtlnshFmHy0iKgAAQER/BTBXVm41Uff3Z+RtgHx7McPEFZ1zzAdfuj2zAHKzjwf+M/wMMftoEXEBCHAfgHWywi45pnFPXJ/OmYSYuMdv9smtIUDL7DODiKJiiouKAARMQtcCKJPVmXxuyjnjB9g3RC4qhgk/cx/KWZts0zT7/B+AVyMVz6kEdTagUQghLoJ/eVC1a+QTODbpmVJvaaW3Y2Qjiy6dc8zo29mCnHQFKXYFXp9Ag0vgaJUX+456sKfUA1+MDpBMCnBWNys655iQmWqCzQI0uAQOlnux40ATSqvaz8FR91/pWHb7xY7WzD4jiShqp9pGVQAAQAjxLPw+AVVqG0TRRU8e6dPkEdbIRRV5FAKuPjsFN56XgjM7ah/a3OASWFvswiffN2D5ZmeLsuemZmDSqJP5JG566Rh2HNTnsbp3kgN3XuI48TYgfiUAAA6YSURBVP/7/1yOFVulR8wDALp3NONnlzgwfqAdyTb512pPqQdfr2/Ev75vQFlN4orBoALr9ren53SFfL2/DsCYSK33y4jWHEBz5kDDJORIpoGv35OZ0P6AZBvhzQeyMevG9FYb//H64wfYcf25pyeOWbCy5SrrFaO0/CanQwRcPvLkfY9Ve7Fqu7zxKwrw8NVp+HhWHi4dkaTZ+AGgoIMZd1/mwLXjtJLexDfpKUrlWw/nJEPb7HNntBs/ALT+bTMYIvIJIaYAWAvgTLU6o/raJ0y5IGXp+4vqx0c2usgwZ2omRvSytXittMqL4oNNqKzzwSeAVLuC/GwTzuxohtUib2TrSlw4XOFFpyz/qOrykcn4w39q4JPtxjiF4T1tJ64FgC/XNEqvNZsIr9yViXPOsp9WtuuIBwfLPKh3CqQmEbrmmdElxwyKep/TWBSC7+OZuTtNCrTW+18hoo8jFpQGURcAACCiSiHENfAbIVRV8+Gfpg9fX+wu2bq/qWdkozOWs7pZcf7gkw1o/zEPnv+gCutK1JeDLSbCsF5WXDI8CSn201uTEMAXqxvws0v9Xfgsh4Kx/eynDRVkXDm65du/YJX8cKeHr05r0fh9Avj38nrM/boOpZWnd+8zUxVcMDgJ16n0XBKF396VtTQn3XSeRpUfAMyMUDitEhMCAABEtEEIcQ8A1ZxnREiZ+3COeeKs0pp6py8twuEZxvgBJ3/5fQJ48P9VYO9RefLkJq/Aqm0urNrmgtmk/nO6YFXjCQEAgCtHJQUlAElWwgVDTgrA5r1N2H1EPZbhvWy4cUJKi7hmvl2J7zbIn1NZ58O/ltfjX8vrkeWIhdFneLlqdPKa8wbatXqpUTH7aBFTn0LAA/2WrNxqoYKPZ+ZuJUock1DHZt3tvaUezcZ/Kh6v+ttwoMyDwp0nv2MTBtnhSGr9o75wSMsxvNav/52XpLb4/xsLajUb/6lU1AY5JokTOueaD86+JaMH5G3KA+B6IjoUwbBaJaYEIMD9ANbICjtmmUY/eUNmQmYSyk4L38exYPXJxms1Ey4advo4/VQmNev+uz0CX61T37aRn23C6D4ney6HK7x4f1H7TfFotZLzwxm5ta2YfR4lopgzt8WcABCRC/7jx6UmoavPSRo3YaB9beSiMo79R0+OldOSlRbLb23hm/WNcDWd7CFMGq097u6QacLwZhORSzc5UdOg/is9/JQJy/+sbIhZX0IkmPdIztokG/XVqPIREf0hYgHpIOYEAACIaB+AG+FPiKiG+Xd3ZXXrmGU6EsGwDOHbwsYWjefeSQ7MfSQHPxmT3KZxcr1TtOiSD+5uRZdc+ZTPFSOToDSbUvh8lWzTJjCgwNLi/z9KJizbAw/9NG1Zn3zLOI0q2wHcHal49BKTAgAARLQQfo+AKgoh96OZeWUWc+xMqITCnlIP3vm2Zfd5cHcrZk/JwDcvdsQnT+Zh9pQMXDk6GR0zZXtJ1PnslDH8JA1PQPMeQkWtDz9skY/nsx0t49hd2j6TOY3obd889cLUURpVjmf2iZrTrzViVgACPA+/V1qVVDsNeOO+nB8iGI8h/PGzGrz2fzVodJ/ej+7e0YyfjEnGs7dk4Is5HfD2Izm4bETLX2sZa7a7WlhvrxiVrLoOP7DAim55J3sHX65pgFdjji4jpeXXprax/fX/01OUyj/fl5UOwCapIgDcQURbIhiWbmJaAAIJEe8AIE0SMryn5bw7LnbEfTqxdxfW4apnS/HHz2qwea9bar4Z1N2KF27NxNuP5KBDhnaPwCeA/6452ZXvlGXCsJ6nf18nnbb2L+/+q9LO2r/f7JO3y6Sgs0a13xHRPyMWVIjEtAAAfpMQ/JmEpGtS913pGNKvi3Vr5KIyhopaH+Z9U4dpvyvDeTMO4743yvHWV7XYsOt0QRhQYMWf7svWdAUCwGcrtYcBVjPh4mEnX9t+oAklh7S79NWnTA6mJiW4ve8Ufn931rKcdGW4RpXFAGZFKJw2EfMCAABEtBHaEykpb0/PSUpNUmJ2rKWXeqfAym0uvPl5Le54tQwXP3kEf/68tsUw4cyOZvx0rPbs/t6jHmzac3KaZOLQJNitJxvs+IF2pCWf/Bporf0fp7ympQB072iR1Ew8rhqdvGb8AE2zzxEAU4goeENHFIkLAQAAInofwF9k5RYTCj56ImdbIpmEmlNZ58Pfv6rFU/+obPH6+AGtr+8379In2wgXNLMeN7f+erwC/1vbevd/4+6W865DeyT0Rs0TdO9o3jt7SkZvyHfRNiEGzT5axI0ABHgAgHS83zHLPOqZmxPTJHScxRtbrs8337gj46t1jXB7mnkCAtuFj+8TOM73m12orGvdobeuuOXuwKvGJAc1KRnP2KzkfO+x3EYipGtUm05EyyIWVBiIKwEgoiYANwE4Jqtz5Zikcy8aliRNN5YI1DacbMzNzT7S+o0+LNl4cllvZB8b8jJMuGxEMkzNvgHBdP8B4FCFFyu3nRSB/GwTbjovVeOK+GfeIzlr7VZNs8+HRPTHiAUUJuJKAACAiPZD2yRkevG2jG6dspQDEQwrZCaNTkZ6SvAfQ/+uFuTnNNs/EOTegQWrT3btFQIuH5nUYva/qs6H7zdrJ/1oztyvWiZuvv8qByYMbH04cpx42gz0yDVpS3trm322IYbNPlrEz6fQDCJaBI0sQgpRzoczO1RbzRT8NzpKTLswFV/O6YBnpmTgnP426aw+EXDuADtevael3TyYMTsArNjqbJGB55YLUtE7/+Tk3f/WNUo3F6mxrsSN+YvrT/zfaib87mdZeHxyunR5MiNVwbXnpGD+E7mYfG6Kap1YY2Qf2+Yp56eO1qhSC7/ZJy5T2cftyE0IQQA+gX+JUJXCna4ld75WPiFyUenn41l56NHppAnH4xXYediDA2XeE2P9LIeC/l0tyE1v2bAWb3Ri+t8qgn7WQz9Nw9QL1bvqU35zDNv263P0aSUE8f8NHjS4BFLt/oQgXXNPJgT5639r8ZcvY7vNZDuUyv++0MFlUkiWk1LAP+n3SSTjCicxkw9AL0QkhBC3AegPQHVsNqSHbcKdlzi+//tXtVrdt5jCbCL06WxBn87aS2vfFjbi6XeqdN17waoGVQEoOdSku/EDfrF66K8VmH5NOm4Yn9LCZdijk7mFsMUbCsE3/4m8XSaFtNb7fxPPjR+I4x7AcYQQAwGsBCBbEG+8/ZWyvRt3u7UmcKJGr3wLzhtkx9h+NvTvaoFFkuQD8Dv71pe48P6ieizdFPze++a893gu+nVpKS6vflqD99q4nbd3vgV3XebAOf1tsGmYk3Ye9uB/axvw6Q8NQa04RIs/3JO1ZNwAu1bv8TsAF8fLer+MuBcAABBC3AzgfVl5k1fsvWhWqaO2wae1XzvqWM2EHp3M6JJrRnaagmSbPyV4XaPA/jIPtu1vQnV97DYaALBaCIO7W9Epy4TMVAWK4jc1HSzzYMdBD45Vx34m4J+MSV4ze0rGCMjbx2EAw4nocATDMoSEEAAAEEK8AeBeWXlplXf1FbNLRwgRnxOfTGTo0cmy56OZuVlEkKWdawJwARF9H8m4jCKRGsND0DAJdcgwjZpzS1ZCm4SYtmGzUOM7j+Y4NRo/ADycKI0fSCABCJiEJsPfPVPl8lH2CZeOSIxMQkz4+cejuetaMfvMJ6I3IhZQBEgYAQCAwJhsCvwJGNVQXrg1q0eXXNP+CIbFxAGPXpO2tNcZZq3VoiIAd0UqnkiRUAIAAET0HYCnpeVA5gcz8qqtZtK56Z1JVEb1sW+66fzUMRpVauFf76/XqBOXJJwABHgZwL9khck2GvDXB3NWRzAeJkbJTlPK3rg3KweAbEujAHA7EW2LYFgRIyEFIJBJ6HYA0iQhAwssE+6+zBFXO7eY8KIo8M6fkbdPUaB1+vRLRCT9MYl3ElIAACDgzb4G/u6bKvdc7hg55Mz4zyTEhMbrP8/6PjtNGaZRRXM4mQgkrAAAQKDbprVLy/7XB7PTMh1K8IZ6JiG4+pyUVWP7aWb22Q/gBiKKfedSG0hoAQAAIvoQgHSftkmh/A9m5BQrJN1ezCQYPTpZ9jx5Q3o/aGf2uYmIpHknEoWEF4AA0wFIx/t56ebRL9yaFXPHNjHhJ9mm1L/7WK6nFbPPg0QU95mmg6FdCEDAJHQ9NExClwy3T7h8JJuEEp1503MKbRZoHTH/ARG9GbGAoky7EAAAIKIjAG6GhkloztSsHl3yTPsiGBYTQWZMTl/So5P5HI0qCWn20aLdCAAAENFiaORrJ0LmhzPyGlNs1H6Puk1QLh6etO768Slna1Spgj+zT3CJEROEdiUAAX4HDZOQ3Up9Pp3dYbvN0r6+CInM6D62TS/emtkHgCzLigBwKxGVRDCsmKDdCUCz48a2y+pkpynDv/5Vx5LMVKU8cpExRnDV6OQ1f74/uzsRtNIW/5qIPotYUDFEwuQD0IsQ4iz4MwlJvxg+nyid9Y/K/d+sd46IXGRMOLBZqOG1uzPXjOprHw/t7/m3AC5N9PV+Ge1WAABACHEDgA9bq3eowrvyibmVWZv3untHICymDVjN5Jp6Yeqan1/u6K4oyG+l+j74M/uURSK2WKRdCwAACCFehT+ZSKtU14vCL1Y3VP/7h/puu494uoHfv5gg2Up1Y/vZd1w/Ibl2WE9bf4WQG8RlLgDjiahdbwpr919gIYQFwDcAdKUPFwK1riZxqNEtGnzt7oDs2MBuIbvdQo7AMd16v8t3EdFbRsQVT7R7AQAAIUQm/OnE+kU7FiYivEhET0Y7iFig3a0CqEFElQAuAPBjtGNhDOdlAE9FO4hYgQUgQMApeD40PAJMXFMP4E4ieiKwFMyABaAFRFRNRNfB7xMojXY8TNj4Fv7Z/rnRDiTW4DkACUIIB4D7APwCQNcoh8PoRwD4GsBrRPS/aAcTq7AAtIIQwgTgbACXAxgB4CwAOZDbSpnII+D38h8AsAnAUgBfBI6SZzT4/wQX17Ht1wx+AAAAAElFTkSuQmCC" vertex="1" parent="1">
          <mxGeometry x="310" y="394" width="76" height="76" as="geometry" />
        </mxCell>
        <mxCell id="pGYAa5rE9HQfa07IEvMs-34" value="Check OCSP API" style="text;html=1;strokeColor=none;fillColor=none;align=center;verticalAlign=middle;whiteSpace=wrap;rounded=0;fontSize=15;fontStyle=1" vertex="1" parent="1">
          <mxGeometry x="320" y="294" width="170" height="20" as="geometry" />
        </mxCell>
        <mxCell id="pGYAa5rE9HQfa07IEvMs-35" value="" style="shape=image;verticalLabelPosition=bottom;verticalAlign=top;imageAspect=0;aspect=fixed;image=data:image/svg+xml,PHN2ZyB4bWxuczpkYz0iaHR0cDovL3B1cmwub3JnL2RjL2VsZW1lbnRzLzEuMS8iIHhtbG5zOmNjPSJodHRwOi8vY3JlYXRpdmVjb21tb25zLm9yZy9ucyMiIHhtbG5zOnJkZj0iaHR0cDovL3d3dy53My5vcmcvMTk5OS8wMi8yMi1yZGYtc3ludGF4LW5zIyIgeG1sbnM6c3ZnPSJodHRwOi8vd3d3LnczLm9yZy8yMDAwL3N2ZyIgeG1sbnM9Imh0dHA6Ly93d3cudzMub3JnLzIwMDAvc3ZnIiB4bWxuczpzb2RpcG9kaT0iaHR0cDovL3NvZGlwb2RpLnNvdXJjZWZvcmdlLm5ldC9EVEQvc29kaXBvZGktMC5kdGQiIHhtbG5zOmlua3NjYXBlPSJodHRwOi8vd3d3Lmlua3NjYXBlLm9yZy9uYW1lc3BhY2VzL2lua3NjYXBlIiB3aWR0aD0iMTguMDM1MzMxNzI2MDc0MjIiIGhlaWdodD0iMTcuNTAwMzc1NzQ3NjgwNjY0IiB2aWV3Qm94PSIxLjE5MjA5Mjg5NTUwNzgxMjVlLTcgLTMuNTc2Mjc4Njg2NTIzNDM3NWUtNyAxOC4wMzUzMzE3MjYwNzQyMiAxNy41MDAzNzU3NDc2ODA2NjQiIHZlcnNpb249IjEuMSIgaWQ9InN2ZzEzODI2IiBpbmtzY2FwZTp2ZXJzaW9uPSIwLjkxIHIxMzcyNSIgc29kaXBvZGk6ZG9jbmFtZT0icG9kLnN2ZyI+JiN4YTsgIDxkZWZzIGlkPSJkZWZzMTM4MjAiLz4mI3hhOyAgPHNvZGlwb2RpOm5hbWVkdmlldyBpZD0iYmFzZSIgcGFnZWNvbG9yPSIjZmZmZmZmIiBib3JkZXJjb2xvcj0iIzY2NjY2NiIgYm9yZGVyb3BhY2l0eT0iMS4wIiBpbmtzY2FwZTpwYWdlb3BhY2l0eT0iMC4wIiBpbmtzY2FwZTpwYWdlc2hhZG93PSIyIiBpbmtzY2FwZTp6b29tPSI4IiBpbmtzY2FwZTpjeD0iMTYuODQ3NDk2IiBpbmtzY2FwZTpjeT0iMzMuNzUyMjM5IiBpbmtzY2FwZTpkb2N1bWVudC11bml0cz0ibW0iIGlua3NjYXBlOmN1cnJlbnQtbGF5ZXI9ImxheWVyMSIgc2hvd2dyaWQ9ImZhbHNlIiBpbmtzY2FwZTp3aW5kb3ctd2lkdGg9IjE0NDAiIGlua3NjYXBlOndpbmRvdy1oZWlnaHQ9Ijc3NSIgaW5rc2NhcGU6d2luZG93LXg9IjAiIGlua3NjYXBlOndpbmRvdy15PSIxIiBpbmtzY2FwZTp3aW5kb3ctbWF4aW1pemVkPSIxIiBmaXQtbWFyZ2luLXRvcD0iMCIgZml0LW1hcmdpbi1sZWZ0PSIwIiBmaXQtbWFyZ2luLXJpZ2h0PSIwIiBmaXQtbWFyZ2luLWJvdHRvbT0iMCIvPiYjeGE7ICA8bWV0YWRhdGEgaWQ9Im1ldGFkYXRhMTM4MjMiPiYjeGE7ICAgIDxyZGY6cmRmPiYjeGE7ICAgICAgPGNjOndvcmsgcmRmOmFib3V0PSIiPiYjeGE7ICAgICAgICA8ZGM6Zm9ybWF0PmltYWdlL3N2Zyt4bWw8L2RjOmZvcm1hdD4mI3hhOyAgICAgICAgPGRjOnR5cGUgcmRmOnJlc291cmNlPSJodHRwOi8vcHVybC5vcmcvZGMvZGNtaXR5cGUvU3RpbGxJbWFnZSIvPiYjeGE7ICAgICAgICA8ZGM6dGl0bGUvPiYjeGE7ICAgICAgPC9jYzp3b3JrPiYjeGE7ICAgIDwvcmRmOnJkZj4mI3hhOyAgPC9tZXRhZGF0YT4mI3hhOyAgPGcgaW5rc2NhcGU6bGFiZWw9IkNhbHF1ZSAxIiBpbmtzY2FwZTpncm91cG1vZGU9ImxheWVyIiBpZD0ibGF5ZXIxIiB0cmFuc2Zvcm09InRyYW5zbGF0ZSgtMC45OTI2MjYzOCwtMS4xNzQxODEpIj4mI3hhOyAgICA8ZyBpZD0iZzcwIiB0cmFuc2Zvcm09Im1hdHJpeCgxLjAxNDg4ODcsMCwwLDEuMDE0ODg4NywxNi45MDIxNDYsLTIuNjk4NzI2KSI+JiN4YTsgICAgICA8cGF0aCBpbmtzY2FwZTpleHBvcnQteWRwaT0iMjUwLjU1IiBpbmtzY2FwZTpleHBvcnQteGRwaT0iMjUwLjU1IiBpbmtzY2FwZTpleHBvcnQtZmlsZW5hbWU9Im5ldy5wbmciIGlua3NjYXBlOmNvbm5lY3Rvci1jdXJ2YXR1cmU9IjAiIGlkPSJwYXRoMzA1NSIgZD0ibSAtNi44NDkyMDE1LDQuMjcyNDY2OCBhIDEuMTE5MTI1NSwxLjEwOTk2NzEgMCAwIDAgLTAuNDI4ODgxOCwwLjEwODUzMDMgbCAtNS44NTI0MDM3LDIuNzk2MzM5NCBhIDEuMTE5MTI1NSwxLjEwOTk2NzEgMCAwIDAgLTAuNjA1NTI0LDAuNzUyOTc1OSBsIC0xLjQ0MzgyOCw2LjI4MTI4NDYgYSAxLjExOTEyNTUsMS4xMDk5NjcxIDAgMCAwIDAuMTUxOTQzLDAuODUxMDI4IDEuMTE5MTI1NSwxLjEwOTk2NzEgMCAwIDAgMC4wNjM2MiwwLjA4ODMyIGwgNC4wNTA4LDUuMDM2NTU1IGEgMS4xMTkxMjU1LDEuMTA5OTY3MSAwIDAgMCAwLjg3NDk3OSwwLjQxNzY1NCBsIDYuNDk2MTAxMSwtMC4wMDE1IGEgMS4xMTkxMjU1LDEuMTA5OTY3MSAwIDAgMCAwLjg3NDk3ODgsLTAuNDE2OTA2IEwgMS4zODE4ODcyLDE1LjE0OTQ1MyBBIDEuMTE5MTI1NSwxLjEwOTk2NzEgMCAwIDAgMS41OTgxOTg2LDE0LjIxMDEwNCBMIDAuMTUyMTI2NTcsNy45Mjg4MTU0IEEgMS4xMTkxMjU1LDEuMTA5OTY3MSAwIDAgMCAtMC40NTMzOTc5NCw3LjE3NTgzOTYgTCAtNi4zMDY1NDk2LDQuMzgwOTk3MSBBIDEuMTE5MTI1NSwxLjEwOTk2NzEgMCAwIDAgLTYuODQ5MjAxNSw0LjI3MjQ2NjggWiIgc3R5bGU9ImZpbGw6IzMyNmNlNTtmaWxsLW9wYWNpdHk6MTtzdHJva2U6bm9uZTtzdHJva2Utd2lkdGg6MDtzdHJva2UtbWl0ZXJsaW1pdDo0O3N0cm9rZS1kYXNoYXJyYXk6bm9uZTtzdHJva2Utb3BhY2l0eToxIi8+JiN4YTsgICAgICA8cGF0aCBpZD0icGF0aDMwNTQtMi05IiBkPSJNIC02Ljg1MjM0MzUsMy44MTc2MzcyIEEgMS4xODE0MzA0LDEuMTcxNzYyIDAgMCAwIC03LjMwNDQyODQsMy45MzI5MDQgbCAtNi4xNzg3NDI2LDIuOTUxMjc1OCBhIDEuMTgxNDMwNCwxLjE3MTc2MiAwIDAgMCAtMC42MzkyMDYsMC43OTQ4OTEgbCAtMS41MjM5MTUsNi42MzA4MjgyIGEgMS4xODE0MzA0LDEuMTcxNzYyIDAgMCAwIDAuMTYwMTc1LDAuODk4OTMgMS4xODE0MzA0LDEuMTcxNzYyIDAgMCAwIDAuMDY3MzYsMC4wOTI4MSBsIDQuMjc2MDk0LDUuMzE3MjM2IGEgMS4xODE0MzA0LDEuMTcxNzYyIDAgMCAwIDAuOTIzNjMsMC40NDA4NTggbCA2Ljg1NzYxODgsLTAuMDAxNSBhIDEuMTgxNDMwNCwxLjE3MTc2MiAwIDAgMCAwLjkyMzYzMDgsLTAuNDQwMTEgbCA0LjI3NDU5NjYsLTUuMzE3OTg1IGEgMS4xODE0MzA0LDEuMTcxNzYyIDAgMCAwIDAuMjI4Mjg4LC0wLjk5MDk5MyBMIDAuNTM4OTQ0MzksNy42Nzc1NzM4IEEgMS4xODE0MzA0LDEuMTcxNzYyIDAgMCAwIC0wLjEwMDI2MTAxLDYuODgzNDMxMyBMIC02LjI3OTAwMzcsMy45MzIxNTU1IEEgMS4xODE0MzA0LDEuMTcxNzYyIDAgMCAwIC02Ljg1MjM0MzUsMy44MTc2MzcyIFogbSAwLjAwMjk5LDAuNDU1MDc4OSBhIDEuMTE5MTI1NSwxLjEwOTk2NzEgMCAwIDEgMC41NDI2NTE3LDAuMTA4NTMwMyBsIDUuODUzMTUxNjksMi43OTQ4NDI1IEEgMS4xMTkxMjU1LDEuMTA5OTY3MSAwIDAgMSAwLjE1MTk3ODExLDcuOTI5MDY0OCBMIDEuNTk4MDUxLDE0LjIxMDM1IGEgMS4xMTkxMjU1LDEuMTA5OTY3MSAwIDAgMSAtMC4yMTYzMTIzLDAuOTM5MzQ4IGwgLTQuMDQ5MzAzMiw1LjAzNzMwNCBhIDEuMTE5MTI1NSwxLjEwOTk2NzEgMCAwIDEgLTAuODc0OTc4OSwwLjQxNjkwNiBsIC02LjQ5NjEwMDYsMC4wMDE1IGEgMS4xMTkxMjU1LDEuMTA5OTY3MSAwIDAgMSAtMC44NzQ5NzksLTAuNDE3NjUyIGwgLTQuMDUwOCwtNS4wMzY1NTQgYSAxLjExOTEyNTUsMS4xMDk5NjcxIDAgMCAxIC0wLjA2MzYyLC0wLjA4ODMyIDEuMTE5MTI1NSwxLjEwOTk2NzEgMCAwIDEgLTAuMTUxOTQyLC0wLjg1MTAyOCBsIDEuNDQzODI3LC02LjI4MTI4NTMgYSAxLjExOTEyNTUsMS4xMDk5NjcxIDAgMCAxIDAuNjA1NTI0LC0wLjc1Mjk3NTggbCA1Ljg1MjQwMzYsLTIuNzk2MzM5NSBhIDEuMTE5MTI1NSwxLjEwOTk2NzEgMCAwIDEgMC40Mjg4ODE5LC0wLjEwODUzMDMgeiIgc3R5bGU9ImNvbG9yOiMwMDAwMDA7Zm9udC1zdHlsZTpub3JtYWw7Zm9udC12YXJpYW50Om5vcm1hbDtmb250LXdlaWdodDpub3JtYWw7Zm9udC1zdHJldGNoOm5vcm1hbDtmb250LXNpemU6bWVkaXVtO2xpbmUtaGVpZ2h0Om5vcm1hbDtmb250LWZhbWlseTpTYW5zOy1pbmtzY2FwZS1mb250LXNwZWNpZmljYXRpb246U2Fuczt0ZXh0LWluZGVudDowO3RleHQtYWxpZ246c3RhcnQ7dGV4dC1kZWNvcmF0aW9uOm5vbmU7dGV4dC1kZWNvcmF0aW9uLWxpbmU6bm9uZTtsZXR0ZXItc3BhY2luZzpub3JtYWw7d29yZC1zcGFjaW5nOm5vcm1hbDt0ZXh0LXRyYW5zZm9ybTpub25lO3dyaXRpbmctbW9kZTpsci10YjtkaXJlY3Rpb246bHRyO2Jhc2VsaW5lLXNoaWZ0OmJhc2VsaW5lO3RleHQtYW5jaG9yOnN0YXJ0O2Rpc3BsYXk6aW5saW5lO292ZXJmbG93OnZpc2libGU7dmlzaWJpbGl0eTp2aXNpYmxlO2ZpbGw6I2ZmZmZmZjtmaWxsLW9wYWNpdHk6MTtmaWxsLXJ1bGU6bm9uemVybztzdHJva2U6bm9uZTtzdHJva2Utd2lkdGg6MDtzdHJva2UtbWl0ZXJsaW1pdDo0O3N0cm9rZS1kYXNoYXJyYXk6bm9uZTttYXJrZXI6bm9uZTtlbmFibGUtYmFja2dyb3VuZDphY2N1bXVsYXRlIiBpbmtzY2FwZTpjb25uZWN0b3ItY3VydmF0dXJlPSIwIi8+JiN4YTsgICAgPC9nPiYjeGE7ICAgIDx0ZXh0IGlkPSJ0ZXh0MjA2NiIgeT0iMTYuODExNzc1IiB4PSIxMC4wMTcxODMiIHN0eWxlPSJmb250LXN0eWxlOm5vcm1hbDtmb250LXdlaWdodDpub3JtYWw7Zm9udC1zaXplOjEwLjU4MzMzMzAycHg7bGluZS1oZWlnaHQ6Ni42MTQ1ODM0OXB4O2ZvbnQtZmFtaWx5OlNhbnM7bGV0dGVyLXNwYWNpbmc6MHB4O3dvcmQtc3BhY2luZzowcHg7ZmlsbDojZmZmZmZmO2ZpbGwtb3BhY2l0eToxO3N0cm9rZTpub25lO3N0cm9rZS13aWR0aDowLjI2NDU4MzMycHg7c3Ryb2tlLWxpbmVjYXA6YnV0dDtzdHJva2UtbGluZWpvaW46bWl0ZXI7c3Ryb2tlLW9wYWNpdHk6MSIgeG1sOnNwYWNlPSJwcmVzZXJ2ZSI+PHRzcGFuIHN0eWxlPSJmb250LXN0eWxlOm5vcm1hbDtmb250LXZhcmlhbnQ6bm9ybWFsO2ZvbnQtd2VpZ2h0Om5vcm1hbDtmb250LXN0cmV0Y2g6bm9ybWFsO2ZvbnQtc2l6ZToyLjgyMjIyMjIzcHg7Zm9udC1mYW1pbHk6QXJpYWw7LWlua3NjYXBlLWZvbnQtc3BlY2lmaWNhdGlvbjonQXJpYWwsIE5vcm1hbCc7dGV4dC1hbGlnbjpjZW50ZXI7d3JpdGluZy1tb2RlOmxyLXRiO3RleHQtYW5jaG9yOm1pZGRsZTtmaWxsOiNmZmZmZmY7ZmlsbC1vcGFjaXR5OjE7c3Ryb2tlLXdpZHRoOjAuMjY0NTgzMzJweCIgeT0iMTYuODExNzc1IiB4PSIxMC4wMTcxODMiIGlkPSJ0c3BhbjIwNjQiIHNvZGlwb2RpOnJvbGU9ImxpbmUiPnBvZDwvdHNwYW4+PC90ZXh0PiYjeGE7ICAgIDxnIGlkPSJnMzM0MSIgdHJhbnNmb3JtPSJ0cmFuc2xhdGUoMC4xMjc2NjY2MSwwKSI+JiN4YTsgICAgICA8cGF0aCBpbmtzY2FwZTpleHBvcnQteWRwaT0iMzc2LjU3OTk5IiBpbmtzY2FwZTpleHBvcnQteGRwaT0iMzc2LjU3OTk5IiBzdHlsZT0iZmlsbDojZmZmZmZmO2ZpbGwtcnVsZTpldmVub2RkO3N0cm9rZTpub25lO3N0cm9rZS13aWR0aDowLjI2NDU4MzMyO3N0cm9rZS1saW5lY2FwOnNxdWFyZTtzdHJva2UtbWl0ZXJsaW1pdDoxMCIgaW5rc2NhcGU6Y29ubmVjdG9yLWN1cnZhdHVyZT0iMCIgZD0iTSA2LjI2MTc5MTQsNy4wMzYwODYgOS44ODI2MzE3LDUuOTg2MDg3IDEzLjUwMzQ2Miw3LjAzNjA4NiA5Ljg4MjYzMTcsOC4wODYwODcgWiIgaWQ9InBhdGg5MTAiLz4mI3hhOyAgICAgIDxwYXRoIGlua3NjYXBlOmV4cG9ydC15ZHBpPSIzNzYuNTc5OTkiIGlua3NjYXBlOmV4cG9ydC14ZHBpPSIzNzYuNTc5OTkiIHN0eWxlPSJmaWxsOiNmZmZmZmY7ZmlsbC1ydWxlOmV2ZW5vZGQ7c3Ryb2tlOm5vbmU7c3Ryb2tlLXdpZHRoOjAuMjY0NTgzMzI7c3Ryb2tlLWxpbmVjYXA6c3F1YXJlO3N0cm9rZS1taXRlcmxpbWl0OjEwIiBpbmtzY2FwZTpjb25uZWN0b3ItY3VydmF0dXJlPSIwIiBkPSJtIDYuMjYxNzkxNCw3LjQzODE3IDAsMy44NTI3NzggMy4zNzM2MTAzLDEuODY4NzQ5IDAuMDE2NywtNC43MTMxOTMgeiIgaWQ9InBhdGg5MTIiLz4mI3hhOyAgICAgIDxwYXRoIGlua3NjYXBlOmV4cG9ydC15ZHBpPSIzNzYuNTc5OTkiIGlua3NjYXBlOmV4cG9ydC14ZHBpPSIzNzYuNTc5OTkiIHN0eWxlPSJmaWxsOiNmZmZmZmY7ZmlsbC1ydWxlOmV2ZW5vZGQ7c3Ryb2tlOm5vbmU7c3Ryb2tlLXdpZHRoOjAuMjY0NTgzMzI7c3Ryb2tlLWxpbmVjYXA6c3F1YXJlO3N0cm9rZS1taXRlcmxpbWl0OjEwIiBpbmtzY2FwZTpjb25uZWN0b3ItY3VydmF0dXJlPSIwIiBkPSJtIDEzLjUwMzQ2Miw3LjQzODE3IDAsMy44NTI3NzggLTMuMzczNjEsMS44Njg3NDkgLTAuMDE2NywtNC43MTMxOTMgeiIgaWQ9InBhdGg5MTQiLz4mI3hhOyAgICA8L2c+JiN4YTsgIDwvZz4mI3hhOzwvc3ZnPg==" vertex="1" parent="1">
          <mxGeometry x="440" y="321.5" width="67" height="67" as="geometry" />
        </mxCell>
        <mxCell id="pGYAa5rE9HQfa07IEvMs-36" value="" style="shape=image;verticalLabelPosition=bottom;verticalAlign=top;imageAspect=0;aspect=fixed;image=data:image/svg+xml,PHN2ZyB4bWxuczpkYz0iaHR0cDovL3B1cmwub3JnL2RjL2VsZW1lbnRzLzEuMS8iIHhtbG5zOmNjPSJodHRwOi8vY3JlYXRpdmVjb21tb25zLm9yZy9ucyMiIHhtbG5zOnJkZj0iaHR0cDovL3d3dy53My5vcmcvMTk5OS8wMi8yMi1yZGYtc3ludGF4LW5zIyIgeG1sbnM6c3ZnPSJodHRwOi8vd3d3LnczLm9yZy8yMDAwL3N2ZyIgeG1sbnM9Imh0dHA6Ly93d3cudzMub3JnLzIwMDAvc3ZnIiB4bWxuczpzb2RpcG9kaT0iaHR0cDovL3NvZGlwb2RpLnNvdXJjZWZvcmdlLm5ldC9EVEQvc29kaXBvZGktMC5kdGQiIHhtbG5zOmlua3NjYXBlPSJodHRwOi8vd3d3Lmlua3NjYXBlLm9yZy9uYW1lc3BhY2VzL2lua3NjYXBlIiB3aWR0aD0iMTguMDM1MzMxNzI2MDc0MjIiIGhlaWdodD0iMTcuNTAwMzc1NzQ3NjgwNjY0IiB2aWV3Qm94PSIxLjE5MjA5Mjg5NTUwNzgxMjVlLTcgLTMuNTc2Mjc4Njg2NTIzNDM3NWUtNyAxOC4wMzUzMzE3MjYwNzQyMiAxNy41MDAzNzU3NDc2ODA2NjQiIHZlcnNpb249IjEuMSIgaWQ9InN2ZzEzODI2IiBpbmtzY2FwZTp2ZXJzaW9uPSIwLjkxIHIxMzcyNSIgc29kaXBvZGk6ZG9jbmFtZT0icG9kLnN2ZyI+JiN4YTsgIDxkZWZzIGlkPSJkZWZzMTM4MjAiLz4mI3hhOyAgPHNvZGlwb2RpOm5hbWVkdmlldyBpZD0iYmFzZSIgcGFnZWNvbG9yPSIjZmZmZmZmIiBib3JkZXJjb2xvcj0iIzY2NjY2NiIgYm9yZGVyb3BhY2l0eT0iMS4wIiBpbmtzY2FwZTpwYWdlb3BhY2l0eT0iMC4wIiBpbmtzY2FwZTpwYWdlc2hhZG93PSIyIiBpbmtzY2FwZTp6b29tPSI4IiBpbmtzY2FwZTpjeD0iMTYuODQ3NDk2IiBpbmtzY2FwZTpjeT0iMzMuNzUyMjM5IiBpbmtzY2FwZTpkb2N1bWVudC11bml0cz0ibW0iIGlua3NjYXBlOmN1cnJlbnQtbGF5ZXI9ImxheWVyMSIgc2hvd2dyaWQ9ImZhbHNlIiBpbmtzY2FwZTp3aW5kb3ctd2lkdGg9IjE0NDAiIGlua3NjYXBlOndpbmRvdy1oZWlnaHQ9Ijc3NSIgaW5rc2NhcGU6d2luZG93LXg9IjAiIGlua3NjYXBlOndpbmRvdy15PSIxIiBpbmtzY2FwZTp3aW5kb3ctbWF4aW1pemVkPSIxIiBmaXQtbWFyZ2luLXRvcD0iMCIgZml0LW1hcmdpbi1sZWZ0PSIwIiBmaXQtbWFyZ2luLXJpZ2h0PSIwIiBmaXQtbWFyZ2luLWJvdHRvbT0iMCIvPiYjeGE7ICA8bWV0YWRhdGEgaWQ9Im1ldGFkYXRhMTM4MjMiPiYjeGE7ICAgIDxyZGY6cmRmPiYjeGE7ICAgICAgPGNjOndvcmsgcmRmOmFib3V0PSIiPiYjeGE7ICAgICAgICA8ZGM6Zm9ybWF0PmltYWdlL3N2Zyt4bWw8L2RjOmZvcm1hdD4mI3hhOyAgICAgICAgPGRjOnR5cGUgcmRmOnJlc291cmNlPSJodHRwOi8vcHVybC5vcmcvZGMvZGNtaXR5cGUvU3RpbGxJbWFnZSIvPiYjeGE7ICAgICAgICA8ZGM6dGl0bGUvPiYjeGE7ICAgICAgPC9jYzp3b3JrPiYjeGE7ICAgIDwvcmRmOnJkZj4mI3hhOyAgPC9tZXRhZGF0YT4mI3hhOyAgPGcgaW5rc2NhcGU6bGFiZWw9IkNhbHF1ZSAxIiBpbmtzY2FwZTpncm91cG1vZGU9ImxheWVyIiBpZD0ibGF5ZXIxIiB0cmFuc2Zvcm09InRyYW5zbGF0ZSgtMC45OTI2MjYzOCwtMS4xNzQxODEpIj4mI3hhOyAgICA8ZyBpZD0iZzcwIiB0cmFuc2Zvcm09Im1hdHJpeCgxLjAxNDg4ODcsMCwwLDEuMDE0ODg4NywxNi45MDIxNDYsLTIuNjk4NzI2KSI+JiN4YTsgICAgICA8cGF0aCBpbmtzY2FwZTpleHBvcnQteWRwaT0iMjUwLjU1IiBpbmtzY2FwZTpleHBvcnQteGRwaT0iMjUwLjU1IiBpbmtzY2FwZTpleHBvcnQtZmlsZW5hbWU9Im5ldy5wbmciIGlua3NjYXBlOmNvbm5lY3Rvci1jdXJ2YXR1cmU9IjAiIGlkPSJwYXRoMzA1NSIgZD0ibSAtNi44NDkyMDE1LDQuMjcyNDY2OCBhIDEuMTE5MTI1NSwxLjEwOTk2NzEgMCAwIDAgLTAuNDI4ODgxOCwwLjEwODUzMDMgbCAtNS44NTI0MDM3LDIuNzk2MzM5NCBhIDEuMTE5MTI1NSwxLjEwOTk2NzEgMCAwIDAgLTAuNjA1NTI0LDAuNzUyOTc1OSBsIC0xLjQ0MzgyOCw2LjI4MTI4NDYgYSAxLjExOTEyNTUsMS4xMDk5NjcxIDAgMCAwIDAuMTUxOTQzLDAuODUxMDI4IDEuMTE5MTI1NSwxLjEwOTk2NzEgMCAwIDAgMC4wNjM2MiwwLjA4ODMyIGwgNC4wNTA4LDUuMDM2NTU1IGEgMS4xMTkxMjU1LDEuMTA5OTY3MSAwIDAgMCAwLjg3NDk3OSwwLjQxNzY1NCBsIDYuNDk2MTAxMSwtMC4wMDE1IGEgMS4xMTkxMjU1LDEuMTA5OTY3MSAwIDAgMCAwLjg3NDk3ODgsLTAuNDE2OTA2IEwgMS4zODE4ODcyLDE1LjE0OTQ1MyBBIDEuMTE5MTI1NSwxLjEwOTk2NzEgMCAwIDAgMS41OTgxOTg2LDE0LjIxMDEwNCBMIDAuMTUyMTI2NTcsNy45Mjg4MTU0IEEgMS4xMTkxMjU1LDEuMTA5OTY3MSAwIDAgMCAtMC40NTMzOTc5NCw3LjE3NTgzOTYgTCAtNi4zMDY1NDk2LDQuMzgwOTk3MSBBIDEuMTE5MTI1NSwxLjEwOTk2NzEgMCAwIDAgLTYuODQ5MjAxNSw0LjI3MjQ2NjggWiIgc3R5bGU9ImZpbGw6IzMyNmNlNTtmaWxsLW9wYWNpdHk6MTtzdHJva2U6bm9uZTtzdHJva2Utd2lkdGg6MDtzdHJva2UtbWl0ZXJsaW1pdDo0O3N0cm9rZS1kYXNoYXJyYXk6bm9uZTtzdHJva2Utb3BhY2l0eToxIi8+JiN4YTsgICAgICA8cGF0aCBpZD0icGF0aDMwNTQtMi05IiBkPSJNIC02Ljg1MjM0MzUsMy44MTc2MzcyIEEgMS4xODE0MzA0LDEuMTcxNzYyIDAgMCAwIC03LjMwNDQyODQsMy45MzI5MDQgbCAtNi4xNzg3NDI2LDIuOTUxMjc1OCBhIDEuMTgxNDMwNCwxLjE3MTc2MiAwIDAgMCAtMC42MzkyMDYsMC43OTQ4OTEgbCAtMS41MjM5MTUsNi42MzA4MjgyIGEgMS4xODE0MzA0LDEuMTcxNzYyIDAgMCAwIDAuMTYwMTc1LDAuODk4OTMgMS4xODE0MzA0LDEuMTcxNzYyIDAgMCAwIDAuMDY3MzYsMC4wOTI4MSBsIDQuMjc2MDk0LDUuMzE3MjM2IGEgMS4xODE0MzA0LDEuMTcxNzYyIDAgMCAwIDAuOTIzNjMsMC40NDA4NTggbCA2Ljg1NzYxODgsLTAuMDAxNSBhIDEuMTgxNDMwNCwxLjE3MTc2MiAwIDAgMCAwLjkyMzYzMDgsLTAuNDQwMTEgbCA0LjI3NDU5NjYsLTUuMzE3OTg1IGEgMS4xODE0MzA0LDEuMTcxNzYyIDAgMCAwIDAuMjI4Mjg4LC0wLjk5MDk5MyBMIDAuNTM4OTQ0MzksNy42Nzc1NzM4IEEgMS4xODE0MzA0LDEuMTcxNzYyIDAgMCAwIC0wLjEwMDI2MTAxLDYuODgzNDMxMyBMIC02LjI3OTAwMzcsMy45MzIxNTU1IEEgMS4xODE0MzA0LDEuMTcxNzYyIDAgMCAwIC02Ljg1MjM0MzUsMy44MTc2MzcyIFogbSAwLjAwMjk5LDAuNDU1MDc4OSBhIDEuMTE5MTI1NSwxLjEwOTk2NzEgMCAwIDEgMC41NDI2NTE3LDAuMTA4NTMwMyBsIDUuODUzMTUxNjksMi43OTQ4NDI1IEEgMS4xMTkxMjU1LDEuMTA5OTY3MSAwIDAgMSAwLjE1MTk3ODExLDcuOTI5MDY0OCBMIDEuNTk4MDUxLDE0LjIxMDM1IGEgMS4xMTkxMjU1LDEuMTA5OTY3MSAwIDAgMSAtMC4yMTYzMTIzLDAuOTM5MzQ4IGwgLTQuMDQ5MzAzMiw1LjAzNzMwNCBhIDEuMTE5MTI1NSwxLjEwOTk2NzEgMCAwIDEgLTAuODc0OTc4OSwwLjQxNjkwNiBsIC02LjQ5NjEwMDYsMC4wMDE1IGEgMS4xMTkxMjU1LDEuMTA5OTY3MSAwIDAgMSAtMC44NzQ5NzksLTAuNDE3NjUyIGwgLTQuMDUwOCwtNS4wMzY1NTQgYSAxLjExOTEyNTUsMS4xMDk5NjcxIDAgMCAxIC0wLjA2MzYyLC0wLjA4ODMyIDEuMTE5MTI1NSwxLjEwOTk2NzEgMCAwIDEgLTAuMTUxOTQyLC0wLjg1MTAyOCBsIDEuNDQzODI3LC02LjI4MTI4NTMgYSAxLjExOTEyNTUsMS4xMDk5NjcxIDAgMCAxIDAuNjA1NTI0LC0wLjc1Mjk3NTggbCA1Ljg1MjQwMzYsLTIuNzk2MzM5NSBhIDEuMTE5MTI1NSwxLjEwOTk2NzEgMCAwIDEgMC40Mjg4ODE5LC0wLjEwODUzMDMgeiIgc3R5bGU9ImNvbG9yOiMwMDAwMDA7Zm9udC1zdHlsZTpub3JtYWw7Zm9udC12YXJpYW50Om5vcm1hbDtmb250LXdlaWdodDpub3JtYWw7Zm9udC1zdHJldGNoOm5vcm1hbDtmb250LXNpemU6bWVkaXVtO2xpbmUtaGVpZ2h0Om5vcm1hbDtmb250LWZhbWlseTpTYW5zOy1pbmtzY2FwZS1mb250LXNwZWNpZmljYXRpb246U2Fuczt0ZXh0LWluZGVudDowO3RleHQtYWxpZ246c3RhcnQ7dGV4dC1kZWNvcmF0aW9uOm5vbmU7dGV4dC1kZWNvcmF0aW9uLWxpbmU6bm9uZTtsZXR0ZXItc3BhY2luZzpub3JtYWw7d29yZC1zcGFjaW5nOm5vcm1hbDt0ZXh0LXRyYW5zZm9ybTpub25lO3dyaXRpbmctbW9kZTpsci10YjtkaXJlY3Rpb246bHRyO2Jhc2VsaW5lLXNoaWZ0OmJhc2VsaW5lO3RleHQtYW5jaG9yOnN0YXJ0O2Rpc3BsYXk6aW5saW5lO292ZXJmbG93OnZpc2libGU7dmlzaWJpbGl0eTp2aXNpYmxlO2ZpbGw6I2ZmZmZmZjtmaWxsLW9wYWNpdHk6MTtmaWxsLXJ1bGU6bm9uemVybztzdHJva2U6bm9uZTtzdHJva2Utd2lkdGg6MDtzdHJva2UtbWl0ZXJsaW1pdDo0O3N0cm9rZS1kYXNoYXJyYXk6bm9uZTttYXJrZXI6bm9uZTtlbmFibGUtYmFja2dyb3VuZDphY2N1bXVsYXRlIiBpbmtzY2FwZTpjb25uZWN0b3ItY3VydmF0dXJlPSIwIi8+JiN4YTsgICAgPC9nPiYjeGE7ICAgIDx0ZXh0IGlkPSJ0ZXh0MjA2NiIgeT0iMTYuODExNzc1IiB4PSIxMC4wMTcxODMiIHN0eWxlPSJmb250LXN0eWxlOm5vcm1hbDtmb250LXdlaWdodDpub3JtYWw7Zm9udC1zaXplOjEwLjU4MzMzMzAycHg7bGluZS1oZWlnaHQ6Ni42MTQ1ODM0OXB4O2ZvbnQtZmFtaWx5OlNhbnM7bGV0dGVyLXNwYWNpbmc6MHB4O3dvcmQtc3BhY2luZzowcHg7ZmlsbDojZmZmZmZmO2ZpbGwtb3BhY2l0eToxO3N0cm9rZTpub25lO3N0cm9rZS13aWR0aDowLjI2NDU4MzMycHg7c3Ryb2tlLWxpbmVjYXA6YnV0dDtzdHJva2UtbGluZWpvaW46bWl0ZXI7c3Ryb2tlLW9wYWNpdHk6MSIgeG1sOnNwYWNlPSJwcmVzZXJ2ZSI+PHRzcGFuIHN0eWxlPSJmb250LXN0eWxlOm5vcm1hbDtmb250LXZhcmlhbnQ6bm9ybWFsO2ZvbnQtd2VpZ2h0Om5vcm1hbDtmb250LXN0cmV0Y2g6bm9ybWFsO2ZvbnQtc2l6ZToyLjgyMjIyMjIzcHg7Zm9udC1mYW1pbHk6QXJpYWw7LWlua3NjYXBlLWZvbnQtc3BlY2lmaWNhdGlvbjonQXJpYWwsIE5vcm1hbCc7dGV4dC1hbGlnbjpjZW50ZXI7d3JpdGluZy1tb2RlOmxyLXRiO3RleHQtYW5jaG9yOm1pZGRsZTtmaWxsOiNmZmZmZmY7ZmlsbC1vcGFjaXR5OjE7c3Ryb2tlLXdpZHRoOjAuMjY0NTgzMzJweCIgeT0iMTYuODExNzc1IiB4PSIxMC4wMTcxODMiIGlkPSJ0c3BhbjIwNjQiIHNvZGlwb2RpOnJvbGU9ImxpbmUiPnBvZDwvdHNwYW4+PC90ZXh0PiYjeGE7ICAgIDxnIGlkPSJnMzM0MSIgdHJhbnNmb3JtPSJ0cmFuc2xhdGUoMC4xMjc2NjY2MSwwKSI+JiN4YTsgICAgICA8cGF0aCBpbmtzY2FwZTpleHBvcnQteWRwaT0iMzc2LjU3OTk5IiBpbmtzY2FwZTpleHBvcnQteGRwaT0iMzc2LjU3OTk5IiBzdHlsZT0iZmlsbDojZmZmZmZmO2ZpbGwtcnVsZTpldmVub2RkO3N0cm9rZTpub25lO3N0cm9rZS13aWR0aDowLjI2NDU4MzMyO3N0cm9rZS1saW5lY2FwOnNxdWFyZTtzdHJva2UtbWl0ZXJsaW1pdDoxMCIgaW5rc2NhcGU6Y29ubmVjdG9yLWN1cnZhdHVyZT0iMCIgZD0iTSA2LjI2MTc5MTQsNy4wMzYwODYgOS44ODI2MzE3LDUuOTg2MDg3IDEzLjUwMzQ2Miw3LjAzNjA4NiA5Ljg4MjYzMTcsOC4wODYwODcgWiIgaWQ9InBhdGg5MTAiLz4mI3hhOyAgICAgIDxwYXRoIGlua3NjYXBlOmV4cG9ydC15ZHBpPSIzNzYuNTc5OTkiIGlua3NjYXBlOmV4cG9ydC14ZHBpPSIzNzYuNTc5OTkiIHN0eWxlPSJmaWxsOiNmZmZmZmY7ZmlsbC1ydWxlOmV2ZW5vZGQ7c3Ryb2tlOm5vbmU7c3Ryb2tlLXdpZHRoOjAuMjY0NTgzMzI7c3Ryb2tlLWxpbmVjYXA6c3F1YXJlO3N0cm9rZS1taXRlcmxpbWl0OjEwIiBpbmtzY2FwZTpjb25uZWN0b3ItY3VydmF0dXJlPSIwIiBkPSJtIDYuMjYxNzkxNCw3LjQzODE3IDAsMy44NTI3NzggMy4zNzM2MTAzLDEuODY4NzQ5IDAuMDE2NywtNC43MTMxOTMgeiIgaWQ9InBhdGg5MTIiLz4mI3hhOyAgICAgIDxwYXRoIGlua3NjYXBlOmV4cG9ydC15ZHBpPSIzNzYuNTc5OTkiIGlua3NjYXBlOmV4cG9ydC14ZHBpPSIzNzYuNTc5OTkiIHN0eWxlPSJmaWxsOiNmZmZmZmY7ZmlsbC1ydWxlOmV2ZW5vZGQ7c3Ryb2tlOm5vbmU7c3Ryb2tlLXdpZHRoOjAuMjY0NTgzMzI7c3Ryb2tlLWxpbmVjYXA6c3F1YXJlO3N0cm9rZS1taXRlcmxpbWl0OjEwIiBpbmtzY2FwZTpjb25uZWN0b3ItY3VydmF0dXJlPSIwIiBkPSJtIDEzLjUwMzQ2Miw3LjQzODE3IDAsMy44NTI3NzggLTMuMzczNjEsMS44Njg3NDkgLTAuMDE2NywtNC43MTMxOTMgeiIgaWQ9InBhdGg5MTQiLz4mI3hhOyAgICA8L2c+JiN4YTsgIDwvZz4mI3hhOzwvc3ZnPg==" vertex="1" parent="1">
          <mxGeometry x="440.5" y="456" width="67" height="67" as="geometry" />
        </mxCell>
        <mxCell id="pGYAa5rE9HQfa07IEvMs-41" value="" style="points=[[0,0,0],[0.25,0,0],[0.5,0,0],[0.75,0,0],[1,0,0],[0,1,0],[0.25,1,0],[0.5,1,0],[0.75,1,0],[1,1,0],[0,0.25,0],[0,0.5,0],[0,0.75,0],[1,0.25,0],[1,0.5,0],[1,0.75,0]];outlineConnect=0;fontColor=#232F3E;gradientColor=#4D72F3;gradientDirection=north;fillColor=#3334B9;strokeColor=#ffffff;dashed=0;verticalLabelPosition=bottom;verticalAlign=top;align=center;html=1;fontSize=12;fontStyle=1;aspect=fixed;shape=mxgraph.aws4.resourceIcon;resIcon=mxgraph.aws4.documentdb_with_mongodb_compatibility;" vertex="1" parent="1">
          <mxGeometry x="85" y="670" width="70" height="70" as="geometry" />
        </mxCell>
        <mxCell id="pGYAa5rE9HQfa07IEvMs-45" value="" style="rounded=0;whiteSpace=wrap;html=1;dashed=1;" vertex="1" parent="1">
          <mxGeometry x="280" y="630" width="250" height="150" as="geometry" />
        </mxCell>
        <mxCell id="pGYAa5rE9HQfa07IEvMs-46" value="" style="rounded=0;whiteSpace=wrap;html=1;dashed=1;" vertex="1" parent="1">
          <mxGeometry x="570" y="630" width="250" height="150" as="geometry" />
        </mxCell>
        <mxCell id="pGYAa5rE9HQfa07IEvMs-47" value="" style="aspect=fixed;html=1;points=[];align=center;image;fontSize=12;image=img/lib/azure2/databases/Cache_Redis.svg;dashed=1;strokeColor=#000000;strokeWidth=2;fillColor=none;" vertex="1" parent="1">
          <mxGeometry x="313" y="670" width="86.15" height="70" as="geometry" />
        </mxCell>
        <mxCell id="pGYAa5rE9HQfa07IEvMs-48" value="" style="aspect=fixed;html=1;points=[];align=center;image;fontSize=12;image=img/lib/azure2/general/Cache.svg;dashed=1;strokeColor=#000000;strokeWidth=2;fillColor=none;" vertex="1" parent="1">
          <mxGeometry x="420" y="660" width="80" height="80" as="geometry" />
        </mxCell>
        <mxCell id="pGYAa5rE9HQfa07IEvMs-49" value="" style="shape=image;verticalLabelPosition=bottom;verticalAlign=top;imageAspect=0;aspect=fixed;image=data:image/png,iVBORw0KGgoAAAANSUhEUgAAAMgAAADICAYAAACtWK6eAAAABGdBTUEAALGPC/xhBQAAACBjSFJNAAB6JgAAgIQAAPoAAACA6AAAdTAAAOpgAAA6mAAAF3CculE8AAAABmJLR0QAAAAAAAD5Q7t/AAAACXBIWXMAAC4jAAAuIwF4pT92AAA7Z0lEQVR42u2dd3gc1dX/P3dmtmtVbNmyZMtd7jbGDmDAtISSQoBAEtJ7QkIqb970hPdNhby/FEgC6YT0UENLKMYYYxsb995wkeUiy+pl+86c3x8jGeN4Z1dldyWxn+fRA/Kce+fOaL97yzn3XEWBIYWIKGAaMBeYCUwFqoHRQCkQBHTAAlR3sS6gFWgGDgMHgT3AFmCXUiqe7+carKj+V1Egm4jIGOBa4M3AFGAMMHIAb9EJHAcOAMuAx5RSu/L93AUKpERELheRB0WkTkQsyT0NIvKUiLxLRIx8v48CBRCRC0XkCRHpyIMgnIiJyAsick2+31E+KAyx8oiI+IFPAu8Dzs53ezLgMPAX4E6lVEO+G1NgmCIio0TkpyLSmu/uoY9EReRvIjIn3++ywDBCREaKyN3dH7Dhwj9FZEK+322BIY6IfCVnwjDjImZMRMxcCuU3IlKa7/c80BTmIFlGRC4E/gRMHpAKk10Q2gGJBjA7wGyG2DFINoDZglidICFsN4gXtCBKD4I+ClxjwT0a9BLQy8A3FXwTB/Jxm4GblFIP5fg1Z42CQLKEiLiAu4GP9auieBN0bYBYHYQ3IuHHkGQziAYCluhoyjzlLymg5JSGKHouWpYOgKaZtp1uojyXoPyXga8GvDMgOHcgHv9p4IPDYSJfEEgWEJHFwAPYTr3eEzsKHWug60WsznsgEUNEoZT9oUb1iMCF7TTvLQkQyxaPpWFZBgoLpZtovguh+AYoOg+KF/bnNSSB9yml7svy684qBYEMMCLyZeCHfSrcuQ2a/4bV9hMkabwiCK17uJRVukVj6oiloTRB8y2CUZ+D0svBKOprxb9WSn0yy43PGgWBDCAi8ijQe4day9PQ8D3M8EZ7hGQkQVPYPUQ+MIEEJF1Ylo7miqGN+C5UfNiew/SePcBFSqnGPD1QnykIZAAQkXHASqB3y52NDyHHv4gVa0RpAnoSlCffj3MaCbDE7tF0E63s81D1xb4IJQZcopR6Kd9P1BsKAuknInIO8CKQecxS2wrk6GexIi+jNAuMnvnEYMYEy3xFKOXfgrG3gObvbUVvH0qrXAWB9AMRuRhYnnGBZBsc+ATJ9ifRdBMMi8EvjNPpFkrChXIl0Mb/E0a8ubeVfFQpdU++nyQTCgLpIyJyLfBIxgUa78M68kHE1FFuk6EnjFejVBJJCmLq6GXvgkk/Ay3Qmyo+r5T6Wb6fI+1z5rsB/UVEZgMXAXOwnXGlvDLcEezlxlZgP7AZWKWU2tvPe14FPJWRcbITDn6KZPujaHoCZRjYe56GPkoJYiWRhI4yFNqEh6Hsyt5U8Uml1K/z/RyOz5jvBvQWERkBfAp7E9EUYEQfqmnCXll5ELhHKdXRi/tfAKzKyLhjLdbB65B4B8otKM1AxMr3KxxwlBIkYSKWhl7xTaj+Wm+K36iUuj/fz5Dy2fLdgEwRkeuAjwJXMbDjkwjwDHCXUmpJmjZUAxuAUWlrbXoIq+79ACiXNmx6jVQoJYiZQBIu9NJ3wZQ7ezPker1Salm+n+GMz5XvBqRDRG4E/heYkYPbbQJuVUo9kaItm4D5aWs5+mPM+ltRujmshlSZYWJFDTT/bLSa+8FTnUmhCLBAKbU7360/nUH7l+tePv0dMC8Pt38R+LhSaucp7cnMCXjwayQb70Jzx1C6d1gOqdKhlGDFBOWqRqt5FPzTMym2E3idUiqS7/afipbvBpwJEfkZsJb8iAPgAmCHiHy7uz1fJhNxHPiKLQ5PFDT3a1IcACIKzaMgWYe19/XQtSmTYrOA3+S77aczqHoQsTN4PAKcl++2nMIz2Gl2Jjpa1X6b5Ikf2+IYdN7w/KCUIHELjHK0aUvtiOH03KKUuiPfbT/5DPluQA8isghYAvQtKk4Es7YJs6ENiSUhnkQsC+XSUS4D/G6M6pFoo0sGvvF1P8Bs+AHKnQQ1tP0bA81JkbimoM1YAu60Ac4CnK2U2pLvtsMgEYiIvBn4V2/LmcdaSW4/THJvA8mt9Vi72pCGeHesndh7hlzKHkj6NNR4L/rskRhzKjGmVuCaNx4V9PWv8cd/j3n48yh3vNBzpKBnTqIHLoaZT2ZSZKVS6qJ8txsGgUD6Io7E5lpiz+4k8fg+rBfCoCvUfA9qlBvl1lLcBwgnkSMxZE8CdIX+thG43zQNz+Wz0ceX977xrc9hHbi6OyTdi63IAmfGRGIa+oiPw5SfZlLg60qp2/Ld6rwKREQWAGvI0K9hHmkm/MtlxH+wDwDt8iAqaNidch+eXBpiWC+GURMNPF9dgP8Di1E+d2blY4exdl8K5jGU67U7Ie8VEsNKeDCqfgJVH09n3Q5Mz/euxLwJRERGAbvJ0BMe+s1zxL6zAeKCdn4xGBpYfVHGaegK6UhgLelEuzSA/2uX4Lkyg8WzPe/B7HwUzaNeY36OfmLFwdTRpiyB0gvTWd+rlPpwPpubT4GsBNK+IfNwM51f+Sfm35vsHqPEBeYACOP0t6AprLowsi6K92cLCHzWIabo2C8xj34J5bHo25bX1y5KaUgiAa7paLNeAD2YrsiFSqkX89XevPhBROTrZCCOxJZDtL/hD1grW9FvGGEPpwZaHGAP0UxBG2/vbZBY0tk+sq97T3hBHL1FxEK5BIm+DEcymov0bfvyAJFzgXTHM92azi6+YjedF/0DgjraeaW2MLKgjVeRFNRYHdfCNBsDE/vtjU4F+oSIgXIlsJpvh/b16cwXi8gb8tXWfPQgvwMc10Pj6/bT9ZZHYZoHbXIRJHPzYZRQEjUvgDGtMrVRtA4r/kx3IoUCfUXp9rqMdfRbmZh/I1/tzKlARORSwHHDgHnwBF2ffAwmudAmBXImDgA6E2jjitArSlPbhHbYO0wKAukXIgoMsLpWwfE/pTO/TETyktw71z3Id9MZdH333/ByHG1GMLfiAKTDRJV67BWyVET3dCdgy3YantcCOporjtX4fTtBnjNfz0cLcyYQETkLWOxkE/rFEpJ/OI521QiI5/gbWgFHkmiVxc528QY7k2GBAUEZCokehabH05leLiJZiBNyJpc9yEecLia21RH71Ta0NxSBmYfhS/cCgDEtTaxQom4QxB8MH0QMlJHEarkTku1OpqVAzn0iORGIiBQD73eyid6/DtkRR5V5sr9adaY2Rk3UPB/GdIcJeqIZia0CrdCDDCTKECSyD5rTbvO/Oddty1UPMgcoS3UxseUQiSfq0N5YnPN5x0ma42izSjEmOSREC+1BEg2vTg5doN+IuFG6Be2PpjOt6R6q54xcCeQtThdjS3Ygm2OoQP7Oi5RjCbRJZaA7vJLIDizLKETtZgMjgdX5CDQvSWf5plw2K1cCSZlZTEIxklvq0Rb5suMlzxBpttBK02QJjB0jL+O/1wReLNGhPW3uhvfmslVZF4iITMYh0UFs5W7MvzehKvO8bJoArSLNClayHq3g/8gamp7ACv/bziWWmjkiMiVnbcrBPRx37Jv7TuS15wCQpIU6y40xrSK1kRVHYhtBFQSSNXQgthdan01nOTtXTcqFQCqcLlptEVS1nt+RS2sCbXYJxmSHJd7QLiSxpeBBzyoue5jVtTGd4VW5alEuBJJy3CLxJNaBFlRVfvdxy9E4+tQRKL/DZqnwNjB1UPlbSHgtoGlJiKXNgnJpztqTg3ukTMJgHW/DOhyC4jwnOmi30EakyQIY2tr9P4UQ96yim1jRJdC108lqmohU5aI5uRBIyq9lqzWENMbBk8f0XAqk1UKVpVnBSuwv+D9ygTKQpAFd65ysDKAywxr7RV4Tx0kkDhELVB5jN0xB1RgYUxwchFYcSdYVBJITdAQNoofSGU7MRWtyIZDUs9p8xFydhnQk0eYEMaY6rCVEapHE1oJAcoSmmZA8ls4sJx71XAgknPKKxwVGfiP/pD6GNn0EWrmDDyS83Z6ga4UoxZygLCS2jTRplGbloim5EEjKEE0t4EYF9fzFXwG0mGij0iRzDG2zlx+H+KlQQwYlSHIdRByHWcNmkt6S8uajS1BVPnsekg8USKOFlm6CHttld/sFcoMSu8eO1jlZTRKRrH9j5UIgtSlvPjKINj6INMdz0IwzYIEao6FPGOloJskjBQ96LlEaiIL4USerEhx8bANF1gWilNoApOwrtcpiOJ7sRY0Dh4STqDkBjKkOHvRoHWJuLEzQc0q3R91scTLy4bCFYqDI1TLvypQNGFWENFp5mQBLYxx9VplzXt7Q7kKShnwhsXQWQ78H6SZlcmr3BfaZEebDLciJmJ1ONFdaaUyijU2zzTm8tZCkIS8ImGmH3hkmUu47uQosWgbEz/RAxvQq/A++nuT2Y1gHWzFfbEZeTqImG6hRBpS5Ub4sBDMqkOMWqjTN8QfRbd0T9EKISe5JuzCS9W49VwKJAkeBSWe66LvhXLjBTvmZ3H2U+PqDmPsbkcYI1u42zKc6UGM0GONCjXShgi67l+mPaARwgV5V6myXPNrPGxXoO2mHElkfAWVVIN37h78HXJ3R6/AYuM6agOusV1J/mgdPEF9/kOSueqzGENaBDsyn2mz7KS5UuctOaK2rXn2OJWaiLfBi1DhM0BMtWMkDhflH3kj7B8366k5WBCIir8M+kLHf2fD0SaPxnZJIwWrqILGplsTmw1j1nVjHOrFeakdqk6gaAzXKBaVulEdzfr9NcbR5ZRhTnPaA7LFDHrRCD5If0n48OzOpJast6A0iMgm4DzgnWw3WyovxXDEPzxX2GR4SjpPYfpjExlrM2hbkRAhrexvmuqg9jxnvtY9fc+t2h9z9WZfaOPo7yp2zKEa2YZkutML0Iw8o0B2TY0SB5my3YsAEIiK3A1/JdoNPR/nduM+dgvvc7m3KpkVyfwOJTYfsXmZ3C3IiirmxE+VTqFleKDKQRgt98ijnykNbu7MoFhSSF5TjIlUbDmFMA0W/BSIis4AngfHZbmxG6BrGtEqMaZX4blyEtIcwG7tI7j9OYsMhzB2NyBE7ftJxB6EVQ2Ivdc8/CgLJLQk0pYFrtJNRrVIqke2W9EsgIvIZ4Oe9LXeiM8Gyg2GmjnCxcJy/t8V7hSoJYJQEMKZW4L3qLCSSwGpsJ7H9MK7Z41IXjB3rDnHPavMKnAmx7OGwyzEe8XAumtJngYjIX4H39KbM2rowf9jVwb2tMaKhJLg1LgsYVHt15pV5WFzl46yxPrxZDIFXPhf6+PL0p9rGm+x4oMIKVu4RZZ8a7HU8yGhnptX1h14LROwTK5+kF5kl1h0O89sd7fz2eMRO8ePVmRh0UWsKy0JJ6EhAfQT2tLMo6OLCUjdVfoOaUjeLxvkYFcxDooTYPrC0wugqH4hCuReAd5yT1dZMq+sPvfrkiYgGvEAG5wsCHG6Nc9u6Fn55NAQCXr9BpVJEEWIiVGpA97nmBtAmsCZisqYzZAtJg1KfwY2lbqqLXEwsMjh/nJ/J5VmPMIDOnqPBCntAcolSgplwowdmpjPdn5P2ZGrYW3H8bUsb793aCjETo8jFOE0Rk8z9CQa2F6jeFPuskJ4jn9067yp1Mz3oYoxf53VjvCwY5x/wWEdr1w0QeRKMQheSK5QSJG6BHkCb+hQULXQy/yfw/e5o8ey1KVNDEXkWSHuY4onOBF9a0cifjobBZzDdrdHRC2E4YQCHLSBuvnKop6F4Q7GbhSUuKn0Gc8o9nFPto8Tbzw/28b9jHf0ouBIUAhWzj1KCFQXlnY429X7wZZxddCNwm1Lqway0KxMjEfkt8LF0dvsaY8xcepxkV4LqoD00yWYsgAHUCyQTlr1t1wI0qPYbvG2Eh4XlXqqKDKaVuxlf1sthWaIFa+cisOpALwyzsouJFdPRAhegTbkHPGP7Usl64L+VUssHsmVpBSIitwA/SWe3ti7MecuOg8CsgEGrlfvwDAOIAE1JgYRl9zK6ArfGe0vcLB7tpTroYnyxwexKX/ph2dG7sI5/qXsaUhhqDTwaSAwr5sYoux5qfssAzPmeBz6slKodiBY6fkRE5CLseYcjT+/t5I2rToCmmO4zBmxINRAkgCbzFMEowNCo8ej8dF4Zb5kRTF042Ym1azEk9xR6kQFGKUHMBJJwoY/6PEz8/kDf4lalVNpDY9O20+miiGwF5jrZrDoYYvGy4+DSmO7RB5U4UlEvQCgJXp2Wt42jzO+wmFf3fcwTP0C585pjb1ihlCDJJGLq6FW3Q9Vns3WrjcDlSqnWvlaQ8q8uIr8ijTh2N0RZvPIEGBpThog4ACoVTAm6IJLk95vbnI0rPoJyBcHKU2KJYYZSgiRMEA194p8zFseaHXXc+/Rm2jojvbndAuCEiFze1/aeUSAi8nrgJqeCXTGLK59vAFOY7tUJDxFx9BAXAY/OA8cihGMO3nJPJVrwQ0jSQBUSN/SLk8u4StCmLIXy6zMqt2JLLef//mk+/OgKRt72AHc8vIbOUNr96j0YwBIR+Wqf2nymfxSRZaRJMf/uJ47xjxMRphS5hpw4evAoRW1HnLvPGsGnzhmR2jC8D2tv95ktWg6clMMS054Qeqaj1TwGnuqMSt3//HZufHglGAblPg9N0TjEYuDzcueFs/ncdef1phF3KKVu6U2B/+hBROTDpBHH7za08o/jYSoDhv1NPEQxRcCl8fixNN22fypa4IOFXqTPmEhcgW8R2qyVGYvjRw+u5sb7nwe3mwqfh5AIRR4XZcVBsITPL1nP+G/+hXW7jmTakC+IyN29afmZhliO/o5DLXE+vrMNvMZJb/dQJQlUenWebI5y39Y0WwtGfxylm0hhLtILNJAEVtRAL74ObdZzoAUyKvnVe5/jS8s2QlGAUW7XyfmtCUTpFkpJMYc7Q5x79+Pcdt/KjOoFPiUit/XiCV5BRN4HXOBU4AdrmyFhMcWtDWlx9OBFgaZ4pC7kbFhyDlrwE0jCVehFMkApASuKxA2M0TfDtL9mXPb9dzzOD9futMVhGHSdYe90j1Aqivzg8/L15Zu57Pv309DckcktvioiX8voOU79RUTW4rBddtXBEIufPw4+g8phtE8iATSFkzxx/mhnv0jLMqzaN4NuFs5Kd+CkjyNpoI/9CVTelFG5Ey1dXPuLJ1jT0IxWEqQEe19tOnpcuF0dXeD3sfFjV3L2tIy88Tcqpe53MjjZg4jIAtLsJf/FjnZQikn5PPAmCwSxM6L8s7bL2XDEZWjBd0OycE5hKuxlXAtMHX3S3zIWx/YDDVTc/gBrTrRQXlpMEZmJA+zexASqSoMQjbHgrn/x/KYDmRS9T0QcXRmnDrE+6WS4ti7MP5qi4NWJDrM8UVEEfAa/PxFl9aGws3HJW06WKvBqTi7jah60qU/DyGszKrdq2yHm3vUERKJUlQYJidCXvbStllBVHACEy+59lhc212ZSzHHSfqpAHCN173+5E0SGXe/RwxRdQdLiVzvanA1H34AWeCMkC6Enp6KUYMUE3DPRpm+AkosyKveP57az+HdPQTJJZUmw3zF8rZZQFbS3cV/yxyVs21+frshiEfm/VBc1ABE5D5icymjH8Sg/PhYGz/DrPXoIi92L/Kk5xtZ0y74l13Tn6y2cGWJjYkY0VOBytJlLwTc5o1I/fnA1735oOeg6VUE/bdbAbG+2ReKDpMkVv19CRyhtb/8lEVl8pgs9Pcg7nEpvqI9C3GKSPrzjkaboCuIW9+5MsxJS+V40zzxIUljRkhhWTMcoux5t+l/BKM2o2K1/ep7/fm4DBPxU+DwDHv3dagkVxQEaOrr48F3/zqTIN8/0jz2f+MVOJV9siICuhm3v0YPdi+j89ESEulYnf4cLbfQnsEwdKwpY8decUJTS7NN/426M0Z+HmntBK0pbzhJ7Gfe7a7ZDcZBRRvaivyMiaMVFPHzoGP93/6p05ld1uzlehSYibhyO1N3XGOPXzbGTe8eHOxMNDSImv0/nOKz4IMbM1ejlNwFBzIgGZgKlhoN3yBk7GjfWvYz7A5jwvYzKtbSHufC7/+Avew+hlRZTpqkz+jgGigT2MVT4/Xxl1XY27D6arsinT/8HDZgNpDwDeU9zHOImlfrwnJyfjg5gKL5T10VnNM0co2gOTPox2ozNGFVfR7lqMKMGJJPQp3WYwc+ronEn/BGqPpdRuV0HGxh5W/cybllJr5Zx+0MUKHe7wLL49mMvpTNfJCIfP/UfNOyQ4JQ0hpOvmez/xUqxP25BUrh7RgnBTPe1e8fBuK+i5mzCGPt9lHs8VtyApAmSGDbDr1dH4y6BUW/PqNzaXUeY9fPHIRzp1zJuXwmJQFGAx+saeGTlrnTmr+pFNGCOk/XL7YnXRHbBMk2xJ2pCzOSf549yju5NiQFVn0PN2YMx8S9ovrPB1OzlT4kNcaGY9nO4qtFmbIeSjJLbcP/z2znvl08AUBEM5GUrNkCZAgydHy3bls70LBE5+XAaaQ5k39mZgGG+elWsFDvD9txh5evHcN2sATj6rvw6mLkKbfIS9OI3gvWKUIbe8nACiSv0wCK0WS+Bb2pGpe54eA03PrAcXC4qfJ68bqiLAvi8rDrRzGOrdqczPzlu1IDKVFYtoSR7Y6ad+GCYUqwUe0IJ0BQ7r6rkwkmZRZtmTOmFMO0htJl70MveDZZmh35bcWyhDOYvHzsaV2IGesmNMHNpxsu4X7v3OW55dj0E/JR73YNit2mZApTi9y+mHWYtFhG9+w2kTvrUEjbZmbCG5RDLAPxKsacrgeEzqLt6LDMrspj/yjsBpvwObVYtesXXAWyhJOMMxgn9qdG4evlnoOaejMt+8M7HuX3dLigOUmYY9hxgEBAF8Pt47Egjz653TMxYRXdqXQ2H/r4z1pMJZHgppCfUcH9HnAtL3Zy4ZizVGeTNao6G+eK6lTxW+3Lfb+4ZA9XfQJvTgj7uTpSrFInr9oR+kAjlVdG4Vd+DSbdnVK69M8Kl37uPP+2ts8WhaYPOd1amKTCTrHn5WDrTd0Oa/j3enb3QO4z00bPJ63Bngg9U+XnhbdXOWU26aYtF+MDaFfzkyH6u3bGBt77wFA/sTzuWdWhIAMZ8DDW3Hn3yQ2jesyChQcLM5HzwrHFyGdfqjsYd+4WMyu2pa6TytvtZfryZspJiihSDThzQ3Yu4XDydPkbrbAAlIruAGWeyeOlQmEXLG/C6NXv8NsTpSZDd2ZnglklBfnJ5RUblajvamLRmGcQiLAgU02pZHIxFwDKZ6w/yycpq3j91JkF3P/eIdKyHhv+H1fE4IgplJLHPf8tN0rpXLeNOfR6KM9vvvXTDfi7/81KwLEYXB+jM00pVpkREIBzl2Q9czhsWpkxxGgPGO/Ygbl2Bgujgft6M8KI4bNni+GZNccbi2N7cyKQXl0I8xnx/kE7LwgBmeP3M8BexLR7l0y9vZ/4LT/HTbRs41NnW90YWvw5q7kOrWYU+8hMgColpp0zos8fJaFxjPNqMTRmL4/7lO7j8j88CiqohIA4An1JgWeyvb3My8wDnazh8PQU9WvfxyoP/oZ3wK8XBpAXhJL+aP4LvXjo6o3IrjtUxd81zYCZZ6A+8arJpimAKzHB7mFdUwoFkkv86sIuJLy7lWxtXs7ExbReemuKzYdJP0aZvR6+8FVQAK6se+gRmVKEHLkKb+QL4Z2RU6uePrLWXcQ2dqiJv3nwcfeVAU9ojDhdpOBylOzKgM9elDWlPerFS7I/ZDsCHzivnpgwdgA8d2MPF61eCpjHf66cjxR/fFLvLrjFczC0qAaXxvSMHWLh2OZ9+aTnPHante+P9U2Hcl9Fm7sYYfweadzZWzDWwE/ruZVyj7P0w8ylwZ/bl8eV7lvK5JevA581KNG7W0Q0216dNuHiWEpHHgatTWVz/2FH+2Ran0jOY1+vPTJnW7QAUWHbRaC6dkj7aFODXu7bwyb3bwOtjruEm2sse1K0ULZZFfTQMIrxzxCiuHzOOt06cgt/oR14tKwKtS6HplyQ7XkDTTDAslGZgH/yVOUppiBnFinswKr4IE/4no3JJU3jfnY9x377DdjSupmU14DBbRBJJylwG22+5lqpRJanM1mukOettWtAF5tA7p69YKXZ22Q7AjVdUZiyOn27baIvDF2BeH8QBdtbGIqWY4S+ixl/E/e0tvGv7eq5c8Sz37dvFiXBXr+sEQPPByKth+r8wpjyIVnwNmAozqnoVcn9qNK4x9jsZiyMUjvHG2x/kvn2H8ZUWU5TlaNysouu0RuMcPN7mZBU0gO1OFtNLXENuiFXc7QDEZ3DwykomjszsW/tL61byo6MHqAyUMELT7NWOfmB2l5/h9eHy+lkVDbFqx3o4sJufj53IW8dPYkKwtG+Vj7gKRlyF1rEBrekerI7fYUYVmiuO0jVEzrx0fTKpgmjoE/8E5TdkdLs9h05w4a+formji/KyEuI5DjgccBRgWbQ7pzAt0gDHI6xG+40h40k3un/2dCZYVOKm6ZqxGYkjYVl8YNVSfnTsIDOCpZRo2oBmjDQFoiLUuDzMKyoFET67bwcTVyzhfzauZkvT8b5XXrwQJt+FNmMPRsWXQR+DFdXBTHB6KMsry7gKbcpTGYvjhc21zLjzMZo7w4zOQzRu1hAhnnRcHfRrwF4g5ZLL1BFucOv2WYGDmJ7Dcw53JXlTuZelV49lZCC9AzBqmly/8hn+3FTP7KJS4JVv/mwQEaFGN5hdVILhcvGdoweZv/o5bl7zPNuaT/S9Yu9EGP8ttJk70CtvRRkV3aEsCSDxyjKuqwpt+noovTijah9btZtLfv8kWBZVJUNjGbc3mM7PY2jK3gJ3KJXF9NEePjrSYx+kOUjp8XE0dSb4THWAf187Fn8GiwrHw51cuPxJnmhrYW6RPWzI1fdAXIRJSmO2P0i1L8Avm44zb/VSrnnhaZ49chBL+vi+jSIY92XU3EPo43+D8k6HpIYV1rqjcdeCP+0JsgD89KHVXPv358DjpiLgG3orVRmQbnDU8yl61snoogofmGKn6Rxk+JXioGlBKMG3p5Xw8yvHZFRuT2sTlS88w8ZQJ/MDwT5NxgeCuNjvdYYvQLXXz+NdbVyxaTULn/sXf9+3i454P/bdjX4vatYmtOq/oJd/CGoeAiOzZe4v3bOU/1q6Afw+yj2DIxo3D9hrgyIyD9iSympbfZR5z9aDrgbV1lu/UuxPWBA1uWtuGTefm9kff23DUc5bbyc7nu/1D5poUwBdKUwRXk7EIREHj4cfV03kvVOmUeEP9v8GGfCenz7G318evAGHA0FPuMnjN17C1RekdIw2aQBKqa3AnlRWcyu9fG6Mzz7zPN9P1o2/Z3tsJMkD55VnLI5/H9rPeWuXn3QADiZxwCkrX243MwJFgOKLtXsY8/yTfGHtC/0LZUlDNJ7k4u/dx9/3HT6ZVGE4igOwV2aVhs/jmAAwdOpA3XGY9c6pQVCKxkHwvoqVYn/UhITJkxdV8PY5JRmV++vLO3nLljXg8jDf7R104jgVU+yfGt1gtj+I4XJzZ8MRJq5Yws1rlvNSQ9oMHb1i/5Emxv/v31lxvMWOxmWYJ1e1LHAbjClz3CAXPjleEpGZpHEa3vD4UR5ujjHJZ+Ttm6VYKfZEkqAUay6p4LwJ/ozK/XzHJj63bwd4/cw1XHmbc/QHn1LUWiYd0QgoxXUlI/hI9STeOrGmX/Wu2naIxfc+C/EE5cWBoe/jyIBINM6C4gCrvv4OvO6U46KVJ3sQpdQu4EWnSj83qwQsoTVPH66T22NdGrVXj81YHF9dv4rP7d/R7R0fmuIAe9xcoTRm+4uo9vp4pKOVa7at4+Jl/+Y3u7YSSfb+cJ8/PrOFxb99EkyT0SWB4ePjSEciyetGlTiJA6Du9LXQO5ysL5lSxPsqfLRFkvhzuMvw5PbYzgQTAy6OvWUsE0Zk5h3/9EvL+eHRg1T6gszWjX57xwcDPStfs71+anxFrIiGuGnvVi5Y/jS/2LGJ+lBnRvW0dUb40L/XgMDoIv+w83E4IsLMyrTz1vWvEohS6gFghVOJry4cAZpif9LKyYT91O2xV470sO3acVSWpM+sHk7GeefKJdx9/DA1geIB944PBuInJ/R2yP3mRJzP7ttB1apn+d+Na9iexvFYGvTxwwvmAEJ4gBJHDxmUYmxZ2gQdK87kTfuFU4nZY7z8bHoJhLOfYtOLol7s7bEfHRfg6evGUZSBA7A5GuLyFUt4oOUEs4tK0FV2veP55j9C7oFvH97H3JXPcN8+5wwet1y/iKmlQbrCMbKYsmJQEUkkIeDlnOmOp1AdB7b8x6et+0gqx3TYn100krdX+DjclaQ4S0Mtj1IctIRkZ4Jba0r43RsrMyq3u7WJ8heeYXVXB/MDxTn1jg8GoiLUaDrzikrA7eFde7eyp7Uppb3L0Pmvc6aDmRzeq1Y9zwsQjfGZSVVMrHIcYtUqpRKpvo6/n+5Gv7qsAnw6e8IDL5JipahN2N7x/5tVyrcvGZVRua3NDcxcs6x7e2zRoF7GzTYREea7vZBI8McDex1tP3XNOcwuKyYSigzKaImBRMfeITu/ujyd6dOQIquJUupF4MdOpUcWGWy82N7XvSdmDphIipViT/cOwD8sLOdLF6Z9EACeP1rHWauXgch/bI99rRISAV+A2xrr0wZCfmHRDLCE9uHqGMTeW94ai0NRgKsXpV0a/zs4pP1RSv034JgO++xxPpZcOBoS1oCIpFh158c1hacWj+ZDZ5dmVO4f+3Zx2YYVYBjM9/hSbo99LTJXNyAe5Z79exztPvbmhSwqL8XqClM0nHuRWJwfLphKxQjHsJ0tSqk9kD7v5WfS3e/ymiIePm+ULZJo30VSrBR7wkmwhOcvruCqaZnFHf1m11bevX0deHzMdXkKPcdpREUwfAHuaD7OpjSJJG4+345JahyG79AFdMWT4HVzwwXT0pk/3PM/jgJRSq0HPpKutrfNLuaFy8aAJX2ak5x0ABoam66o5JLJmeXHvX3LOm7auxVXIMjsIewAzDazNB0SCf50cJ+j3fuvnM+140ZDZ4jAMMum6UFBNMo3501hyjjHOW0Y+GXPL2nXTJVSfwDS5p68aFKAnW+qAo/Ono44XULaCd+p+XHL/QZHrx7L/LG+jB740y8t52u1eyj3B5mmGcPOxzGQREQo8gW4o+kYq48fcbT98AUzQddoGoJ5CFLhBRqjMQj4+PRbFqQz/5dSqrHnl4xSlSilvgb8IZ3dzAovnddX85nxRXSGkhyMmyk97gZ2aPf+zgSXlLrZd+04qkrTOwAjyQRvX/EMdzccZnIgSPkwdABmg8maBqbJn2sdkzZz7eKZ3DixErqGTy/SDhCL8auL5jBmZNqjLb516i8Z5/JRSn2EU8ZmqSjyaPz8yjE8tGgUWML+rgT11qt7k57tsbUdcd4+2svz11dTksFpTp3xGFesWMJDbU3MCJTg7t47USA9EREqvQF+2VTPsqOHHG0/dMFM0I1h0YsElMLqDPOGsaO56epz0pn/oWdy3kOvkl0ppW4AHsnE9vrZxTReP55bxhdBNMnBsC0Uv1IcFnt77OcnBHngrWMzqY76UAfnr3iGVaF2ZvuDJzMbFsicEZr9577rgPOK1hvPq+G9k4Z+LxJQiqZIDHSNn70r7R58izNMJXqdDU4p9TbgN5nYlgcNfnJ5BbvfMo5Pjw1A3GR/Rxy6EvxwZil3XJFZftxtzSeoeuEZdkRDzPUVFYZUfSQuQrXXx0PtLTxZ5zzU+vgls8Hloik51E7DsvGiaEokIR7n/mvPZ9bktJ+1Hyul/sOj2uevBxH5DPDz3pTZ1xTj7s1tTC12ZbwDcMWxOi7etBqUYr7HV1jG7SdupdgRDfPmohL+dckbHW0/9ot/8fvdtZSXFA+p964DXZZARyffWTyPb70nbe+xUyk1+0wX+tV/isjZwHNAaTYe9NGDe7lu+3ow3Mx3F3wcA0USOBgJ8eDsBdwweXpKu3W7jnDur/8Nup5ua+qgQcdep7Va2/nUvKnc/ak3ZVLsrUqpJ850oV8Jd5VSm4AJwOMD/aC/372N67atBbeHuQVxDCh+pUDT+PXhA45258wcx3fOnQmRCJHOEJGOLiLhGBHTIn9H/KTGC3SJYLV18J5pEzIVx+2pxAEDmDNRRK4A/gxkNrFwavGWdXytdo+9A3CYbHIajLwcCfG3mfN599TUebISiSTrdh/lYEM7hxrbWVXXyL8b2yAet/d1axp43GgugyLyd4hcQCl7vtTRyc1nTeOuT16VSbGlSqnLnQwGdIlCRDzAF4BvAplliz6NW9au4I76Wsr9xVQUfBxZw60UO+JRig0Xhy6+ilJPZg5agF0HG9hZ10R9W4gNh05wb30LdIVBLFAauAxwuyjSVE4OvC7TFMfCMYhGue2Ss/nqjRmd4X4MOFsp5RjFmZU1PBEpwxbJR8hwfmJaFh9avYy/NB6jpqjkZH6oAtlDV4rd4U7umTaPD0+f0+d6mtq6WL7lEDuONtPQHmZdYxvrWjq7054qMAzwuPDpGi4GrpfxAiEU8Y5OcLm479rzeeelGT/HBUqp1emMsrrILSI+4LPAdcCiVPdri0V455rlLGlrYl5RCXEKPo5coCvYnUiAptF40ZWU+wbmjPikafLSjsOs2VtPfXuIvc0dPN7YBpHuLVkDMCwrVoqGiN1rXFVdyd0fuJTJY0dmWvz1SqllmRjmzAskIrXYE/r/4MvrV/H/Du9jfvGIwmQ8xxwUi6RlsW/RZUwpKcvafV6ua2T59joONHZwtK2LR0+00d4ZsucxSoHLlXZY5sIeGjbFE9AVguIgv754Lp94y8LeNOUKpdSzmRrnJFGiiFQCKV3mnckkDPJEbsOVZDLBtYHirIoDoGb8KGrGvxJF29IeYtnmWnYcbeZER4R1J9pY29JOVzJp9zCGAS6DYl1DR9GOEIklIBqFogDfuGAuN79xAVWj0sZWncqlSqnlvSmQq0yio1LdK5SIsysaAn2wJDV9jZFM2vvXc8yIkgA3XDKbnhNKkqawdmcdK3YeYfOxZo6EoqzsCNHR0X0al6YxvriId86awBevOzeToMNTiWDPOTb3tp25+lSm3Dd7NNTJ8ljU/tYokBfOKk0d1RA3o7RHDhP0jsFrZC95tqErLpg7gQvmvjIKf7mukSWbD/JS7QleP30cH7xqfl+qXoM954j0qV1Ze+JXMznVhaZIGMwE1e7XStKZwUOrCLhcTC1O/W3cEqrlnm03U2xYjA+ex8TSRVQEZxL0VOB352ZYdnPfq7i9e6tGn8mVQManunAiGgFLMIbzPuhBSpNYGLpBqSf1l1Nr5AgRS6GSinXN61nXvJ6gbuHXLUb5pjC++HwmjjifyuK+LxNngRPAVX0ZUp1OrgSS8lSb9kQCJDdZGguchmVxkdfHaIfl3XCiEQUUGRZF2PtDkqKIWBq7Ow6xpa2O4mN/Y5Tbg99VwSj/DCaWnc+4kgV4Xb2aJwwU/6OU+s5AVZZ3gcTMoRlOPSxIJnhd0Rh8RupAxJZI3X8kAjKUYCjBq1koICnQGI8Rjx5me/tRXMefZbTHIugaRal3CuOLFzK+7FzK/OPJIr8CvqyUyiwxcYbkSiApv6JMsRgyx+gON8RiTrHzClZDaAceLfXyu2A7HAO6RUAHhYkFhEyNlkQTe7uaealxHSPdv6DMXULQPZ7KotlMKDufsSVn9fsJgB8CP1RKtWXjFeVKIH2KyyqQPbpEQHcxsyT1ClZz6DCN0Tp8vVhgFOyvO69m4T2lXEIUxyKdxEM72diyi6Kj9zHaYw/Lyn3TmVR2AdVlr8NjZPRRMYF3Aw8qpbLqPMuVQApdxCCj3jKZ7/EyuaQ0pc2Jrt10JHXKXP1PVO5Sgsuwh9NnGpatbFjKGA+MCcwi6K5iTNFs5lRek6o6HdicbXFAQSCvXSyTKe4iRnpTH0LUGNpH3FID/sdLNSzrTGo0tOwkYu0iaj3Hp3QPM0anDFu/hjTpcQeCXHnnUh59pCut+5UVyCmWxRi3x9EklGhEz/6X9MlhmU+3GOlOUu1NENCFg23bnIq9IxevKVcCSenF9Onp0/0UGFh0BVgmNQFnz3hnvB4jBwI5HcGew3TGap3MzhORyZnV2HdyJZDWVBdK3R5QGmahF8kZcRHQdGaXpvaEh+ItNEf24tXy83fxakJTZDeheIuT2dxstyNXAjmW6sIYnx80nUhBHznjgGVR7vYyozT1/omGzt00JwSPlp/kcR7Noi1h0RQ66GQ2JtP6+kquBJJyW+Novx8Mg3oZ+ln8hgymyfkeL5X+1EuqJ7r2EDU1tDwtrygFMUvRHnU8D350ttuRK4GkPOKo0h/kjR4fWAWPes4Qk9EuN7pDBHVnvJEcrKKmRAGmKCLxJiezYdODpDyYwq3rzPEXgZn9Q0ELdGNaTE6zvTacaGQwLJ9YOI4sMjubrx/kSiCNThdHuN1QOBUqdyiY7eAgTJgxGsN78er5H/am2WSa9WjIXM5BwqkujvX5QcRefiyQVV62THB7mVXmNEHfQ1O8A2+eJug9KCXoKr/9WE4EopRqBXakuj63rBxcLtoLvUj2sSyu8HgZV5T6y7ehaychU8vrF5Zgx5ME3I7z8K5styOX+1zXpLpw9qgxXFdUQn0y3pv6CvQFy2SM4XYMcW+L1iOS3+7cEnBrQrG3ysmsKdP6+kouBfKc08V5gSAkk4VhVraxTMY7xF8BhOKNefGgn0rM0hjpdjOqaKqT2bFM6+sruRTIbqeL04Ol9jykENeYXUSY4zBBB2iNHcCdJw96DxFTo9w3C5/LMRzmRKb19ZWcCUQptRtI6Ra9rGos1f4AO5L5Sn88/GkVAcPFdIccWCe6DtAUPZ7XFSwFxEUR9KTdgdiQ7bbkOtfOU6kuVAaKubFkJMRj6EP42K/BTJOZ5DJfgGkOaX4aOnfRkdRx5XGIZQFuJUwoTXsi7Y4MqusXuRbIg04Xzx1RDmINCgfVsMRMMj8QJOBypzRpDh/AzPMEvT2hM6loPNNHOZ4MtfFMR6YNNLkWyEagI9XFayfWcEXJCHbEozlu1msEy2J0mvxjoURTTvaApEJTQqepMbEk7REG9+WkPbl8+O6N9Y+kuu7Wda4fVQXxGN7CMGtAsVcHhdFeZ4F0xI7kbQVLAR0JnWqvi4Vjr0tnvjQXbcpHvs9fOl28atx48PrYVpisDyih7j0g04pLU9q0RY7TGD2AL08TdKWE1qTO3FHXUeQpdzLdp5TakIs25VwgSqk1wPZU1ycVl/F/lRMgFsZX6EUGjMOmyWyvn2mOK1i7aEuovCzxakpoiLmYEhjNpZM/ls78zpy1K+dvwuYfThevrp4ILg9bCxG+A4eZ4Hx/EaMd9oAc79xF3NJy7olS2H4PBbx+wkfBeZkmDjycq7blSyA/x2Eb7syycv5v7CSIhApzkYHCEqq9zucQNob35Hz+Ye/7gOMxF28a/z5qRr0hXZE7lVJZ96D3kBeBKKU6gAecbN4/dTr4AmxLxHAXRNIvdAWIRbkn3QrWCVw5HF4p7KDEw1E3l465iEUTPpyuSAy4I2cNJH89CMC3ux/4jIzxB3l02hyIxwkXTp7qFzEBlMYUhwjecLydcLI5Zw7Cnp6jLurm/PJ5XD3j1kyK/Vcuew/Io0C6H/R+J5trJtbw3pEVHIwWhlr94aBlgstNjUMMVn3nDhpjyZwkadCUELMUh6NuLhl9HjfMySj/22ql1N05e2k9bc31DU/jv4F2J4P/mT0fNJ1tyXhhqNUHfEpBPMYVXj+THfLwdkQPcyxuELU0tCz1Iqr7pyVu0JIwuH7idVw983uZFDWBD+bh9eVXIN2HuP/cyaamdCR/rZkD0QgRsQrh8L1AV3DMskAsPjvBMWycs8feyCemfQABjkXdmDKw+WI1JUQsjcNRFyPdGjfN/T4XTPx0psU/qpR6OR/vcFB83ERkOzDbyebTLy3n7oYjzA0UEy3MSTIioBSbO1v5RnUN31t4fkZlwvFWlu3/AS82bgJgpDuJW0mf0/opIGxqNCV0SgyL1499B+dP/FRvqviJUuqL+XqHg0Ug7wP+7GQTMxOc8/xTbIuEmO8LFI6MTkOxptjQ1cm1peU8cvGVvS5/pG0zW+r/wrbWDbQldDyaEDTMk07EVB8cwU60ELE0upI6FlDhTjJ/1DXMq3x7bw/R+atS6n35fI+DQiAAIvIQcL2Tzb72FmpeXAoizPf4CiJJQUApNkfD4HJzfPHlVPj7fjptS/gQh1pe5FD7Sxzq3ER7UscShQmIqJO5s0QUmhI0wKUJ5W6NSSWXMK54IdVl5xD09DpDzz+UUu/O97scTAIZA2wlTa6jlfWHuWjDKjBczHW5C8Ot0/AqxbZ4FCyLrYsuY+7IgUs+2BVr4njnTsLxJuJmqPsngkLh1gO4jQAevYhibxUVwVl4DH9fb/ULpdRn8/0uYRAJBEBE3gP8NZ3dE4f28dYtL4HbWxDJKXiVYlsiBok4LyxczEVVjsOZTmAfcHa+230aNymlfpPvRvSQ72XeV6GU+hsZBKJdPWEqf5u1AOJRtiXiBArLvwR6xBGP8+RZi9KJA+AppdQC4H/y3fZujgILB5M4YJD1ID2IyEog7Y6ZRw++zHXb1oLLzXy39zU7JwkoxeZ4FJJJnp5/HldWpz024ygwQynVBSAiZwN/APp9qmYfuRP4b6XUoItOHawCGYu9+zDtAHrpkVou37QaNI0FvgCdVv7TZeaSkxNyYNWCC7igsjpdkThwnlJq8+kXROT9wHeBCTlq/qPAF5RStbl6X71lUAoEQETOBV7KxHZjYz0LN66GeJS5/iAJBHOYdyY9iS12hzop9wV48ZzF1Dic93EKb1NKPeJkICLvBT4PnJOFprcC/8T2b2Q96UJ/GbQCARCRNwH/zsT2aFcHb1v7Aus626j0BxmhafZJSsMQn1LstEyS4S6uLRvNPecuZoQ3oxWjLyul/l+m9xGRmcCXgNcD1fR9ztoJ7AL+CPxKKTVkuvlBLRDIzInYgyVw68bVfP/IfnB7mOv2DqsVLl2BC8W2WASScb4/fhpfn39upsVvU0p9va/3FpEK4ArgUuyohyBQBLi7f0zs4VsEO2duA/YI4CngpVwc2ZwNBr1AAETkw8A9mdo/d6SWN+zYAPEY1b4AxWro9yZupWixLOqjIfD4eH7OQi5Jv1LVwx1KqVuy0S4RMQAXdjqr+FAVQiqGhEAAROQD2F10RnTGY3xl4xp+eeIwGB5mdG8WMoeYUE7ONaJhSCb4YtUkfrBgEe7MTwf+gVLqG/l+jqHKkBEIgIi8jV7uR37+6CE+tXsru0Md4PYy2+XGHAKT+JPCiMcgEeOiYBk/nDmP88eM6001tyqlvpvvZxnKDCmBAIjIIuAF7G49IyyB+/fv4t0HdkM0BC4PU11eDDX4ehRdKUwRXu72iFf6irhr6kzeNmlab6v6iFLqD/l+nqHOkBMInIzbWglM6U25rkSMR2v386O6/WwOdYKuM8njw9P9ocwnulK0Wxb18QhYFucEivn6pGm8ZcJUXFqvFo/CwGKl1Ka8PtAwYUgKpAcRuZc+7DRLWCYrjh3mroN7ebitGcQCt4caw93bqvqNiXAgEYdEHHSdD5aN5qMTp3Jh5Tg01etV1TXAG5RS4d4WLHBmhrRAAETko8Dv+lLWEtjSVM+axgb+2nCMVaEOsCzQdXC5maTpGAPY1iSgEA5YFsRj3ffSuKqolBsqqlg0akx/om9vV0p9bYBf72ueIS8QABGZAPwNuKCvdYSTcbY0nWB/RwerWxu5u73F/la3LMBO24lugKZRqTQMBQbqPwSUBJIISYF6sezyZrL7HHgFmobh9vCZkpGcN6KcKcESziqv6M2q1OkcAd7RnbGywAAzLATSg4jchB345ulvXUe6OtjX3kpLLEZtqJPdXR3sjUVYHo9BMmkPy8T6z3OKlQKlgaaBbvAGt5fpPj/TA8WMDwQY4fEyvXQEFQ4ZDntBodfIMsNKIHAy0PEu4NqBrjtmJjja1UVTNEJrLErYTBJOJkl0B0i6NA2/YVBkuBjh8VLu81HpD/and0jFWuDmXCVwLjAMEZGFIrJShhcHReSafL/bAsMIEblcRJbm+5PdT7aJyNvz/S4LDGNE5GwR+ZOIhPL9ac+QpIj8S0Suyve7K/AaQkS8IvINETmQbwWkoF5EfiEiA5dtoUCfGXaT9N4gIuOBTwNvxfbK595TaKeSqsU+UuxnSqlt+X4vBV7hNS2QUxGRAPbK17XY+x3GASVZuFUYe0/4XuAx4JHuFKwFBiEFgaRA7H0Os4HXYafGmQ6UYW8SCmD7Wry8csxFz3/jQBRbCF1AG3AA2AKsAzYppWK9aEqBAgUKDE7+P2mE45aubsmWAAAAAElFTkSuQmCC;dashed=1;strokeColor=#000000;strokeWidth=2;fillColor=none;" vertex="1" parent="1">
          <mxGeometry x="600" y="670" width="80" height="80" as="geometry" />
        </mxCell>
        <mxCell id="pGYAa5rE9HQfa07IEvMs-50" value="Management DB" style="text;html=1;strokeColor=none;fillColor=none;align=center;verticalAlign=middle;whiteSpace=wrap;rounded=0;dashed=1;fontStyle=1" vertex="1" parent="1">
          <mxGeometry x="100" y="750" width="40" height="20" as="geometry" />
        </mxCell>
        <mxCell id="pGYAa5rE9HQfa07IEvMs-53" value="Redis Cache" style="text;html=1;strokeColor=none;fillColor=none;align=center;verticalAlign=middle;whiteSpace=wrap;rounded=0;dashed=1;fontStyle=1" vertex="1" parent="1">
          <mxGeometry x="335" y="744" width="40" height="20" as="geometry" />
        </mxCell>
        <mxCell id="pGYAa5rE9HQfa07IEvMs-54" value="Mem Cache" style="text;html=1;strokeColor=none;fillColor=none;align=center;verticalAlign=middle;whiteSpace=wrap;rounded=0;dashed=1;fontStyle=1" vertex="1" parent="1">
          <mxGeometry x="440" y="744" width="40" height="20" as="geometry" />
        </mxCell>
        <mxCell id="pGYAa5rE9HQfa07IEvMs-55" value="ELK" style="text;html=1;strokeColor=none;fillColor=none;align=center;verticalAlign=middle;whiteSpace=wrap;rounded=0;dashed=1;fontStyle=1" vertex="1" parent="1">
          <mxGeometry x="615" y="750" width="40" height="20" as="geometry" />
        </mxCell>
        <mxCell id="pGYAa5rE9HQfa07IEvMs-59" value="Database&lt;span style=&quot;color: rgba(0 , 0 , 0 , 0) ; font-family: monospace ; font-size: 0px ; font-weight: 400&quot;&gt;%3CmxGraphModel%3E%3Croot%3E%3CmxCell%20id%3D%220%22%2F%3E%3CmxCell%20id%3D%221%22%20parent%3D%220%22%2F%3E%3CmxCell%20id%3D%222%22%20value%3D%22ESIGN%20Checker%22%20style%3D%22text%3Bhtml%3D1%3BstrokeColor%3Dnone%3BfillColor%3Dnone%3Balign%3Dcenter%3BverticalAlign%3Dmiddle%3BwhiteSpace%3Dwrap%3Brounded%3D0%3BfontSize%3D15%3BfontStyle%3D1%22%20vertex%3D%221%22%20parent%3D%221%22%3E%3CmxGeometry%20x%3D%22270%22%20y%3D%22220%22%20width%3D%22170%22%20height%3D%2220%22%20as%3D%22geometry%22%2F%3E%3C%2FmxCell%3E%3C%2Froot%3E%3C%2FmxGraphModel%3E&lt;/span&gt;" style="text;html=1;strokeColor=none;fillColor=none;align=center;verticalAlign=middle;whiteSpace=wrap;rounded=0;fontSize=15;fontStyle=1" vertex="1" parent="1">
          <mxGeometry x="40" y="640" width="170" height="20" as="geometry" />
        </mxCell>
        <mxCell id="pGYAa5rE9HQfa07IEvMs-60" value="Cache" style="text;html=1;strokeColor=none;fillColor=none;align=center;verticalAlign=middle;whiteSpace=wrap;rounded=0;fontSize=15;fontStyle=1" vertex="1" parent="1">
          <mxGeometry x="320" y="640" width="170" height="20" as="geometry" />
        </mxCell>
        <mxCell id="pGYAa5rE9HQfa07IEvMs-61" value="MISA Service" style="text;html=1;strokeColor=none;fillColor=none;align=center;verticalAlign=middle;whiteSpace=wrap;rounded=0;fontSize=15;fontStyle=1" vertex="1" parent="1">
          <mxGeometry x="610" y="640" width="170" height="20" as="geometry" />
        </mxCell>
        <mxCell id="pGYAa5rE9HQfa07IEvMs-71" value="" style="shape=image;verticalLabelPosition=bottom;verticalAlign=top;imageAspect=0;aspect=fixed;image=data:image/png,iVBORw0KGgoAAAANSUhEUgAABLAAAASwCAYAAADrIbPPAAAABGdBTUEAALGPC/xhBQAAACBjSFJNAAB6JgAAgIQAAPoAAACA6AAAdTAAAOpgAAA6mAAAF3CculE8AAAABmJLR0QA/wD/AP+gvaeTAACAAElEQVR42uzdd7gU9dn/8c89u+fQEcUuVUREFBUQsIMCSrNDTIxGQcFu6mOeNE/ypJnkSWKhN8WYcuxiUBAFsSsdjtKUKmLBhpRzzu7cvz/w96RZKDs7s7vv13Xt5WWuJPM9n3t25jv3znxHAgAAAAAAAAAAAAAAAAAAAAAAAAAAAAAAAAAAAAAAAAAAAAAAAAAAAAAAAAAAAAAAAAAAAAAAAAAAAAAAAAAAAAAAAAAAAAAAAAAAAAAAAAAAAAAAAAAAAAAAAAAAAAAAAAAAAAAAAAAAAAAAAAAAAAAAAAAAAAAAAAAAAAAAAAAAAAAAAAAAAAAAAAAAAAAAAAAAAAAAAAAAAAAAAAAAAAAAAAAAAAAAAAAAAAAAAAAAAAAAAAAAAAAAAAAAAAAAAAAAAAAAAAAAAAAAAAAAAAAAAAAAAAAAAAAAAAAAAAAAAAAAAAAAAAAAAAAAAAAAAAAAAAAAAAAAAAAAAAAAAAAAAAAAAAAAAAAAAAAAAAAAAAAAAAAAAAAAAAAAAAAAAAAAAAAAAAAAAAAAAAAAAAAAAAAAAAAAAAAAAAAAAAAAAAAAAAAAAAAAAAAAAAAAAAAAAAAAAAAAAAAAAAAAAAAAAAAAAAAAAAAAAAAAAAAAAAAAAAAAAAAAAAAAAAAAAAAAAAAAAAAAAAAAAAAAAAAAAAAAAAAAAAAAAAAAAAAAAAAAAAAAAAAAAAAAAAAAAAAAAAAAAAAAAAAAAAAAAAAAAAAAAAAAAAAAAAAAAAAAAAAAAAAAAAAAAAAAAAAAAAAAAAAAAAAAAAAAAAAAAAAAAAAAAAAAAAAAAAAAAAAAAAAAAAAAAAAAAAAAAAAAAAAAAAAAAAAAAAAAAAAAAAAAAAAAAAAAAAAAAAAAAAAAAAAAAAAAAAAAAAAAAAAAAAAAAAAAAAAAAAAAAAAAAAAAAAAAAAAAAAAAAAAAAAAAAAAAAAAAAAAAAAAAAAAAAAAAAAAAAAAAAAAAAAAAAAAAAAAAAAAAAAAAAAAAAAAAAAAAAAAAAAAAAAAAAAAAAAAAAAAAAAAAAAAAAAAAAAAAAAAAAAAAAAAAAAAAAAAAAAAAAAAAAAAAAAAAAAAAAAAAAAAAAAAAAAAAAAAAAAAAAAAAAAAAAAAAAAAAAAAAAAAAAAAAAAAAAAAAAAAAAAAAAAAAAAAAAAAAAAAAAAAAAAAAAAAAAAAAAAAAAAAAAAAAAAAAAAAAAAAAAAAAAAAAAAAAAAAAAAAAAAAAAAAAAAAAAAAAAAAAAAAAAAAAAAAAAAAAAAAAAAAAAAAAAAAAAAAAAAAAAAAAAAAAAAAAAAAAAAAAAAAAAAAAAAAAAAAAAAAAAAAAAAAAAAAAAAAAAAAAAAAAAAAAAAAAAAAAAAAAAAAAAAAAAAAAAAAAAAAAAAAAAAAAAAAAAAAAAAAAAAAAAAAAAAAAAAAAAAAAAAAAAAAAAAAAAAAAAAAAAAAAAAAAAAAAAAAAAAAAAAAAAAAAAAAAAAAAAAAAAAAAAAAAAAAAAAAAAAAAAAAAAAAAAAAAAAAAAAAAAAAAAAAAAAAAAAAAAAAAAAAAAAAAQGEyIgAAILlOGPR8vVSjsoPMrUng1sBSauDyRiQDAEDueda3uKW2eMo/Ka/1D6tT2995buLJm0kGiB8NLAAAEuKMK148oDZb1kPSCTK1l3S4pBaSAtIBACA2b0pa5mbLTOFLYUoznx3bZS2xAPlFAwsAgBiddtn84z0Iv2buvd3sSM7NAAAkn5teN9eTQRD+ZVazLrNVYSGpANFikgwAQJ6dccWLB9Rk00PM7BJJ7UkEAIDC5dIaM/1Jlp4we/wxq0gEiAYNLAAA8uTkYXNaBJngO5JfIak+iQAAUFRCye5X4DfPHt/5NeIAcosGFgAAETvj0pea1qZTP5dsiKRyEgEAoKiFJlW6Z/9r9qSu64gDyA0aWAAARMbt1CHzL5H8d5L2Iw8AAErKVkm/3bS57i+r7u1QQxzAnqGBBQBABE4fOq9lrfufTDqZNAAAKGlLFPrXZt/ZZTFRALuP13IDAJBjpw2dOzDjmkfzCgAASDpKgb186tA5NxIFsPu4AwsAgFyp8ODUNfNukek7nGMBAMB/XICb/lS/fuMrHru9bTVpALv4/SECAAD2XIdBVeX7Ntp+l0sXkQYAAPg87jarTll47oyxXT4iDWDn0cACAGAP9blkYYNtZZn7TDqLNAAAwE5Yks6kznpq8rFvEgWwc2hgAQCwB3pcNrNuGDSeJulU0gAAALvgtbJM5pQnJ3fbRBTAl2MRdwAAdtOgQZWpMGj8J9G8AgAAu659bTr9WI9rqhoSBfDlaGABALCb3ml82GhJF5AEAADYTceH27dX9qiYmSYK4IvRwAIAYDecMmTeVe5+BUkAAIA91NfX7PUzYgC+GGtgAQCwi069bM7RCuwlSfVIAwAA5ICb6ZynJ3SeQhTAZ6OBBQDALuhxTVXDcPu2uZIdThoAACCH3s3Kjn1uYqcNRAH8Jx4hBABgF4TbqytoXgEAgAjsl5L+SAzAZ+MOLAAAdtJJVy7okMpm50sqIw0AABCJMOw/+87jpxIE8K+4AwsAgJ3iFmTCO0TzCgAARHqVHtza47KZdQkC+LevBhEAAPDlTh0yf6CZ9yAJAAAQscOyqca86Rj4NzSwAADYKX4TGQAAgHww1391GFRVThLAP9DAAgDgS/QYMq+XpBNJAgAA5EnzfRpuu5QYgH+ggQUAwJcI5d8lBQAAkNeLdbPvSs6L14BP8WUAAOALnH7pgkMy6ewaSSnSAAAA+b1gtxOfntjpBZIAuAMLAIAvlElnLhHNKwAAEIPQdAkpADvQwAIA4AsZE0cAABDPLMT1lb7Xr6hDEgANLAAAPtfp35jTRtKRJAEAAOLh+2z55OOTyAGggQUAwOfKpux0UgAAAPHynmQA0MACAOBzhUwYAQBA3Iwf1ACJBhYAAJ8/X5SdSgoAACBmx/e5ZGEDYkCpo4EFAMBnOGHo8/tIOoQkAABAzMq2pWvbEQNKHQ0sAAA+Q7nXZaIIAAAScuEeMC8B3wMiAADgP4VyJooAACAR3JiXADSwAAD4DObehhQAAEBCHEYEKHU0sAAA+CxmexMCAABIiCZEgFJHAwsAgM/i1pAQAABAQjQiApQ6GlgAAHwmZ6IIAACSgnkJSh4NLAAAPoOb6pMCAABICO4MR8mjgQUAwGcwzpEAACBRUxOgtDE5BwAAAAAAQKLRwAIAAAAAAECi0cACAAAAAABAotHAAgAAAAAAQKLRwAIAAAAAAECi0cACAAAAAABAotHAAgAAAAAAQKLRwAIAAAAAAECi0cACAAAAAABAotHAAgAAAAAAQKLRwAIAAAAAAECi0cACAAAAAABAotHAAgAAAAAAQKLRwAIAAAAAAECi0cACAAAAAABAotHAAgAAAAAAQKLRwAIAAAAAAECi0cACAAAAAABAotHAAgAAAAAAQKLRwAIAAAAAAECi0cACAAAAAABAotHAAgAAAAAAQKLRwAIAAAAAAECi0cACAAAAAABAotHAAgAAAAAAQKLRwAIAAAAAAECi0cACAAAAAABAotHAAgAAAAAAQKLRwAIAAAAAAECi0cACAAAAAABAotHAAgAAAAAAQKLRwAIAAAAAAECipYkAAIBEqJG0WdJHkj4yKfQdn4/+6b+TMdnmf/yr10jaYqb67lbnP/8vvbFLKZPqm1THpcaSUpL2/nQO0IjYAQAAUAhoYAEAkFtb3LTRXG/L/F2FttEDe1vydy3Uu/Jws1KpT6Ts5tD1UZ1M+NHGbQ03V93boSaOwfa4bH4TSU0yge9lriZm2ktSE/OwiUv7udkBJh0gaT837W+uAyU1oMwAAADIJxpYAADsvA9lvlrSGoW2WoGvcmlN4MHbHqQ2bglq3547tsvWQvqDZt153IeSPtyV/03nYXPqN6hJHRKkM4e4p5rLvblLh8jVXIE3l1tL7bjLCwAAAMgJGlgAAHwGk+5386kepla7+ep0aGs+bfaUvE+bdCs+/Xymk69etHe6OtMmdG9jpjYuP9Q9aGMWHiZZM1IEAADALs7PAQAA8qfbxS82LqtX1jblfqi7dZDsSMk7SGqnHWt0AQCAf7Vy9sTObYkBpYwGFgAASITOw+aU1fX04als2FlSZ5cfadJxkpqSDgCgxNHAQsmjgQUAAJKrwoMe6+Yd6vLjPLSuMnWV1ElSQ8IBAJQQGlgoeTSwAABAQRk0qDL1doNDj1QQdJW8q6Tuko6SFJAOAKBI0cBCyaOBBQAACl6Pa6oaant191B+sksnmXSypLokAwAoEjSwUPJoYAEAgKLT9/oVdbZt+eh4l53q0hmSThQNLQBA4aKBhZJHAwsAABS9EwY9X69Oo/LOoQUnuXsvk06TVEYyAIACQQMLJY8GFgAAKDknX71ob6vOnG4K+0rWV9LBpAIASDAaWCh5NLAAAEDJO+nKBR1SYTiAu7MAAAlFAwsljwYWAADAPznj0pea1qTSfc10rqSzJDUgFQBAzGhgoeTRwAIAAPgcPS6bWVfBXieH0kDJB0s6kFQAADGggYWSRwMLAABgJwwaVJl6p9Ghp7rsQkkXStqfVAAAeUIDCyWPBhYAAMCuqvCgx9q5J4YKBkn+VUn7EQoAIEI0sFDyaGABAADsgQ6Dqsr3bri9T2C6SNK5Ys0sAEDu0cBCyaOBBQAAkCMnDHq+Xnnj8gFyu9SlvpJSpAIAyAEaWCh5NLAAAAAi0OOKhc1Cz14sD4dIdjiJAAD2AA0slDwaWAAAABE7ZegrJ1mYulLmgyTVJxEAwC6igYWSRwMLAAAgT7pd/GLjunXKLnLpKknHkQgAYCfRwELJo4EFAAAQg5Mvn9MtMF0p2VfFXVkAgC9GAwslLyACAACA/Ht2UpeXZk/sckV52g82abikpaQCAADw2bgDCwAAIAkqPOixdv7pLr/Rpf7M0wAA/4Q7sFDymBgBAAAkzElDXmmXUnCDpMvE44UAABpYAI8QAgAAJM1zE49fNnti52vL036wzL8p6U1SAQAApYw7sAAAABKuw6Cq8qaNqi8yD//LzTqQCACUHO7AQsnjDiwAAICEq7q3Q83siZ0mP92yc0cznS3Xi6QCAABKCXdgAQAQlZmr6ioo30+Z4CCZ7y0LmigM95aCJpI3kdneMt9brvqS15HZXgqVlmkvSeWSGvzT/1t9SXW+YGubJWX+6d8/+PTfN0vaJvl2WbBZobYo8A8l+1AefiAFH0rhhwrtA6XsXWXtXZ2x/zsycwqYbD2GzDnZZTe5NIA0AKDocQcWSh4NLAAAdlWFBzrxvQNVlm2h0JvLvLlcLWR2kEwHybWfpIMk7VWgf2FW0juS3pW0QdI7clunIFwnt/UyW6NM+Tr13ucjdob4nTr0lePkqf+W/ELmdgBQtGhgoeQxyQEA4LPMXFVXXreNZIfJva3MDpP8MEmHSmomqYyQ9LFcaxTYSrmvlHylQluhsnClTj14PXdx5depQ185TrKb5XY2czwAKDo0sFDymNwAAErbtI0NVB62l+wouY6Uacc/peZircg9sV2ypVL4mhQskYWvSuklene/VRpsWeKJzqmXzTlaQfBj7sgCgKJCAwslj0kNAKB0PLnuEAVlx8m9k+SdJOsoqRXnw7zaJuk1SQtkmqcwmK+ML9SZB24hmtzqccXc7h7qh6yRBQBFgQYWSh4TdgBAcZr91n6qte6SuinwTnJ1knQAwSRSVtIyyebLwzkKghe1bfN89WtbTTR77pTL551mpl9IfhJpAEDBooGFkkcDCwBQ+GZ6WnrrWIXWXWbd5d5dUhuCKWjVcs2X2YtyvSgPX1Dvg9cSy+7rMWRer1D+v5I6kgYAFBwaWCh5NLAAAIVnpqflbx2jMDhZ5idJ1lvyJgRT5FxvyfSszGdI9pxOP6iKUHZRhQenrZt7gbv9RjsenwUAFAYaWCh5NLAAAAVx0a2TN3aWrLcs7CHZiZIaEEzJz2LWyTVL0kwpM11nNH+TUHZO52Fz6tev1Y1mdpOkvUgEABKPBhaY+hEBACCRZrx9gCw8VW69JB8o00GEgi/xhtxmyHyG6qQf18n7bSaSL3bC0Of3KfO6N0t+raQUiQBAYtHAQsmjgQUASIZKT6npWydJPlCyfpKOJBTsge2SnpHpUdUGU3TmgauI5POdesXc9gr1v5L6kgYAJBINLJQ8GlgAgPhM2VBf9f0MuQ2Q6WxJBxIKIvKGXI9KPkWpg2epp2WI5D+dNnTuwFD6gzkvQQCAhKGBhZJHAwsAkF8zN+yrUOfKdaFMPSWVEwry7G25Hpb8PqUOnkkz61/1vX5FnS1bN39T7j8Wa80BQFLQwELJo4EFAIjejPVNFaT6y8NBkp0pqYxQkBAfSHpU8nu16cNpGtyhhkh2OGnIvIMD+a9NuoQ0ACB2NLBQ8mhgAQCiMXNVE2XLL5DZxZJOFQtEI/k+kOkBZe1Peu7A2aqwkEik04bM6emyO8S6dAAQJxpYKHk0sAAAuTN1RR3Vqd9HskGSLpBUn1BQoN6U63657lXvg58t9TA6D5tT1iCra+T2c0kN2T0AIO9oYKHk0cACAOy5mRu7KxteLtMgSXsTCIrMYpndrTCYrF4HvF3KQZx6xcLWCjOjJJ3JbgEAeUUDCyWPBhYAYPc8s2Zv1ZYNUqirZTqWQFACsjLNlNtY7XXgQ+pitaUaxGlD5wxytxGS9mO3AIC8oIGFkkcDCwCw8yo80Ckbz5T7UEkDxRsEUbpTqA2S36VUdqJ6Nl9ZigmcfPWivYPq2l9LGsb+AACRo4EFZl9EAAD4UjNXNVG2zjck3SDpUAIB/o9LelJmYxUc+KB6WqbUAugxdO5ZoWuUpFbsDgAQGRpYKHk0sAAAn++pDZ0Vapikr4sF2YEvm1ZtkHS3Utk71LPZ+lL6yzsPm1O/QUY/kex7kgL2BQDIORpYYKZFBACAf1FZVa6me39FrhsldSYQYJdVS7pPgf6g0w+eW0p/+GmXzT3FA02UdBi7AQDkFA0slDwaWACAHZ54fy/Z9sskfUdScwIBcmKu3G7TBwfeo8GWLYU/uNvFLzauU6fst5KuZK4JADlDAwslj0kFAJS6p95sp6x9U6ZLxWOCQDTcVkrhbUqXTVLP/T8phT/51CFz+kiaIFkzdgAA2GM0sFDyWKMAAErV9PXH6okNkxValUxXieYVEB3zw2R2m7KZNzVjw62a+c6Bxf4nz57YZXp5WkdJuocdAAAA7PF0iggAoMQ8seFkmd8k2QDCAGKzRdIEZf13OvOQdcX+x542dM4gdxsjaW9KDwC7hTuwUPK4AwsASoG7acaGczVjw0syPUPzCohdA0k3KGUrNWPDOM1cV9SLnj89ocu9abPjJM2m9AAAYHfQwAKAYjfjzV568q1XJD0oqSuBAIlSLukKZVPLNGNDpWasP7xY/9CnJnRac8Dm10+X2Y8lZSg9AADYFTxCCADFasabvST7laQuhAEUjFDS/QqzP1Sf5iuK9Y88ZegrXc3tr5K1puQAsFN4hBAljwYWABSb6W/1k/lPReMKKGS1Mt0l1/+o98Fri/EP7DVszl41mWCc5IMoNwB8KRpYKHk0sACgWEzb2E1B+GtJPQgDKBo1ku6UpX6iXge8XXx/ntupQ+feILdbJNWh3ADwuWhgoeSxBhYAFLppG47QjA2VCsIXRPMKKDblkobJsys1461fa+qmxsX155nPntDl1kB2sqQ3KDcAAPjcWQMRAECBenLdIcoGP5XpMkkpAgFKYur2ljz8mcoOGa+eVlQLoXe7+MXGdcrLJsl0PnUGgP/AHVhgFkQEAFBgpmyorzp+vUw/lNSIQICStEzuP1afZvcW15/ldurQ+f8l91+IxjwA/DMaWCh5PEIIAAVzXeem6esHqa6/KtOvRfMKKGXtZFapJ958QjPWdSyeP8t89oROtwRB2EvSRsoMAAD+PxpYAFAInthwsma8+ZLMKiW1JBAAn+olD+bqiTdHaOaGfYvlj5o1/vhZ6Uyqi6QXKDEAAJBoYAFAss1850A9sX6y5LMlO55AAHyGtKRrlPEVmr7hRlV6UTx699TkY9/ctLluDzMbT4kBAABrYAFAEs30tGrfulamn0q+F4EA2AULFOhanXHI88XyB502ZO4wl+6QVEZ5AZQo1sBCyeMOLABImhkbTlFmw1yZ/5HmFYDdcKxCPasn1k/WtI37F8Mf9PTEzmMt1BmS3qG8AACUJhpYAJAUMzfsqyc23CX3pyV1JBAAe8Aku0Sp7FI9seFKuRf8XfdP39n5GXm2i0lzKS8AAKWHBhYAJMH09YOU8Vclv1Q83g0gV1x7Sz5WMzbM1oy3jiz0P2f2pK7rrG7dHiY9RHEBACgtXCQBQJxmvH2owswoSX0IA0DE075ayX+vzNab1a9tdWH/LW6nDpl3s6SbqSuAEsEaWCh53IEFAHGY6WlNf/MmhZklonkFIC+8TNJNStefp+lvnlTYf4v57ImdKyS7QlIttQUAoPjRwAKAfHv8rQ6qffN5Sb+WVI9AAOTZkZKe0RPrx2jaxgaF/IfMnthpQiDrJ+lDygoAQHGjgQUA+fL/77oKwrmSHU8gAGJkchsmyyzS9LdOK+Q/ZNbETjOyqdTJklZTVgAAihcNLADIh8fXHabMhqe0466rOgQCIBnsUCmcWeh3Yz037tiqIMyeIGkeNQUAoDjRwAKAKFV4oOnrv6MgWCzXKQQCIIF23I0VZOdqxlsFe3forDu7bgzq1j1N0mOUFACA4kMDCwCiMvOdA3Xim49K9jtJdQkEQKK52ikMn9f0N3+tOXPKCvFPmDWywydBi4/PlnwCBQUAoLgYEQBABKatv1BmYyTtQxgACnCK+JLC7Nd1VvOVhTl+t1OHzLtZ0s3UEkCRWDl7Yue2xIBSxh1YAJBLUzc11hPrx8jsXtG8AlCwvJtSwTxN2zCsMMdvPnti5wqXviXJqScAAIWPBhYA5MoT67srvX2h3IYRBoCC52ok8zGa/uZfNHVT40L8E56Z2PmPki6RlKGgAAAUNhpYALDHF3lumr7hRrk9LakVgQAoMhcpvX2RnljfvRAHP3ti53vMdL6k7ZQSAIDCRQMLAPbEzA376om3pkj+R0nlBAKgSLWU2zOa/uZNci+4NVSfntB5isn7SdpMKQEAKEws4g4Au2v6utPkdo+kQwgDQOnwh+UaorOav19oIz/tsvnHexA+JqkpdQRQYFjEHSWPBhYA7PK1m5ueWH+D3H4rqYxAAJSgdZIP0pnNXyq0gZ80ZN7BFvhBlBBAIUl7WD1rwvFLSAKljAYWAOyKh99tpLrVEyVdSBgASly1zG9Sn+a3EgUAAIgaDSwA2FnTNhwhy94vtyMJAwD+bzZ5t6qDqzTw4K2EAQAAoptyAAC+3OPrviazsZIaEAYA/Ie5ClMXqu9Bq4kCAABEgQYWAHyRSk+pyYZfyP0mwgCAL7RJpq+oT7MniQIAAOQaDSwA+DwPv9tIdar/JNPZhAEAOyUj9x/prOa3EAUAAMglGlgA8FkeX3eYzB6R1J4wAGCXp5jj9NGH12lwhxqyAAAAOZldEAEA/Jsn1p6pMPirpCaEAQC77Tmlyi5QrwPeJgoAALCnAiIAgH8ybf0whcGjonkFAHvqJGVr52j6+mOJAgAA7CnuwAIAacdi7Xtt+L3kNxAGAOTUZsm/ojObP0YUAABgd9HAAoBpGxvIM39msXYAiExG0g06s9koogAAALuDBhaA0jZ97cEKg0ckdSYMAIh65mm36YWDv6UKCwkDAADs0jSCCACUrMfXdJBSj0tqRhgAkLfZ51/10Uff4A2FAABg16YQAFCKpq3rJrdHJe1LGACQdzOVqj5Pvdt8RBQAAGBn8BZCAKXnsTfPlmymaF4BQFx6KqzzjKasO4QoAADAzqCBBaC0PLb+MpnfL1c9wgCAGLmOVpme0d/XH04YAADgy9DAAlA6Hl//Y5kmSUoTBgAkgbVWSs9o2gZepAEAAL541kAEAIqeu+nx9b+R2XcJAwAS6ROZztGZzZ4iCgAA8FloYAEobhUeqPuG0ZJfSRgAkGhbJb9AZzV/vBAG27fvbXU+yJRfK4VllA5A1Nz0wUvTrxlLEihlNLAAFK9KT6nRmxNk+gZhAEBBqJHpYp3Z7L5CGGy3PqOGyDWBsgHIg5UvPXF1W2JAKaOBBaA4zVxVV9tTlTIbSBgAUFAykg3VWc0mF8Jgu/UZ+Vs5j6gDiBwNLJQ8FnEHUHymrqij6vS9NK8AoCClJb9Tj629phAG+9KJ79xk0oOUDQCAaNHAAlBcKtfVU1BviqQBhAEABctkdoceX3tt4kdaURHaJ9sulvQyZQMAIMrJAQAUi8p19dTIH5GsF2EAQFFwmW7QWc3vSPpAO5855qB0GL4kqTllAxABHiFEyeMOLADFYcqG+jSvAKDomFy3aeq665M+0LnThr8VBtm+kj6mbAAA5B4NLACFr3JdPaWzU2heAUBRMpluLYTHCV+Zdl2VmV8kKUvZAADILRpYAApbZVW5GuleSacTBgAULZPb7Xps/fCkD/TF6dc85qbvUTIAAHKLBhaAwjVnTpka7XWvpP6EAQBFzyQfqanrLk76QF+efvUfJJtEyQAAyB0aWAAKU6Wn9O4Bd0l+NmEAQAnNXU13aeraryR9oPVq61wjaS4lAwAgV5MAACg07qZG60dL+iphAEDJScnsbk1bPyDJg5w16/LtqWz2AknvUTIAAPYcDSwAhWfamyMkXUEQAFCyyhT6vZq67rQkD/L5p65bE8pY1B0AgByggQWgsDy+7qdyv5ogAKDk1ZXpET2+oVOSB/nKE1c9KbMfUy4AAPYMDSwAhWPq2qvl+glBAAA+1ViefVyPvdkuyYN8afrwX5vsXsoFAMDuo4EFoDA8tvYimd1BEACAf7OfFE7V46sPSu4QzevWZodIVkW5AADYPTSwACTf1LV9JLuLYxYA4HMcKk89pgdXNUnqAGfNuvYTDzPnS/qIcgEAsOuMCAAk2uMbOinMPi2pIWGgiGz6l4/bezJtkmuT5O8qsB0XuKG2KWXbJUme/UhZD2WprDz78Y7/LEjJwsaSpJTqydJ1d/znYWPJUlKYltu+cjWVqen//VPaT1LTTz8NKAeKaGY7U5s/PkuDO9QkdYjd+oy+UO48TghgV6186Ymr2xIDSvs0DwBJ9fcNLWXZFyQdRBgoINWSVktaLffVMlsl+Wq5rZYya/RKq3dUYWFiRjtzVV1tSx0iC1pJ3kqh7fineWvJWn/6/WO+gEJyj/o2u0RmntQBdus1eozMh1EqALuABhZKXpoIACTSo2v2lmWniuYVkusjyZdIWiwPFioVVinQ6+rd/K0kXzj/h56tt0t6/dPPf5q6oo68XktJh0s6WqZjJD/6039nHoEkuliPvbla0o+SOsB6mTo3bivb3k3SMZQLAICdwy+qAJJn6oo6Ut3HJfUgDCSAS1ou84VyLZJpsZRdpL6tV/M9rX+kzDvKdbSkjpJ30o7HEoEkGKZ+zccldXDHn3lHhyBMvSypPqUCsBO4AwsljwYWgIS1Ctz02Po/SfoaYSAm2yWbI/lzUvCcsvaCBh78HrHs5Pf372uOUCp1okI7WeYnSGpHMIhJRq6B6t/88aQOsFufkcPkNoZSAdgJNLBQ8mhgAUiWqet+IumnBIE8ek/Ss5I/pzD1vLZ+OCfJC0AXnGkb91em5gSZnSzTiXIdL6mMYJAnHysIT9RZLauSOsDufUbd486PNgC+FA0slDwaWACS47F158t1r6SAMBChUGbz5T5DQTBDdQ6epZ6WIZY8mbaxgTx7grLhQJnOldSCUBDxdHe1lOqqfge9m8TRde41Zq+0Zed/+tIEAPg8NLDAGZ0IACTC1NXHScEzkhoQBiLwnmQzZeEMmU/RWa3eIpKEeHTNoUqplzwYKHlvSXUIBRF4VqrupX5tq5M4uOPPGHF8EATPSiqnVAA+Bw0slDwaWADi9/jqgxQGL0tqRhjIoRWSKhX6g+rfYl5BvRmwVM18p6G2be8l+YWSzpasEaEgZ1wT1L/FFUkdXtfeo/7LpFsoFIDPQQMLJY8GFoCYL1hX1dW21CxJ3QgDObhAXSXZ32TZSvVrNZ9ACljlunpqpL5yHyxpgLg7E7mZ+X5bfVv8IZFjq6gIuj53wFMmnUahAHwGGljgNE4EAGI1de0ESUMIAntgndweVBDeq7NaPMedVkVo5qq62hb0lgWD5H6epIaEgt2Ulam/+raYlsTBde0zrrWFmYUycfchgH9HAwsljwYWgPj8fe21Mt1BENgNW+WqVOATaFqVmJnvNNTW7YMU2BVyP5FAsBvek2e6qP+ha5I4uO69Rl3tppGUCcC/oYGFkkcDC0A8pqw/QUE4SyxYi13zqtwnqyY1Xuc320QcpX4cWXWEUunL5D5E0n4Egp3nCxSWnaSBB29N4NisW+/Rf5fUlzoB+Cc0sFDyeFU9gPz7+6oDlQrvE80r7NzF3GbJ7pZ7b/Vv0UEDWt5C8wqSpIGtl6pf8+/Lqpt/ulbWDEncjYedYMcqqB2T0LF5WpkrJH1AnQAA+KczJBEAyKvKqnI1bDhLbicQBr6Qq0qB3ap6df6invt/QiDYKVPWtVXgV0m6QlJjAsGXuE79W4xI4sC69hp9qZnfRYkAfIo7sFDyaGAByK+pa26T2/UEgS/wnMxvUd8Wj7K2FXbbw+82UnrrEMm+LakFgeBz1MrDHhrQ6vkkDq5b71H3SrqQMgEQDSyARwgB5NGja8+W23UEgc+8iDS7V6F1U/8WJ6tfyyk0r7BHztlvs/q3vFWvNG8t87MlvUQo+AxlsuCvemB90yQOLlMbXC3pbcoEAAANLAD5MnVtG5kmizs/8a8+luw2pVNt1K/5YA1s/jKRIKcqLFS/llPUv0V3BX6KZI+KdbLwr5qrjt8l98Sdn+bOGv6ejB9+AACQaGAByIeZq+rK7V5JexEGPvWBpB8rU6+Z+je/UWceso5IELm+LZ9V/+YDJTtGpgdFIwv/x/tr6vrvJnFkL02/6j6ZHqZGAIBSRwMLQPS2pv4o+XEEAbk+kdktcm+j/i1+rnP220woyLv+zRerX4vzdzSy7F7RyMKOA9Qv9diak5M4slDh9XJxvAQAlDQaWACi9ei68yUNJ4iSt1Wy25TNHKZ+zb+vAS15PTzi17/5YvVrPliyEz59tBClLa3Q/qLH1+2TtIG9Mv3adZL/hBIBAEoZDSwA0Zm6vpnMxxFESauR2VilwsPUv/mNOudQFiNG8vRv/pL6Nx8oD0+S7CkCKWnNlE3meeulk9+5TdKLlAgAUKpoYAGIRqWn5OE9kvYhjJLkcr9HFrRRv+bDdVart4gEiTeg1fPq3/wMmfWTbCmBlKzz9ei6oYkbVUVFqNCHS6qlRACAUkQDC0A0Gq77gaRTCaIkzZH5KRrQ8uvq12w9caDg9Gv+mOo3O1ruwyW9RyAlyPxWPfZmu6QN66Unr1nk8tspEACgFNHAApB7j6w9XqF+LJf4lNRng9yH65Xm3dSv5XN8EVDQelpGA1qOVcraKbTb5MrwHS+pTwNls39WZVV50nbNbN3UjyVfxZcUAEADCwD2ROU7DRXor5LKCKNkbJPr5yorP1wDWo5VhYVEgqJxVvP3NbD5jTLrJNmTBFJSOql+458lbVBzpwzfaqZrKQ8AoNTQwAKQW/W3/07SoQRRMh6UZdprYIsf68wDtxAHilb/5os1oHkvuc6TtJZASoV/V4+uPjFpo3px+jWPmexe6gMAKCU0sADkzt/X9JY0jCBKwka5f0MDWpyv/oeuIQ6UjIEtHpKn20t2i6QsgRS9lBTcrcp3GiZtYJ5OfVtyfjgAAJQMIwIAOfHgqiYqDxbJ1ZwwiprL9SfVpr6l85ttIo7c69hncoP6wZb9LKO9sylvGLgahq6GZtpbksx3/FOS3IJAoeqbhZ/84z/TB5JkoXlo/mHg+iDr/lEQpD4sT9d8uPWdOh/OnTuct5jlwpTVJ8hsnKQOhFH0h76RGtAqcY/tde016mYzVVAfoCSsfOmJq9sSA0oZDSwAObqQW3uPzL9GEEXtDUnDNaDlDKLYPSf2GbW/m1plQ28pUysLrZWbNzfZfpIOlLS/pPrRX4trs0zrTdrg5m+a2/rQ9ZbJ1oWpzMp9g3DlY4/dUE3FdsKcOWXauN+3Jf1UUh0CKVquwPurX6vHkjSoE074fb2wYb3XJLWkREDRo4GFkkcDC8Cee3T1+ZLdTxBFKyPpf7U1+KkGN99GHF+ioiLo9tyBbVx+lLnaKfD25tbepXaSGhfIXxFKWivZckkrzLXMU9kl1dU18xfM+taHFPkzTF1zpEKNk3QiYRTtrHmdyjNHq3ebj5I0rO69Rg12098oEFD0aGCBUzERANgjj6/bR5mwSjvuHkHxeU3uX9fAVvOI4jNUVATHv7Bve8umO5t5J7k6STpWpkZF/FevNmm+yxaYwgXZWn/5lVnXbmRnkFThgbqsvUHSryTVJZCiNE4DWiZurceuvUfNMuk0ygMUNRpYKHk0sADsmb+vuUuuSwmiCLnuVnmdq3m74D907jymLN0021EenGzSSS4/XVJTktFbJnvWpedk4bMvTb96nmResmlMXXOkQvuz5MewaxThkVHqk7RHqbueOfoYC32upBQlAooWDSyUPBpYAHbflDVnyPQEx5Kiuz57Vwqu0IAWj5R6EoMGVaZWv/9uJwust8l6a8fjYeXsI1/qPZmetlDTahVMmztj+NqSS2DmqrraElRI+p5463OxWaWyOkcnrbnfrfeo0ZKGUx6gaNHAQsnjohPA7pm2sYFqqxdJOpQwisoMZe0bOqfFhlIPolvvUT+TdK2kfdgt9thrMpsWZDVNW7c+/cIL3y6dtdQeXdNL0l2SDmY3KKop9O80oMX3kjSiU/retl9NpmyZ9I83lQIoKjSwUPL4RRDA7qmpuUU0r4rJdknf15wWZ9K8+j9dRfMqV9rL/Zth4I+FDeu907336MrufUZ/5aSzJzQq+r98QMsZCsqPlfQIu0Ex8W9ryuoTkjSiZx674V3JfkptAADFijuwAOy6R1Z1lwXPiSZ4sVyILVeQulD9my8mi3/o1nvU45LOJIlIbZc03c0fyIaph+bOGP5R8X7N3PT3tdfJ9TvxGGqxTKMXqmHzLuppmaSMqHPnMWWppuFr5mpDfYCiwx1YKHlcfALYNZWekgUjOX4UjUeV8W40rxCTupLONrc7Uxa+3b3XqClde48c1LnzmLKi+0vNXANa3q7ATpJsLaUvBn6MNq+7Pkkjmjt3eK1C/wm1AQAUIy5AAezi5ea6GyQdRxCFf+Ul1y2a2+Icndf6Q+JA3Eyq46YBJqtMNw3Xdu816vddzxxdfG/x699ijlJlXSQ9RdWLYcf1n2rq+mZJGtLLJ7/zV8kWUBwAQLGhgQVg5z2++iCZ30wQBW+TzPrq7JbfV4WFxIHEcR3opm9Z6Au69R41p1ufkcM6DxxTv2j+vn4HvauGLc6U6xaKXfAaKZv9Y6JGVFERmoU/oDQAgGJDAwvAzqu12yXtRRAFbYHcj9eAFtOIAgWis9zGpLf7m916j7q1a59xrYvir+ppGZ3d8vsy+6qkLZS5oF2gR9YMSNKAXpx+zWNym0lpAADFhAYWgJ3z93VnSbqAIAraXWoYnqCzW60iChQebyLpBvPMym69Rz3crdeYk4vizxrQ4q8KghMkvU6NC5jpNlWuq5eob4zrhxQGAFBMaGAB+HKVVeUKwz8SROFe+Uv6qQa2vEw9W28nDhTB3OVsWfhMt96j5nTtNfrSQYMqUwX9F/VvvlhlQVe5ZlPegtVadcPvJWlALz951Qtye4jSAACKaRIIAF+sXsNvSmpHEAWpWvJLNLBlBVGgCHU287vWfrhpcbdeIy8v6LcXntX8faVr+kj2Z8paoEzf14OrWiVpSGEq8yNJWYoDACgGNLAAfLGH3zhAEovBFqb3FVgfDWx1D1GgyLWX2cSyfcKV3fqMHNajR0W6IP+Kfm2rNaD51yX9lJIWpHoqCxK1MP8r066rknQ3pQEAFAMaWAC+5CiRukUs3F6I3pDCk9S/BY8koWS41EJuY7alD1jStffor6qiovDmOWaugS0rZD5UUi1VLbidcLCmrOqRpCGlstkKSTUUBwBQ8JemRADgcz26prOkSwii4K6AX1Rt7Qka2HopWaA0vwJqZ/I/d3/ugIXdeo0+pyD/hgGtJipUf0kfUdCCm17foZmemLsAn3/qujUuTaYuAICCP8MSAYDP5G4K7Q65ArnEp1A+9oAaZnvq/MPeYSdGyR/GpKNk/lC33qNmntBr1HEF9wec0/IJKXuaXBs5thXUp4M2rx2arFO6/0pShqMCAIAGFoDi8+i6wZJ3J4iCulz/ixo1/wpvGgT+Q4/QNLd779GVnXuNaVFQIx946ELJT5T0BmUsKD/T1BWNkzKYV2Zc84akv1AWAEAho4EF4D9VVpXLw5/zM3ohfcKxmtfy6+pp/MIOfDZz+aC0hVXde436Yd++t9UpmJGf3WqVLNNTCldwrCuYz/7KpL+TqEm/Bb+UFHIoAADQwAJQPOrWv0bSYQRRIFwjNLDVVaowLkyAL9fQTT9/P1O2pFvvEX0KZtQD26yV+ykyX0wJC4V9T1PXN0vKaF6YPnypS/dRFwBAoaKBBeBfPbiqiWQ/IohC4bfonFbXyczJAtglh0nBtO69R1ee2GfU/gUx4nMOfVsWnCbZy5SvINRTJnNzos4YQfZn4i4sAECBooEF4F+l9d+SmhJEIbCbdXbr75MDsAcX9PJBWddr3XuNulJyS/yAB7T8QNszfWR6nuoVhMv16NqjkjKYV6ZdVyW3RygLAKAQ0cAC8A9T1h0it+sJogCuuc1u1Nktf0YUQE7s46ax3XqPmn3i6WPaJH60g9t8pG31z5T0NKVLvJQ8+4tkTf79Z9qxUBcAAAWFBhaAfwjDH0mqRxAJZ/4DDWx5G0EAOf9ynZxNhfO69Rk5LPF3Yw3e/xNZeT9Jz1K3hHM7W4+sSsxbfV+YcfV8SY9TGABAoaGBBWCHB1e1kvkQgkj6hZD/VANb/5oggMg0ltuYbr1HP3pS79sPTvRIBx68VduzAyTNpWwJZ/Y/SRpOaMZ5BABQcGhgAfj/R4OfSioniCRfAPmtOqd1BUEAedEvo/Ti7r1Gn5/oUQ5u85Gs/CxJr1KyBHP10sOreyZlOK9Mv2q2aHwCAArukhUAHn6jncy+RhAJZpqoAa2+RRBAXu3j5vd36z1qcueBY+ondpQDD35PHp4uaRklS/Ss++fJGpD/kaIAAArrVAoACn4uKU0OCeU+WXNbXikzFt0F4nFJenv4Spc+o45K7AjPOfRtZf0sydZRrqQey3WiHl7dPynDybyf+puk9RQGAFAwV61EAJS4h9YdLekCucQnkZ/7VN1qiCosZGcFYnVkyvVC116jL03sCM9rvVqZTC+53ubYmdCP/Oak7C5z5w6vldlIvtoAgEJBAwsodZb5kSQjiCTyZ1RW+3UNtixZAInQ0Mzv6tZr9JgOgyqTuWbg+W2WK1A/SVsoVyJPusfr4VVnJWU0ZWXhaMnZVwAABYEGFlDKpqw6QrILCSKRXldZ5gL1a1tNFEDCmA9r8OGmmZ3PHHNQIsc3sNU8SV+RRPM7mTtQYu7Cevbv13xg0t3UBABQCGhgAaUstB9yHEik9xSk+qpf23eJAkgmk05Mh+GcrmeMPiGRAzyn1d/lfi2VSqTuemT16YmZCoThHyTxmDoAIPG4cAVK1YNr20i6iCASZ7tc52hg8xVEASTewQp8Ztc+o4cmcnTnth4j+a2UKZF+nJSBvPzkdcsle4ySAACSjgYWULLf/vAH4s2DSRPK7RKd2+p5ogAKg0l1zH18t96jblVFRfLmVfNbfVuuh6hUwrh66KG1pyTn5KM/UBQAQOIvYYkAKEFT1h0i6esEkbgr4Zt0bsv7CAIoSDd0e/6AyhNO+H29RI2qwkLVpL4m6UVKlLRZePj9pAzllSeuelLSqxQFAJDoUycRACUom/2mpHKCSBIfq7Nb/Y4cgEL+GuuCsGG9p07pe9t+iRrX4ObbpPBcydZRpETtL3316NqjkjIck02gKACAJKOBBZSaqSsay3QlQSTKSyrL3EAMQFHoXpNJP3t8r5GHJmpU5xz6tuTnSNpGiRLDlPXvJmUwYZi5S9J2ygIASCoaWECpqUlfI2kvgkiMt5VJX6h+bauJAigWdngQ2HPdzhjZMVHDOqfVfLldRX2SxL+mKa+3SMJIXn7yuk1meoCaAACSigYWUEqmrqgjs+sJIjEyMv+KLmi2niiAIuM6UIHN6tZrZPdEjevclpNlGk+BEqNM2VRizsvmPpaSAACSigYWUEpqyy6WdDBBJMZNOrv108QAFK29ZfZE914jeyVqVI38eslfoTwJYRqmytcTcWf0C09c87RYzB0AkFA0sIBS4n6j3MUnEZ+/6ZxWv2enBIpeQzd7pGuvkf0TM6KerbfLsxdI/i7H4kR8GqtOamhSdg8WcwcA0MACEK+HV/eU1JEgEmGpyjPDiAEoGfXM7IHufUYPTMyIzj1sncwukixDeRLA/XpVeioJQ2ExdwBAUtHAAkppcowEsE8UhueoX9uPyQIoKeXufl+i7sQ6u9VTkm6mNInQSnVWJWLfePnJ6zZJepCSAACShgYWUAruf6OlpLMJIgFc39T5bZYTBFCSymV2f7feo/slZkQLWv5a0kxKk4jzww1JGYq5WMwdAJA4NLCAUpAKrpWUIojYPajzWrG2CFDCTKoj+b3dzhzRMxEDqrBQ2cylkt6nOrHvHWfo4TcS8aj/izOuelrSG9QEAJAkNLCAYjdlQ33JhxJE7N5UWHYlMQCQVF9h8OgJfUacmIjRXNB2vaRrKEsS2LUJGYdLuod6AACShAYWUOzCmosk7UMQ8VZBHnxD5zfbRBQAPlU/9OCR7r1GtE/EaM5t/TdJkylLzFwXa+qKxskYjN1NQQAASUIDCyj6ybAPJ4TYLwL+V+e1fJIcAPybpm7B9M69xrRIxGhqtl4r1wrKEqsGqk5fnISBvPTEVSskzaUkAICkoIEFFLMda2l0JYg42RLt5T8hBwCfo1nafOoJZ46P/07ZwR0+USq8WFItZYnztKGrkjIUNx4jBAAkBw0soJi5XU0Isdou2VfUs/V2ogDwBQfrDmFY83CPHpPqxj6Us9u8IulX1CRWHfXIqu6J2DNrwr9IylISAEAS0MACilVlVUNJXyOIONnPdW7LV8kBwE4cL07eWrb9Lskt9qHUbP2FpCpqEqOsEvHSj1dmXbtRMh6BBwAkAg0soFiV1f+apMYEEZtFevu93xADgJ1l0uCuvUf9d+wDGdyhRqFdKSmkKrHtDBfpwVVNkjAUdx4jBAAkAw0soHgNlUt8YvmECu0qDe/COjIAdrFvYT/v1mfURbEP5PxWL8htBMfz2D715booCfvk9qD+/ZJv4dsJAIgbDSygGD3w+uFi8fYY+R91fqsXyAHAbjC5Jp5w5qj4j+H16/63pFWUJLZZ+jeSMIxF0y/dItkUCgIAiP/UCKAYv9pDyCA2a1S77WZiALAH6oWh7j+xz6j9Yx3FmQdukexayhETV3c9sLp9EoZi8r9QEABA7Fe5RAAUmQoPZHYxQcR2xTFMgzt8Qg4A9lCzbGh/HTSoMhXrKM5r9ZgkmhexzdT90iQMY+90ZppcmykIACDW0yIRAEWm4+o+kjcjiBi4Juu8Q6cTBICcMO+57sNNP4v/2Jb9pqRNFCQGoS5RpafiHsZjj91QLdM0CgIAiBMNLKDoLnh0GSHEYrMyuokYAOSSS//dtfeo82IdxPmHvSPXj6hGLOf0Q5Re3TsR+6L7gxQEABAnGlhAMZm6orFM5xBEHBcZ/jMNbr2RIADk+uhisonH9xp5aKyjyLQaJ9ciyhHHHqBLkjCMrFJ/l1RDQQAAcaGBBRST7enz5KpLEHn3usqztxMDgGh4k8CsssOgyvLYhjDYskrZN6lFLM7RtI0N4h7E3BnDP5I0k3IAAOJCAwsoJqavEkIc15bhN9WvbTVBAIhQ5wYfbfpJrCM4p9VMuXiMLP8aaOvW/ok43Yn6AwDiQwMLKBaVK/aT/AzJxSevnyd1fptH2QEBRM1c/93tzBE94+1gBN+V+XaO/Xn/JOIHKgvTD0nK8m0EAMSBBhZQLMqDQZLSBJFXWZl/ixgA5G3eFgaTTzhz/D6xjeCClm8o9FspRb5ZXz24qknco3jpySvflvQi9QAAxDMRAlAc3Hh8MP9G6dw2i4kBQB41C8PaEbGOIFX7C0lvUYq8qiPp3ISMhccIAQCxoIEFFIP7VzST60SesMjr50N5eQU7H4AYXNS198hBsW39nCM2K9RPOA/k++NfScLOl8oGD/EVBADEgQYWUBRS5/F9zjPX73V+s00EASAOJht5St/b9ottANnWkyQtoxJ5dYYeXbN33IN4/qnhr0u+nHIAAPKNC16gKK5k/DxCyKtNqpdlDRgAcdq3JlP++9i2Ptiykv8PZcirMlVnByRi2iGbTjkAAPlGAwsodA+sbyrZKQSRz5m7/Ub92n5MEADi5V/v1mv0ObFtftGhf5HEOoB5Pf8k4wer0DSNYgAA8o0GFlDwqs8Rbx/Mp3dVu3UkMQBIBPM7uvW9rXEs266wUBJ3YeW34Gdp2sYGcY+ifk04S1IN9QAA5BMNLKDwJ7M8PphPbr/U4A6fEASAhGimTNnPYtv6ea3vk7SAMuRNPW3Zcmbcg5g169pPJD1POQAA+UQDCyhklVUNJfUiiHzxN/WxRpMDgIS5ruuZo4+JZctmLtfNlCCvoSfjhytjHSwAQH7RwAIKWbpuH0l1CSJfk3X9Qpe33k4QABImZaGPkNxi2foFhz4i10uUIW/6aebM2JcOMDPWwQIA5BUNLKCgWV8yyJv1qt0+gRgAJNRJ3XqPuji+zfNGwjzaRx+06B73IF6cNmy+pHcoBwAgX2hgAYXK3ST1I4i8uVWDO7BgLYAEs9917jVmr1g2ff6hUyUtogb5mgMECTj/m5tpBsUAAOQLDSygUD30eidJBxNEXmyW2XhiAJBwB6TlP4xly2Yu+a2UIF95e/8kDCMMeYwQAJA/NLCAQuWp/oSQN+N0XusPiQFA4plf37nXmBaxbLtueI+ktyhCXnTU/W+0jHsQZVbLHVgAgLyhgQUUKvf+colP5J+MXLexwwEoEHXTQTae9aj6ta1WqBGcN/L0kZ0V98723BPXb3DT63ztAAD5QAMLKEQPrG8qqQtB5IPfpwsOXUMOAArnsGVf737mmE6xbDssGyVpC0XIS9hnJWEUgetZagEAyMs5hwiAQpyz1pzB9zdfR0n7AyEAKLQjl4f+q1i2PLj5+5ImUoJ8sJ6aOTMd/zicBhYAID8THCIACnHOqjMIIS85z9J5h75MEAAKj/c5vvfoeM4V2eAPkrLUIHJ76f1Wsd+NnUnpGUoBAMgHGlhAQTIaWPnJ+Y9kAKBgj2Dyn8Wy4cGtVsntYSqQD94r7hHMefzq5ZLeoRYAgKjRwAIKzYOrWknehiAi95b2Xv13YgBQqEw6sduZI3rGtPmxVCAveiVgT3OTnqMUAICo0cACCk2Y7cOrl/Lyeqfx6tkzww4HoLDPGcFPYtnuklZPSL6ac0nknxNUWdUw/h3NWAcLABA5GlhA4X1tTyeD6C/5FBiLEAMoBj1O6D3ytLxvtcJCyTmORq9cZXVOiXsQ2TDLOlgAgOivhIkAKDR+KhlEnvETOq/1anIAUBRHNNmPY9ryJLGYex5ittjnBQ2y786XazPFAABEiQYWUEgeeP1wSQcRROQXA+MIAUDRHNKkM7r3GdMt7xu+oO16SY9TgcgLHPsdWLNmVWQU6CWKAQCIEg0soKAmqcbdV9F7W5s+eIQYABTV6cPDb8ayYQv5QSB6x2vKhvrx72R6gVIAAKJEAwsoLKcQQeTu0vAutcQAoMhc2LnXmBZ53+re6/8u+Qbij1S5tm/pGvcg3HwepQAARIkGFlBI3E/hhUuRflyu8exoAIpQOi2/Lu9b3fE21zs5v0T8sSD2O7SzYYoGFgAgUjSwgEJx/4pmkloTRKRe1oVtVhADgKJkPrxb39sa5327nrqb8CMX+x3ac2cMX+vSu5QCABAVGlhA4Vx5nEQGUUds9xICgCLW2GrLv5H3rV7YeqmkJcQfqe6q9FTsp1HZfEoBAIgKDSygULh1I4RoE5Z0HzEAKO5TiV8dz4a9kvQj1VDBqg7xDyOcSykAAFGhgQUUDhpY0XpeFxy6hhgAFLn2J/QZcWLet5qyvxF9CcwTLGAdLABAZGhgAYVgzJwySccRRJS4OwBAaQg9uDLvGz2/zXJJC0g/0vNY7A2sMAxpYAEAIkMDCygEezfpKKkeQUQ351aYvZ8YAJSIr5zcf+Teed+qiR8KohV7A+uVGVevkvQ+pQAARIEGFlAIjPWvIvasBrd7kxgAlIh6tTX6Wv43m/2bdqw3iGgcqT+taBzvEMxNYiF3AEAkaGABhcB0PCFEGjB3BQAoKS4bmveNXnD4G5JY5DvKeX096xz7vuXGY4QAgIhOdAAKQSciiPA6riz9IDEAKCUmHdftjNFHxrDhB0g/0ql9/PMF88XUAQAQyVmOCICEm7qijqT2BBGZhTqnxQZiAFB6s8DwK3nfZjZ4jOAj5H5s3EMIw3AphQAARDJ1IQIg4T6xoySVEURUk31xMQWgNA9/ZhdLbnnd6KBWC+XOjwbROTbuATTI6jWx1hkAIAI0sICks+A4+adTQT65/wT2ODsZgJI8vbjaHH/GyC753ai5ZNM4/0T2OUKTVtWNc7+aNevaTyTxYhQAQM7RwAISL/7HAYrYx3rv/ReIAUCpSlnw1bxv1PjhIEJpNQqPin0UJh4jBADkHA0sIPmOI4KIuJ7Q8C61BAGgZA+Dpgvz/hhhdeoJSRnSj4rFPm9w+WvUAQCQazSwgERfWbhJOpogoprjcxcAgJLXvPuZY/Pb8Li45QdyvUT0UQk7xn56VcAdWACAnEsTAZBg977RXOaNCCIirumEAIBjYXi2pHl53ab545JOIvxIzm1Hxj4Gy74m53dyAEBucWYBEv0NDdsTQmQWa3CbtcQAoNSFrrPzvlHeABul2BtYGaW5AwsAkPvLYyIAknxVoQ6EEJmZRAAAkknHdT9rVKu8bvTVNvMlfUj6kThQlev2iXMAc6cNf0vSB5QCAJBLNLCARF9VGHdgRcX1PCEAwKeHxKz3z+sGKyyU9CLJRyRVnYT5wzIKAQDIJdbAAhJ9RaH2MmKIRJYGFr5YvdrwwkwDKyMJlIJtQao6hs0+J+ks0o9k/nDkp/nGeQztzTEUyOFxujoVkgJKHQ0sIMnM24sOVhTW6quHrSMGfJFZs679hBSACAV6TlyORcPjv4ObYygAIPdTBwDJ9MDK/SXbhyAiwd1XABC3LVtellRLEFHwI8gAAFBsaGABSZXxNoQQEfNnCQEAYnbpMVskLSSIKM5zYg4BACg6PEIIJNdhckKIhPtzhAAACRD6szLrQhC5Ps+plSo9pcGWJQwAQLHgDiwguZNPfj2Nxmap7WJiAIAEMPGDQjTKlVrVjBgAAMWEBhaQ2G9nQAMrGi/zizQAJEQ2y5qEUQn9MEIAABTVJTIRAAnlTDyjyVVzCQEAEuKrR2yQ9DZBRDKP4IcwAEBRoYEFJBcTzyiYLyEEAEgUHuuOAksRAACKDA0sIImmbKgvaT+CiOKol+KNVwCQKLaIDCKZ5bciBABAcZ3aACTPtu3NCSEStQq3LSUGAEgS5w6sSGIVcwkAQFGhgQUkctLpTDqjsVSDO9QQAwAkSOjcgRUN5hIAgKJCAwtIInNefR0F5yIJABKnsaokZQgi5w7SzJlpYgAAFAsaWEAScdt/VIc8HlMBgKTp17Za0gqCyLmUNjY/iBgAAEVzNUcEQAKZuAMrkiMed2ABQEJxfI5Cmh/EAADFdFoDkDyuQwghAlktIQQASOR5b4mkrxBErnNlSQIAQPHgDiwgmbjlP/e266I264kBAJLIXieDKGINmE8AAIoGd2ABieQHkEHOZ/FrZObkAABJPO2Fq2TEkHNhuB8hAACKBQ0sIHGTeDdVrmTCmftgV5MBdkW7Ttf9UNIxJIGSPGKGPn35ghHj87bBIL1azosIc85s/7iHcPhx133fTJ0oBrCnlwjauHz+HTeQBEoZDSwgaf68tonSKieInM/iV5EBdm2mqFMknUkQKMkjpqmupPw1sAa1eluVK7dKqk/6ORX7Hd0mHSvXIEoB7LGVRIBSxxpYQNKUbdufEKLAHVgAsNPMWud5ey5pDcHnXOxzCnd9RBkAALlAAwtIGg9Y/yqai6PVhAAAO3su0qFSnlelMnGczn0dY29gWeA0sAAAOUEDC0jeZHNfQohANuTCCAB2Xv0Ox1+T3x9UXDzqnWsWfwNLHnxMIQAAuUADC0jcZDNoSggRqBNwYQQAuyBbmz40v+c/HvWOQENVVsW6rqaJO7AAALlBAwtInsZEkHNbdV6bd4kBAHZeaNkW+d0iL9uIRvlesW7enTuwAAA5QQMLSBoP9yaEXGeqjZ8uEAwA2ElmOjDP09KNpB5FrEGTODcfyrgDCwCQm1MaEQCJu2JoQgi5ztQ3EQIA7CIP8tvACrMcq6OQUazzCvOABhYAICfSRAAkTKi98vzepxJg75EBAOzikVN+UF43WBNsUjk3y+Z+XpFtEufmg3T2ozBkYgMAyME5hQiAxF0xNCGEHHPxqz4A7OqhM9+PENZts0lSSPK5nu3He2d3wBpYAIBcnVOIAEga24sMch2p0cACgF3llt8G1mDLSuJxs9yLdV5R7SlqCgDICRpYQPKuGOqTQY5ZyCOEALDr56M4XirCDw45L2O884rU1nrbKQIAIBdoYAHJQwMr55N37sACgN0Qx507/OCQa2axziuqD3qnliIAAHKBBhaQPDSwuCACgCRoJFXkd67II99RqBfnxlfvt4UGFgAgJ2hgAUlj8U40i1LIBREA7M4Z6bBumxrmdYvuHK9zX8Z45xX33psVi/MDAHKABhaQNE4DK/dHOttMCACwG6ekMJvvxwh5Y13uq9ggAYPIUAcAwB5f1hEBkDg8QphroVUTAgDsujo11jjPm+R4nXtJ+GGshjIAAPYUDSwgSSqryiWlCCLXapk4A8BuqFFQntcNGg2s3PMkNLC4AwsAsMdoYAGJ0pjmVRTSzgURAOzeRLEsrxsMxYLfOWdJmFtQVwDAnl/WEQGQJB+n8n2tUCKTd+7AAoDdOXqa5/ekFITVciP4nBYxEfN9GlgAgD1GAwtIlLopeZYYcn9FRAMLAHaD5ftXFVe1nNxznCl3YAEAiuOqjgiAJNnOI4RRqGFNFQDYHSbP923B/OCQe0mYW7AGFgBgj9HAAhKlnAZWFGrTXBABwG7IxnEHFnIdKndgAQCKAg0sIFHSNLCisKYVDSwA2A2pfDcenDuwcp+pxb5kiLNsCQAgB2hgAUmSreY7mXuhKiwkBgDYjQOop/L86Bcv3ch9pBb73MLkNLAAAHuMi2UgSWrTrBERxXGuwjnWAcBu8HQmz49+eTmp5zzTBLwdxmhgAQBycGEHIDlSZawREYWWq7kgAoDdOS3l+w6swOqQeq4l4vXGNLAAAHs+TSACIEEabuMOrCg0CLkgAoDdELrn+bzEHVi5Z0loYLHGJwBgj9HAApLk/TrcgRXNJRgXRACwGzzQJ/k9XIsfHHKPO7AAAEWBBhaQJA1a0cCKQg0XRACwWzKZzXneIj84RFDF2EfgLOIOANhzNLCAJBlsWUm8MS/XjEdSAGC3Dp/bG3+c3w3yg0ME4r8Dy1jEHQCw52hgAcnDXVi5luKCCAB2gy9bVn9Lnqem/OCQe0lYX7OMMgAA9hS/hgCJu1xQRqLhklPcgQUAu3E+8k+kivzeFeyc/yKwLc6NH3bY9XUkHiEEAOw57sACkoc7sHItywURAOwys/fzv03WwMo5t1gbWOl9woYUAQCQCzSwgOTJEEHOL8L2IgQA2OWD5zt536SHTcg912X0rXFuPpVNN6AIAIBcoIEFJM82Isj1BZE3JQQA2DVm/k4MW92H5HN+Eox1XlHjtTSwAAA5QQMLSJ6PiSDnRzoaWACwizxUDHdgaT+Sz3WmQax3YAUe0MACAOTosg5A0maaH5FBzg91+5IBAOwii+ERQuMHh9xnGu8jhCajgQUAyM1VHREACeMBDaycZ8ojhACwyyzcGMNWOV7n/BxosTawQg9pYAEAcoIGFpA8PEKY88k7F0QAsKtMwdq8bnDMnDJJjUk+14X0D2PdfCDeQggAyAkaWEDivpU8QhgBHiEEgF3k7vltYO3dtKkkI/kci7mBJbdGFAEAkAtpIgASJgw/ljF/z+3k3bgDCwB2kQc1q/N7/tu2r5Qi+NzPKz6MeU/al74kACAXuAMLSB4eIYxk8gwA2AVbl88d+15etxiW8WNDFFLpD2PdPgvzAwByhAYWkLhvJYu4R+AAufPzLwDsJJNW53+j4YEkH4EwjHde4bYPRQAA5AKPEAJJk/WPuNM+5+rqT68dKOktogCALxdKS/O+UVdrOdnnPNWDN3wY6whMTakrACAXuAMLSN63kjuwopC21oQAADvJPIYGlrck+JzbrJ49M7GOgDcBAwBydqkMIGEXDeE7hBCBbKoVIQDATvJgWQzTUn5oyP2k4u3YRyAaWACAHM0UiABImDC1kRCimEF7K0IAgJ09F8XwCKGcBlbuM30n/l2JBhYAIDdoYAFJU1aPdZqiYGpFCACwUzyTrs7vHVg7XrTRguhzfu57J/4haG8KAQDIBRpYQNIMbr5NYh2s3F8c0cACgJ30xhtzx+b3PDR5+cGS6hJ9joXx3oF1RNdrm0oqpxAAgFyggQUkE48R5h6PpgDAzlmQ9y2meMw7GjGvgZW1g6kBACBXaGABieQ0sHKvhSqcYx4AfBnT/BhmpPzIEE0t3413OiMaWACAHE4XACRxxsk6WLlXrkOX8Yp2APgSHnr+G1huh5F8FLnG+4OYiwYWACB3aGABSWTGHViR5KqjCQEAvuwUZAti2CzH52iKuTbWzYd2EEUAAOQKDSwgiTykgRXJES/oSAgA8IXWLJt/x4YYtsvxOQphdl3MI+AOLABA7i7niABIIOcOrGhydX7hB4AvOkxKz+d9o5MXNpB0KOnnXK1eb/92zHsUDSwAQM6kiQBIpPVyQogAv/ADwBcIpBfyvtFU3Q5yflSNwAZVWBjnANx0CGUAAORwngIgcUJ/gxAi0VaV6+oRAwB8No+jgeU6huQjsTYBY2ANLABAztDAApKobru1kmoJIudSqv3kSGIAgM+0pWFQszCG7fJ4dyQ81vWvDjvs+jpiDSwAQA7RwAKSaLBl5Yn45bT4hCkeIwSAz2TPzJ07NoYfT4wGViSx2uo4N5+qH7SSlKIQAIBcoYEFJPfbyWOEkWAhdwD4LOb+JMflYjrd+euxbj6VZWF+AECOL5EBMPEsrWA7kQEA/CdL+VN53+g9r7aU1JT0I5lHxPtDmDkNLABATvEWQiC5VolXEUYwoVZXVVaVa3CHGsIAgP/z/mtz91uQ9626ncS5LqrzXXplrNt3taYIAIBc4g4sILl4hDAa9VSbPpYYAOCf+VNSRZj/7dpJZB+J7Vp52IZYLzLcuAMLAJDbcwsRAAmVSvEIYXS4YAKAf+IKpsS04ZNJPxKrVGFhrPuUiQYWACCnaGABSZUKuAMrumk1DSwA+Icwm619PO9b/dOKxjJ1IP4oWBJ+BOMRQgBATtHAApJqcJuP5HqXICLgOpEQAOD/vPT6otHv5H+zme6SUsQfxXnOl8a5+aOOuvEASY0pBAAgl2hgAUlmqiKESByke5bzaAMASHLpkXjOccbjg9F5Nc6NZ9LZ9pQAAJBrvIUQSPRVhS2RvAdBRCD0k8RC+QCgdOjxrH8Vsh5hdPOHINYGlpu3l4w6AAByijuwgERPQJ07sKJirIMFAJKWvrpwRP7PNTNnpiV1Jf6I1E3F+gihy46kCACAXKOBBSSaLSGDyPQkAgClzl1/jWXD6w/sKqkhFYgmXQ1u81GssxcZjxACAHKOBhaQZHXTiyU5QUTicN25og0xAChlodm98WzZziL9yLwa/xCcO7AAADlHAwtIsh2/oL5JEFEdAUMuoACULtOSlfNvj6vZwfE3Kh5vA6vVsd9sIukgCgEAyPnlGxEAicdjhFxAAUAU4nl8cOKK/SR1Jv6oZve+IM7N17VaHh8EAERziiMCIPFoYEXFvKduW1GHIACUoDBtqbtj2XI6PIs5aIQ8WBDr5lnAHQAQESYPQOInoryJMEINtJefQgwASo1JT1XNvXVtTCc27n6NTo3qZF6LddoiHUMZAABRoIEFJF1KiwkhyqNgti8hACg1brorlg1XeCBTHyoQmVc1uENNnAMwqRNlAABEculGBEDClYWLJVUTRGS4EwBAaXHfXCdT98FYtn3oiuMl7UsRIjM/3s1XBHLvSBkAAFGggQUk3eAONVK8C7IWNztSk15rRQ4ASuewF/xp0aLfbYln2zw+GLGFcW68XccP2sqsEWUAAESBBhZQCDx4mRAiVKYLCAFAqciGGhfjCe1CKhAlmxfrdCWVOY4aAACikiYCoCC8IieE6GbcNljS/xIEgBI44D2/cuEd8TxmNmnZEXI/ihpEplbbNs+NcwDmdpyMQgAAosEdWEBBXG+ELxFCpLrqzhVtiAFA0TMbFdu2U+FXKUCkFmt4l62xTldM3IEFAIgMDSygEFx6xApJHxBElBdWWR5rAVDs3q1u/Ml98W3eBlGCSMX+Y5dJx1IGAEBUaGABhcDMZf6K5OIT0cd9MDsagOI+lWjk6ll3bo9l43cvO0by9pxvIj2PxdrA6tD5xhaS9uObBgCICg0soFC4s5B7tDrpnlfbEgOAIrU9XZOK7/FBD79CCSIWBrE2sGrDzIkUAQAQJRpYQKGw4BVCiFg24C4sAMXqziVLbn07xu3z+GC0PtKaw5fHOk0x604ZAABRooEFFIpMljuwIsdjhACK8+AWWnhbbFu/87XOkg6jDBEyf14VFsa7l+kECgEAiBINLKBQXN5ho6TlBBGpjrpraUdiAFBkHlgxb+RrMc42L6YEEXN7Js7NH3bY9XUkHUMhAADRTikAFJJZRBAx8ysIAUARcbPgV7FtvbKqXNLXKUPEQpsd5+ZTDb2LpDoUAgAQJRpYQGF5mgiiZpdozJz65ACgSExZOu+2ubFtfbudL95MF7Vt+jg1J9YzJ+tfAQDygAYWUEjMZxJC1LyJ6jY8nxwAFMURzcOfxzuAgLtao/eSbmhbHWuZFdLAAgBEjgYWUEguOfItScsIIuojo19JCACKwNTlC0bG9wbbyUtby7wnZYjc7PiHYCzgDgCI/jKNCIAC45oll/hE+Al1iu5e2o6dDUAhny2yof0o3hH4FXIFnFeiPmeFsTawOnS65jBJh/CVAwBEjQYWUGjMZxFC9CkrZDF3AAXtLysX3j4/tq3PnJmWdBlliNx21W/8fJwDqA1T3GUHAMgLGlhAocn6LO34zRXRuky3reCNSgAKUW3awptjHcH6AwZIOphSRMz1jAY33xbrGHhMFACQJzSwgEJzeYeNYh2sfNhXTWrPIwYAhcfGV80buTLWIYQaRh3yMZP3GbHvbVIPCgEAyMtpjwiAQrw24W2EeQr622QAoKC4b06nsz+LdQx/qjpSsrMoRj5OU4q1gXV45+uOkHQQhQAA5AMNLKAQhcHjhJCPC0EdrztfPZUgABQKk/2s6pWRG2MdRNa+I8moRuQ26fX2C2Ld30IeHwQA5A8NLKAgv7nVT0qqJoh8zM7tO4QAoEC8nvnEbo91BJOqDpTsYkqRD/6kKiyM+RxJAwsAkL/LYCIACtClx2yR9DRB5MVATV7enhgAJJ77d1auvD3eHzeC4HpJvAAjH8wei3sEcp1GIQAAeZtmEAFQsDPXqWSQrwl69kZiAJBw05YtGPFwrCMYM6e+pOGUIi9CZcNYlxNo3/na4yTtTykAAPlCAwsoVNlgCiHkzWX68+IDiAFAQm3LBnZt7KOo0/AKSU0pRx6Y5n76VuLYhG59KQQAIJ9oYAGFasjhb0haThD5uSxTbfpqYgCQSKZfrJx7++uxjqHSU7LwBoqRJ66/xz6GkDdNAgDyiwYWUOgTWJf45OVzjSYvbMBOByBhlmc/tt/FPoqtyy6QWxvOFXn6hEGsywgc1u36xjLvxtcPAJBPNLCAQub+GLP4vH32U1h2LTsdgAQJ3eyK2Bdur/BACn/EeSJfH72jNYfPjbPkqRr1kVTGVxAAkE80sIBCtrlstqTNBJE339OEpY2IAUAy+B3L593+TOzDaPXqVyUdTT3yxPxRVVgY7yBC1r8CAOQdDSygkN3QtlqmJwgib/ZVEH6TGAAkwKp0jf8w9lHMnJmW7CeUI49cD8Q8ApPsTAoBAMg3GlhAwU9k7T5CyOu0/Tu6Z9HeBAEgRqHJLq+qGvlJ7CNZs/8lkg6nJHmzWV7vyTgH0K7T1UdLOoRSAADyjQYWUOjqh1MkbSOIvNlLmfS3iAFAfPyOpfNvfzr2YYyZUybpR9Qjj8yn6PLW22MdQpgeQCEAAHGggQUUusEdPpE0jSDyee2ob2nywv0JAkC+mfTqlrrl30/EYMrrDZXsUKqSVw/Gfgo0P58yAADiQAMLKAZu9xJCXjVUWPYdYgCQZ9Wh7GvrX/hD/Hfd3raijsx+QEnyarsyqVh/sDqs4/XNJHWiFACAONDAAopBWfpRSdsJIq+u1V3LWAMEQP64blo+//aFiRhL49prJDWnKHmt/zQNPSLWNw+nUjpfklEMAEAcaGABxeDrbT+WbDpB5FUDKfsrYgCQJ48tW3DHbYkYyfiqfcTaV3HM2v8S/yD8HAoBAIjvVAigOFjIY4R5n8fr67pz6UkEASBi6zyouVSSJ2I0afuFpH0oS15tldU+GucAjuh6bVNJp1IKAEBcaGABxSKTelg8RphvJoW/kzuPUwCISq1cX10+d+x7iRjNnVUdJF1BWfLuYV16zJZYR1ATDJSUphQAgLjQwAKKxdAjNsv9CbnEJ6+f7pr06sXsgAAi4fresgV3PJec8dgf5Epz7M/3x/4Sf+l1Ll9IAECcaGABRcX+TAZxxG6/1uSFDQiiyPoGrlpSQLzHFt2bmHWvJGnSq+dK6k1h8u4DbU7Hus5lu3b/1UjyPpQCiPOUwLwEoIEFFJMGjR6W9CFB5N0hypbdRAxFdoI0fUIKiNHCOpm6lysp617dtqKOpN9Rllg8qBvaVsc5AK+/5VxJ9SgFEKvNRICSn58TAVBEBjffJtnfCCIW39Wk11oRQ/FwGQ0sxGWTp7PnL1r0uy2JGVGjzLcktaE0cRyMbHLcQzDZRRQCiP2bSAMLJY8GFlB83+q7CCEW9SS/gxiKaJrozkQRcag114XLXxn1RmJGNLmqheQ/oDSxWK3Lj5gd5wA6dPjWPpJ6UQog9nnJx6QALnUBFJdvtH9B8qUEEYv+mlQ1iBiKg8veIgXkfb9zv2bpgjtmJWpQWd0hqRHVieWS9U6ZxfoYabZO7YWSyqkFEPP5wWwjKaDU0cACitPdRBDbxcZtGl+1DzkUg3A5GSC/Fyf+y+ULRoxP1KDurLpYsoFUJ55dQp6K/Xzurq9SCiAJRwRfRggodTSwgKL8ZqfvkpQliFgcqJT9lhiKYJ6YMiaKyKe/LZ834keJGtFdrzWVB7+nNLFdrM7SkMNjfZS0fedvHiTpFIoBJGF+HzIvAV8DIgCK0DfavSnpSYKIzeWa9Cqvmi9wjVTzunhlNfLApNnZzfYNJeWNg/9f6H+QfH8qFNs0PfY1LcNsZrCkFLUAEiAT0MACZ0YiAIr2kojF3GO9HtVYTV7YgCgK19y5Y2slzScJRHy4WFSWyZ67cuXt1Yka1sSq0yV9nfrE5iOla+5LwNnsEkoBJMI7yxbdsZoYUOpoYAHFqkHDByV9QBCxaaVs2c3EUOhsJhkgQq8HQeqsxYtHJetYPXlhA5mN145mPOJxjy49ZkucA2jf8YajJHWmFEACZiPSU0raXbpADGhgAcVqcPNtUnjXjnMdn1g+5t/SpCXHszMW8ITRnAYWorJBWfV+be4fk/e2y2z6F5K35jge4ycMx8a9G4SBD+VrCiRlQiLmI4BoYAHFLWsj5Aq5FojpEyott79owlJeP1+gyjN1n5W0nSSQY5tSofdZtuiOVYkb2aRXe8t1A8fwWD8vauhRC+PcDTp3HlYm84v5qgLJkDFjbVtANLCA4nZFh5Uym0EQsWojy/AWrwK1aNHvtkj+KEkghz6UdNarC0dUJW5kY5btK/ld4tHBeLnGxD2EzV42QNJ+FANIhJdXzr39dWIAaGABJTAR9pGEEDe7QhOqBpNDwdbvbjJAjnzoHvZZNv+OOYkcXVlmvFwHUaZYfaTMtsrYj3quyykFkJBZiDEPAf4/GlhAsWt45KOS1hJE3LMPjdRdyw4hiMJz0F77TnXpbZLAHvrIPeyzfMHIVxI5uglVV0k6hzLF7k4N77I1zgEcddSNB0h2FqUAEiGTrgnuJQZgBxpYQLEbbFlJowkidk2VzdyjCue4W2BmzarIBNIkksDus/fMgjMS27waX3WYTL+lTrFzpYLY75rOpLOXSCqjHEAi3L9kya38iAZ8igspoBTUpseJhaiT4DS1ePXbxFCAX6Fs5g+StpIEdsNGC/z0pfNum5vI0Y2ZU6ZAf5bUkFLF7lF9o/3ymMdgbrqSUgCJ4LLsL4kB+AcaWEApGN7uPZnuJ4hE+IXufK0zMRSW1xeNfselCSSBXbz2WJ228JSlc+9YnNghltX7laTjqVUCmN0e9xDaH3ttL0mHUwwgEQeFR5bNG7WIHIB/oIEFlIowGEEIiVCuMLxPd73WlCgKSzYd/lbSNpLAzl13aIlkJ1XNG7kysWOcsOQCSdwVmgyv6rL2sb81OGt2FaUAEsEl/zkxAP+KBhZQKoa2f0Gy5wkiEVopE/5NlZ4iisLx+isj17n81ySBnbjueN7S3mPZ/Ds2JHaIE5a2k9lESUa9EuFWmXmcA2h33HUHmzSQUgCJMDGxb6wFYkQDCyipayr9jhASwnSGPnn1pwRRWMLNwS0yX0YS+AL3V++15YylL4/YlNgRTljaSJZ9SFJjypUI76l225/iPy3ZcLF4O5AE72dl/00MwH+igQWUkiHtH5L0GkEkxg8+fYQHBWLlyturTXajJCcN/DuX/++y+fsOXj3rzuS+NMPdZNmJko6gYonZcUZoeJdYXxLRo0dF2uVXUAwgEYfp76+cf/u7JAH8JxpYQCkxc5n/gSCSUxGZTdK4xe2JonAsnXfHNJfuIAn8k4yZXb98/ojvShVhokc68dWbJF1IyRJjq6w89jUq3/po07mSDqYcQLzc9ejyBbePJwngs9HAAkrN5jqT5XpLLvFJxKeRguBB/WkFj/IUkHCzfU8Sa1NAkr1nsl5L592e/KbmxKrTJf2c426SPjZJQ9om4U4LFm8HYuer62Szl4q7vIHPRQMLKDU3tK2W63aCSJR2qq6ZIHcWUy4QK1feXu3p7FckfUgaJXypIVV5OtNt6fzbn078YMctbS3X3yTx8ojkyCqVjf2u6Hadru4o+emUA4hVdRjoosWLR31AFMDno4EFlKK65SMkfUQQiXKhJr76S2IoHMtfGfVGYNZX0lbSKEX2cCaoOWn5K6PeSPxQx7y+l4LsI5L2pW4J4rpPlx39evzDCL4l3kYJxCmU+aUr5o54iSiAL0YDCyhFX2/7saQJBJE439fEqmHEUDhem3f7i2Z2kaQMaZSMjOTfXzb/9vPemDs2+T8EVFaVq6z6IUlHUbpEcQX2m7gH0abjVfub20WUA4iR+XeWzRtRSRDAl6OBBZSqMPMHSbUEkbhLmhEaX3UWQRSOpfNun2JuV0rKkkbR2xjKz1g2f8QtKoQ1StxNH2uC3HtQusSZqiFHzot7EOlU6npJdSkHENe0z29eNm/EH0kC2Dk0sIBSdeUx6yW7kyASJy1TpSZVHUsUhWPpgtvvNLPBkraTRpEyTU+nw+NWzB8xu2DGPOHVCpm+TvGSuD+FsT8y3uyEb9WTAhZvB+IRmnTD8vkjfkYUwM6jgQWUsoz/XFI1QSROI4X6uyYubk4UhWPpvNsfMNlZYn25ojtSmumny+bt27fqlZEbC2bUE5d8VaYfU75EmqYhRz8f9yAabK+5THLWRQPyr8blFy+dfwcvVQJ2EQ0soJQN77BW0iSCSKSD5cFUjXl9L6IoHEvn3/60B+ouaTFpFIUVkk5YOu+OCqkiLJhRT3ztNLlNEgtzJ3X2/YsEjMIku4FiAHm3JjA7bfn8EX8lCmB3TqEASpuFv5S8esdyLnwS9jlK6W33a9Iq1icpIMvn3rF0S92ybmYaRxoFy2UaWSdb97hl8++YU1AjH7eoszx8WPI6HEMT+Zmpyzs8E/duckSn6wdIOoKvOpBXj6Rryjq9Nu/2F4kC2M1LVyIAoAlL7pB0LUEk1qPKbD9fw7uw6H6BOeK46y5w6Y+SmpFGwVjnsiHL598+o+BGPv7Vo2ThLElNKWNCBXZqEhpYhx933QsmdacgQF68b2Y/WDrv9rEqhBeAAEk+jRIBAGWCX0i2jSASa4DK6v5VFTPTRFFYls6/4/50Tdje5f8r3vqZdC7XpNqg5ujCbF5VHSYLp4vmVZJNS0Lzql2n606neQXk77ySlR2xdN7tY0TzCthj3IEFYIcJVbdKznoYyTZZ6zpcrgoLiaLwtO10TfvAgx9J+oqkFIkk6QpDKyW/avn8EU8W5B8wcXFzuc2W1IpqJnnWbd01pMNLcQ+j3XHXz5D8DAoCRHdacdff5fY/yxfe/jJxADk8lRIBAEnSpKoDlfXXJdUnjEQbqSuO4nHPAtah0zWHZTz4vqSLJbG+Wbxq5frNlnplv1j/wh8K8y7UUQv3V3nqaTnrGSX7ctYe1JUdzo97GO07Xd89dH+BggCRyEj+UOj+ixULRi4gDiD3aGAB+IfxS34v6VsEkXi/0RVH3UQMha3Vsd9sUq7sIDO/RNLJnJPz7ukgG1z32qLblhTsXzBm2b5K1cyU7CjKmWihFByjK46MfV9rd9y1j0g2kJIAOTVP5neX1aT/smTJrW8TBxAdJssA/u1iqHaFpCaEkfij9/9o6FE/IYji0KHzjS0yYdhL7j1lOl3SwaQSmXUy/+6yeSMqC/qvuOu1pqrJTJdZJ0qaeH/WFUddHPcg2nW6uqM8tYD5P7DHNkma5a6nAvcZSxeOWE4kQL4ugQDgn41fcpOkXxNEQRzBR2hIh+tlxqKgReaIY7/ZSkGmnYc6QmbtpLCZZA0k7SWpsZw1tHbj++KS/6VhUPuruXPHbi3ov2Xc4gNkNl1SRwqbeDXK+pEafvTrcQ+kXadrf6PQLqAkwE6dMz6Q9ImZPpG0QaGWK7BlFtrS1xbs87pUwXqkQCxfTQD4Z5NW1VV2y1JJLQmjII7iY7Wuw9Us7A6UiDFVLZTyGZLaEkYhHKP9fzX06O8SBAAAey4gAgD/4vLW22X2Q4IoEK5halZ1typmpgkDKHLjFrZWymeK5lWh+EDp9K+IAQCA3KCBBeA/DTnyz5LmEETB+Jqa7feAbltRhyiAIjVucXsp/YykQwmjQJj9XN9ov4kgAADIDRpYAD5r0u0KQh55KCwDVb/6QVU+X48ogCIz8dVOMpst80MIo2Cs1pbyEcQAAEDu0MAC8NmGdHxa0hSCKCh99XHjqZo0vwlRAEVi4qLTFPpTkvYljALi+oFuaFtNEAAA5A4NLACfz7Lfk1RLEAWlh7Jlz2nSa62IAihwExYPVhg8LvlehFFI5049rys6/JUgAADILRpYAD7f0GOWSTaeIArOkcpmX9CExV2IAihQ45b8WG5/lVSXMApKKAuul5kTBQAAuUUDC8AXq8n+ULJ3CaLgHCi3WRpXdQ5RAAWkYmZa4xePlulnkoxACoxpvIYcOY8gAACI4jQLAF9m/JIr5BpHEAV5mM9K4bd15dG3kQWQcBOWNlKYqZR0FmEUINfHKrN2urzDRsIAACD3uAMLwJdb32GiZC8QREFeUaUku1XjloxRxcw0eQAJNWrBIQozs0XzqpCPtz+heQUAQHRoYAH4chUWKrTrdtzNgwI1TAfv/xBvKAQSaPyrpyqdnivpWMIoVL5EXj2SHAAAiA4NLAA7Z/iR82Q+hiAKmHl/ZcoWsrg7kCDjqobJwxmSDiCMguWSrtfwLry1FwCACNHAArDzasIfSXqHIApaC4X2jMZVXU4UQIx+/3w9jV8ySfIxksoIpIC5TdKVR88iCAAAosUi7gB2zfjFQ+SaQBBFcQoYq73seg3uUEMWQD6Po1WHycMHJB1NGAXvfaVqj9CQTrytFwCAqK9eiADALnE3jV8yS9KphFEUnlOYGqThR75FFEAejF/cX667Je1NGEUxkx6qK46eSBAAAESPRwgB7OJk3VyhXyeJu3aKw0kKMnM0fhENSSBKFTPTGr/of+SaIppXxeI5DT1qEjEAAJAfNLAA7LrhHRdL+iVBFAs7WG6zNG7xraqsKicPIMfGv9pSzfadKbcfibvfi0W1UsEwmTlRAACQHzSwAOyeN9/7heTzCaJomKQb9FH4nMYuOJw4gBwZv2iQPLtArpMJo4i4/VxDOrxKEAAA5PeCBQB288Ks6jh5+JJ4g1ax2SbXf2vY0bcSBbCb/rSisbZtHynpYsIoOosUVnfR8C61RAEAQP7QwAKwZ8YuukVm/0UQRelBlaev1DfabyIKYBdMWHSCQvuTpEMJo+hkFai7hh49hygAAMgvGlgA9szvn6+nho0XSM5jZ8XpTZku15VHP0EUwJe4bUUd1d1+s6T/kpQikKL0Ow07+nvEAABA/tHAArDnxi08RR7MEuvqFSuX7C4F9h1d0eF94gA+w/glJyn0cZLaE0bRTpuXy7cfp+FdtpIFAAAxnImJAEBOjFl0h8yuJYii9rbM/ktXHjWZKIBPTV7YQNtTP5b8u+Kuq2KWkQcna3iHl4gCAIB4cLcEgBwdTexhQih6B8j9Lo1Z/IjGLWxGHCh5Y6vO1vZgqeQ3ieZVcXP9huYVAADx4g4sALm4iOsghbMl7UMYJWOL5P+jJkt/p8GDs8SBkjJu8QFy/VbSJYRREhaqSdBVgzvUEAUAAPGhgQVgz4ya30qp9LOSDiGMkvScguB6XdFhPlGg6FVWpvRh+ysl/VLS3gRSEqpl6qorj15EFAAAxIsGFoDdN2rh/koFz0pqSxglLZRpoqQf6cqj3yYOFKVxVafLwz9I6kgYpcS/r2EdbyEHAADiRwMLwO65bUVj1d0+U1InwsCntsj1O5U3/LUub72dOFAUJi5urox+IR4XLMVZ8mzt9drpPCYNAEBSTs0AsKsqq8r1YfiopN6Egc+wUu4/0PCO9xIFCtbkhQ20LfieTDdJqksgJecDeXCshndYSxQAACQDDSwAu6ZiZloH73ef5OcQBr7EDJm+w9oxKCg71rn6hky/kOtAAinZGfIFuvLoBwgCAIAknZ4BYGe5m8YtGSdpKGFgZ/camd2nMPyJhndcShxI9PFtQtUAhf4/ko4hkFLeF2yshh81nCAAAEgWGlgAdt7Yxb+V9F2CwG7ISrpHaf+phnR8gziQGO6msYvPkdlPxQLtkJbKqztreJetRAEAQLLQwAKwc8Ys+r5kvyII7KFaSX+V9FMNP/p14kCsxi7qJbdfSjqeMCBpu8LgRF3dYT5RAACQPDSwAHy50YuHyjSOYwZyqEbycQrDX+nqY98kDuTVjsbVzySdQBj4p1nxUA07eiJBAACQ1FM1AHyR0YvOkdl9ktKEgQjUSvaQTL/VsKNeIQ5EpsIDHVjVX/IfyNSdQPCvM2L/i4Z1/BpBAACQ4NM1EQD4XGOW9JTCqeIV8sjPBeRzCnWLhnd8VGZOIMiJEVUNVZYZKte3JGtJIPgMVarn3XTpMVuIAgCABF8uEAGAzzR6yTGycJakJoSBPFskaYTKG03W5a23Ewd2y4iqA5XOXCXZ9ZL2IRB8ji3yVFdd1eFVogAAINloYAH4TyMXtlPKnpG0H2EgRm9KPlIqm6ThR75FHNgpYxefKA+vkuwrksoJBF/I/Wu66pi/EAQAAMlHAwvAvxq14BAFwbOSWhEGEiIraaaksXpr04Oq6JkhEvyLSfObqCY1WNI1ko4hEOwc/18NP+a75AAAQGGggQXgH+54ranKamdLOpIwkFAbZLpb5mN05TGriKPEjVvUWaGGSfq6pPoEgp3nM/XW+31oiAMAUDhoYAHYYURVQ6WzMyR1IwwUgFDSdLlPUJ3Gj7JWVikdqxY3V9ovlnSFpDYEgt2wTqF30dXHvEMUAAAUDhpYAKTKqnJ9kH1Y0lmEgQK0Ve5PyWyyqus9ohvaVhNJkRkzZ195WT+ZXSLpdEkBoWA3VcuCUzTsqFeIAgCAwkIDCyh1FR7owMV/kWkwYaAIfCjXQ5L/TVb7pIZ3qSWSAjVq4f4KdMGni7GfIppWyAm/TMOPuYscAAAoPDSwgFI3duEouV1FEChCmyR7UO4PympmaXiXrUSScDseD+wn6UJJPSWlCAU59BsN73gTMQAAUJhoYAGlbMzin8v9hwSBErBdrmdlmqFQM3RNx7lEkgAVM9M6aO/u8mCATL3k6sTcBJFwPaamSwdq8OAsYQAAUJiYJAKlasyia+W6gyBQolZJekKmGaquN003tP2YSPJk1PxWClJ95OolqY+kvQgFEXtVVnOihnf5iCgAAChcNLCAUjR68dcln8wxAJAk1cg1R+bPS/asyjPPa0ind4klB9xN4xYeKQ9OkttJkp8k3hyI/HpHmXRXXXfkGqIAAKCwcfEKlJoxi/vL/UFJZYQBfK5lkp6X7Dll9byuOWqpzJxYvsTvn6+n+g2Pl/6vWXWipL0JBjHZptBP1zXHvEgUAAAUPhpYQCkZs+BkeTBdUj3CAHbJ+5IWSLZY0mIFtki+vaqkF4Yf8+pBUvZouTpKOlryoyUdJZrjSIZQskG66ugHiAIAgOJAAwsoFSMXd1TgT0tqQhhAzi6QX5d8oaTFki1RELwh37aqaNbacTeNXniwArWWp9pJfpSkoyU7RvJ92QWQ3Bmuf0vDj/kjQQAAUESndyIASsCYxW3k/qykAwkDyIsPJK2WfJVkqyVbLdcqpbKrlLV31XTZpkS8De33z9dTnUb7ysJDZGqlwFrJ1VpSq08/LSXVoZwoKO636epjbiQIAACKCw0soNiNefUgeeYZsXAykDQfSPae5JskbZJsk8w3KfRNsuBjmVf/478nKevVStuORxaz4cfyIKtUWE8W1JUkhd5EZqZQ5QrU4NPTfCO5N5bUVGZNFfq+Mt9XsqaSmkqqTxlQZB7SxqMvUIWFRAEAQHGhgQUUszFz9pKXz5R0HGEAAIrci6rvvXTpMVuIAgCA4hMQAVCkfv98PXn5FNG8AvD/2LvzOCvL+v/j7899zgzDDiqizBlERGDmAC7jklqGS4um5jIHtyzbNM21tP33jW9928tyycq+Ld/MUgaXsrK0khZ3QBQG0FARZkBAZR0YZs65Pr8/ZjQ0UJb7nDnL6/l4TAY697nvz3Xd1/I5133dQPmbp6ATSV4BAFC+koQAKEM/mlklr26W9DaCAQAoc8/Kku/UxQ2rCQUAAOUrQQiAMuNumvnSj+WaQjAAAGVuldyP10UTFxMKAADKGwksoNzsdfr3JH2MQAAAytxahXCcPn5gC6EAAKD8sQcWUE5+MOf/SeLV4QCAcrdRZqfo4wfNIRQAAFQG3kIIlIsfzvmY3H5AIAAAZW6zTKfqYwf8kVAAAFA5SGAB5eAHc06TrFk8FgwAKG9dkp+uiw78HaEAAKCykMACSt0PnjhW0h8k9SEYAIAylpP5ufrYgbcRCgAAKg8JLKCU/eiJwxX0Z0kDCAYAoIzl5PZ+XTzpV4QCAIDKRAILKFU3zRmrnP1D0p4EAwBQxnJyP18XH/hLQgEAQOUigQWUoh8/kVJWD0gaSTAAAGUsJ9kHdNGkWwgFAACVLSIEQIn50cw9lNV9InkFAChv3Y8NkrwCAADijWVAafnJwoHK+p8lTSIYAIAy1iXzM3XRAdMIBQAAkFiBBZSOaS3V6uqcLqmRYAAAythmuU3Rxw68g1AAAIBXJAkBUAKmTUvopewtcr2TYAAAyli7ZKfq4kl/JhQAAGBLrMACip276cVxP5SriWAAAMrYGkX2DpJXAABga9gDCyh2e532DckuJRAAgLLlWqFE4nh9bOJMggEAALaGRwiBYvb9J66S61MEAgBQxhbL/V362ISnCQUAANgWIwRAkfrBnPPk9n/cpwCAMjZPWZ2gyw5oJRQAAOCNMDEGitGNT5wi6XaxShIAUL7D0BlKdJ6qCw9ZSywAAMCbjhwIAVBkfvD4ZHl0j6QaggEAKEtud6rfwHP0wX07CAYAANgevIUQKCY3PHGwPPEbkbwCAJQtu16rJjaRvAIAADs0giAEQJH4fssYWfYfkvYiGACAMuRyfUkfP2AqoQAAADuKBBZQDK6fPUKJxAOSRhEMAEAZalewc3XJpN8QCgAAsDPYIBrobd99fIgS9gfJRxEMAEAZWq4onKKLD55JKAAAwM4igQX0pm890V99/B5JBxAMAEDZMc1VlD1JFx6yhGAAAIBdkSAEQC/50cwqJewOyY4hGACA8mN/UCJ7ki48ZCWxAAAAu4q3EAK9YapHyiV/IdkJBAMAUGZcrm9o1aSTdeEhawkHAACIA48QAr1h2Jxr5HYWgQAAlJkOmT6qjx/4S0IBAADiRAILKLQb5vy3pMsJBACgzLTKolN18aRZhAIAAMTNCAFQQN9//GLJvk8gAABlNqKcoc7EWbpi4gqCAQAA8oE9sIBCufHxcyS7nkAAAMpI935Xezx9PMkrAACQT6zAAgrhxtnHK0S/l6maYAAAysQ6SR/Uxw+8g1AAAIB8I4EF5NsNTxwu879I6k8wAABlMoJ8QtnEGbps4jMEAwAAFAKPEAL59IMnJkj+B5G8AgCUC9PNarejSF4BAIDCDkEA5Mf1T+yryB+QtDfBAACUgfUy/5guPuhXhAIAABRakhAAeXDd7GGK/B6RvAIAlIfZUu5MXdy4iFAAAIDewCOEQNx+NHOwEtG9ksYRDABAiXPJr9WwqiP0cZJXAACg97ACC4jTNQ/2VVfit5IOJBgAgBK3UtKHdclBvyMUAACgt7ECC4jLtGkJVfX7pWRHEwwAQIn7o6qyB+qSA0leAQCAosAKLCAO7qbvP3GTTKcTDABACdskt8/qkknXycwJBwAAKBaswALi8P0nvi3pQwQC2xAkrSMMAIqa62Hl/ABdesC1JK8AAECxIYEF7KobnvispE8QCLyBq5VQgyQexQFQjDrk/mkNf/qtuvygfxEOAABQjIwQALvghsc/INnPuJewTa6v69IDP/vqn69/PCOzGyXtQXAAFIFHZLkP6uONCwgFAAAoZqzAAnbW9Y+fKtn/iuQVtsX9F7rkgM+95u8uPahZCUvLrJkAAehFHZI+oz2fPorkFQAAKAVMvIGdccMTx0n+e0l9CAa2ynWHhj89RVOm5Lb533z/iSa53yBpOAEDUMDR3z8Uogt06aSFBAMAAJTOEAbAjvn+44fK9RdJAwkGtuF+9V9zoj54TMeb/pfffXyIqvQNSRcQNgB5tlauL+qlA6/XVAuEAwAAlBISWMCOuH7meFniH2L/Imy7WZ2lvjXH6MPj1+9Y3Zp9gsyul7QfMQSQhxFfs5K5y3XhIcsJBgAAKM3hDIDt8/25dfKuBySrIxjYhqcU/G267OBVO/XbP7u/RhuHfFpun5G8hnACiMHzsuhSffyAuwkFAAAoZSSwgO3xo5l7qCvxd0n1BAPb0KaE3qqLDlq8y0e6buZ+ihLXSTqRsALYSV2S/UBW9Xl9PL2BcAAAgFJHAgt4Mz+a2U+diT9LOoJgYBtekvvRuuzg+bEe9bonTpaF6yXtQ4gBbD//q1yXxt4mAQAA9CISWMAbue5ffaT238v8OIKBbdggi47XJQc8kpejf+uJ/uqT+38y+4SkKsIN4A08L7dP6LID7yAUAACg3JDAArZl2rSEVu5/q1xNBAPb0CnTSbrkoPvy/knXzxwvi74pt5MJO4DXaZf8G6oO39GFh2wkHAAAoByRwAK2xt10w5wfSfoowcA2BJmdrUsOnFbQT712zjGKwrclO5giAOitJE2X+dW65ODnCQcAAChnJLCArbn+8a9K+iyBwLanjX65Ljv4ul76bNMNc5pk+qZcoygMoCI9IvMrdcnBDxEKAABQCUhgAa93w5xPyP07BALb5Pb/dNmB/9Pr5/Gjmf20OfkJmX9a0gAKBqiIodtCuT7PPlcAAKDiRkGEANjCdbPfL7Ofc2/gDVyrSw+6oqjO6PuP7qVQ9SVJH5SUpIiAstQq03/rxTU/19RjsoQDAABUGibpwCuue+JkWbiDBADeoMW8RS8e+H5NtVCU53f9E/tK4TOSPiwpQYEBZWG1zL6hzo3X6RNHbiIcAACgcqdjAKQbZh8ttz9K6kswsA2/V3XuNF14SFfRn+l1sxtkNlVSE+08ULIjtPWSX6su+46uPGgNAQEAAAyPgEp3/ZMTpdzfJA0lGNhGU/mwOux4XX1Ae0md9g1z0nL/okhkAaWkXWY/UTbxVV0xcQXhAAAA6JmVEQJUtOtm7idL/lPyvQgGts7nKpF8uy6etLpkL+HGWZOUi74gEllAMSNxBQAA8AaYyKByXT97hGT/lLQvwcA2PKNs7m268pDlZXE11816iyz6rKSTaf+BorFG0vflfq0uO3gV4QAAANg6JjCoTD+aOVidiRlyHUgwsA0rFdnbdMmBT5fdlX1/1hjlEpdKukDyGooa6BWr5LpRQd9jjysAAIA3RwILledHM/tpc+I+SUcSDGzDGoXwdl3R+GRZX+V1T6Sk3JWSXSBpAMUOFMRzMn1bA9b8VB88poNwAAAAbB8SWKgsP5pZpc7EXXKdSDCwDZuk6F267IB/VMwVX/fwIFmfD8r1KUkjqAJAPvhsSdfq5bW/0tRjssQDAABgx5DAQuWY6pGGzrlZpnMIBrahS9Jpuuyg31fk1V/zYF9V1XxAbpdISlMdgF2Wk9tdkl+jyw96kHAAAADsPBJYqBzXz7lO7pcSCGyDy+z9uvTAXxIKSdfOOUbSx2X+XklJAgLskLWSfqZc4npdOelZwgEAALDrSGChQibjs6bK7IsEAtvk+qQuP/gaAvE63525txLR+2W6VK5aAgK84ahqgWQ/Ukf0v7r6gHYCAgAAEOdQCyh3182+SNKNBALb5PqyLj/4vwjEG5jaUq3dO98r9wskHU9AgFdtlvRbSTfpsoP/TDgAAADygwQWytu1s8+S6RZJEcHAVrl+qMsPvohA7IAbZh6sEH1Q0jmSdiMgqFBzZfYTWecvdcnhLxEOAACA/CKBhfJ13ezjJf1OUh+Cga3zu7TXM02aMiVHLHbmHvtXH2ndOyU7T9KpkqoICsrcOkm/kfQLVlsBAAAUFgkslOnEetZbJPuzpP4EA1vluk+r+5ykqelOghGD62ePkOs8SedLGk9AUEZykhD5TaEAAGouSURBVO6XdLP6hOm68JCNhAQAAKDwSGCh/NwwJ60Q/i4ebcI2Wz57RFH18fp4egPByMc9OPsIBX1AUpOk3QkIStRsuW5RpFt16cHLCAcAAEAvT+MIAcrK9bNHSHqUt6XhDcxX1HU0e9YUwNT7k9p90HFym6LuRwxJKqPYLZLZbcqGW3Rl4wLCAQAAUDxIYKF8XPNgXyVqZkg6jGBgG1qlcJQuP2QJoSiwadMSWj76CHmUkelsScMICorEc3LdLQvNuqzxAZk5IQEAACg+JLBQHtxN1z0+Td2PLAFbs0qeeJuuOOApQtHLprZUa7fOd0g+Ra6TxMosFH700yLXHXKfrisanyQgAAAApTCEA8rBtY//j+SfJxDYOl8v6Rhd3jiLWBSZadMSWr7fgZJOluwkSQfTNyEPcnI9rEh3y8JvdOkhCwkJAABAaWGSgNJ33azT5Tad+oxt2KzIT9SljX8lFCXghtn7KGvvkfl7JB0jqS9BwU5aIeleyX+nGv+TLjxkLSEBAAAoXUz4Udq+N3e4rGuepD0IBrYiJ/MpuqzxDkJRgn40s5822bEyO1HdyazxBAVvYLOkf0p+r0J0r6448An2swIAACgfJLBQ2q6b/Ru5TiEQ2AqX66O64uCfEIoy8d2ZeytKHCMLkyU7Rq4xBKWi5STNlunvcvuranIzdOEhGwkLAABAeSKBhdL1vdkflul/CQS2zj+tyxu/SRzK2Pcf3UtdVW+T6XhJx0s+mqCUtZykOXI9INk/VZ34sy6etJqwAAAAVAYSWChN33m0TsnkPEmDCAb+k39blzdeTRwqzHVPpKTsYfLocMkPl9QoaQCBKdXbWCsV6WG5HpLpIW1OzNTVB7QTGAAAgMpEAgul6drHb5b8fQQCW2nWfqbLDvwwe99A06YltGJ0g3LRYTK9RdJhktKSEgSn6KyVNEdujyvSTCn3sC475BnCAgAAgFdneoQAJefaWY2SPSopIhh4nd9o9domTT0mSyiwVd9vGaCuTWkpMUnyCZImyDRJvAiikJZImq/uhNVshfC4rjz4GZLOAAAAeCMksFB6rpt9v1yTCQRe15rN0MC1J+iDx3QQDOyw780drqhrooJPlNkESRMljZE0lODslCBpqaSnJZsnab4szJO65uuyt6wjPAAAANjxKR9QUpPM2afI9BsCgde1ZLOlzmOYGCN217TspqrNoxV8tBTt171RvO8n2WhJKVX244gd6l5N9bykZ+RaJLNFMv+XNPAZXbb/ZioQAAAA4pv2AaXku7PnyHQAgcAW/qWuxFt19QErCQUKampLtQZ2jVJV2FtutQphT0m1kg1XpL3l2lvSXpJ2L7ErC5JWyrRKrhckWyHzlZItkcIS5WypoqqlumLiCioBAAAACoUEFkrHtXOOkYe/EghsoU1ub9WVBy0mFCha1/2rj7pW76mq6j2U88EyHyT5ILkGS9EgmQ+W29Duv9cgmarl6iuppucICcm2eOOqD5SUfN2ntEvWucV/s1nSRkntMnXKtVZSl9zWydQu+RqZVktaI/fVMl+jXHK1+nS+pFWHrtRUCxQcAAAAigkJLJSO7836jaRTCAR6Wq+1Mnu7Ljv4CYIBAAAAAOU+BQRKwTWzxijSU+LNg+i2Uebv0uWH/JNQAAAAAED5IxmA0mC6hPqKHp2STid5BQAAAACVg4QAit+0aQmZziYQkBRk9gFd0fgnQgEAAAAAlYMEForf8jGTJe1JICDXJ3X5wbcSCAAAAACoLCSwUPzcMwQBkn9RVzZ+jzgAAAAAQOUhgYXiNm1aQtJpBKLi3agrDvkSYQAAAACAykQCC8Wtbd+3iccHK5z9SmsOvpQ4AAAAAEDlShICFLdoMjGoYKY/ywZ+SFMtEAwAAAAAqFyswEKx19CjCELFekSdyVN12f6bCQUAAAAAVDZWYKF4TZuWUJsOJxAVaZ5884m6urGdUAAAAAAAWIGF4tU2+gBJAwlExVmqkDtRnzjyZUIBAAAAAJBIYKG4sfqq4tgKuY7VJw9bSiwAAAAAAK8ggYUiZuOIQUVZJ4UT9YnGRYQCAAAAALAl9sBC8XLtJyMMFWKTzE7WFY2zCQUAAAAA4PVYgYXiZdqPIFSEnKT36YqD/04oAAAAAABbQwILxWmqR5JGEYiy55JdoCsb7yAUAAAAAIBtIYGF4jR41nBJfQlEubOrdOXBPyUOAAAAAIA3QgILxcl8EEEo9zLWV3XlwdcQCAAAAADAmyGBheJk0QCCUNYF/H+6/OAvEAcAAAAAwPYggYXilDMSWOXrLq1d+xGZOaEAAAAAAGyPJCFAUfJcf/KrZel+JQedpamNWUIBAAAAANheJLBQnKKoRs4CnbLi9piym96rTzRuJhgAAAAAgB1BAgtFKmySjDCUj38p0XWyPvnW9YQCAAAAALCjeEYLxckS7QShbLQpRO/QFW9ZQSgAAAAAADuDBBaKU9ZJYJWHF2X2Dl118POEAgAAAACws0hgoUiRwCoDG+XhvbqycQGhAAAAAADsChJYKE4JrSUIJW2zzN+rTx72IKEAAAAAAOwqElgoTlc0viBpE4EoSUGu83TloX8mFAAAAACAOJDAQnEyc0nPEYiS4zK7SJ88pJlQAAAAAADiQgILRcyfIQalVmT6vK5svIlAAAAAAADiRAILxctEAqu0CuwGffKQrxEHAAAAAEDcSGCheAUtJAglwvQLXXnwZQQCAAAAAJAPSUKA4pV4WB4IQ/H7ndat/3DPvmUAAAAAAMSOFVgoXusPmitpLYEoYu4PKVSdpanHZAkGAAAAACBfSGCheE21IOkRAlG05qqrz3t09QHthAIAAAAAkE8ksFDcTA8QhKL0jHLhnfrspNWEAgAAAACQbySwUOTsfmJQdJYr8nfqU4e9QCgAAAAAAIVAAgvFbd3BD0haTiCKxlpF4URdeeizhAIAAAAAUCgksFDcplqQ604CURQ2yexkXXnYHEIBAAAAACgkElgofqbpBKHXdUnepE80/oNQAAAAAAAKjQQWil/ds3+XtJJA9BqX7AJ98tA/EAoAAAAAQG8ggYXiN2VKTtIvCUQvcV2uTzb+nEAAAAAAAHoLCSyUBo+ukzwnufgp6M9/66pDrqcCAgAAAAB6EwkslIarDn5est8SiELyH+iTh04lDgAAAACA3pYkBCgZFq5VsNMIRCFibXeq7rlLCQQAAAAAoCimqYQAJeXbj82WdBCByCf/kzb0P0VT053EAgAAAABQDHiEEKXF9AWCkFePqm//JpJXAAAAAIBiQgILpeWTh/5B0n0EIi9aFHWdoI+nNxAKAAAAAEAxIYGF0mPhakmBQMRqqbJ2oj5x5MuEAgAAAABQbEhgofR88vAn5PolgYiJa5Vk79RnDllCMAAAAAAAxYgEFkpToutzktYQiF22Tm7v1lWHLCQUAAAAAIBiRQILpekTR7bJdDmB2CWdkpr0qUNmEwoAAAAAQDEjgYXS9clDfyFpOoHYKTlJ5+qqQ9kQHwAAAABQ9EhgocTZRZJWEIcd4nJdqKsOJfkHAAAAACgJJLBQ2q465EW5LpTkBGM7uT6tqw/9CYEAAAAAAJQKElgofVcf+hu5vkQgtoPpG7r60G8RCAAAAABAaU1ngXLgbvrWzFtkOptgbNMvdNUh58uM1WoAAAAAgJLCCiyUBzNXsuvDkh4hGFvh+q3aN3yY5BUAAAAAoCSn/YQAZeUbs0coyj0sqY5gvML/qvb292jqMR3EAgAAAABQikhgofx8e/Y+Upgh91EEQ39Tv34n6ePpDYQCAAAAAFCqeIQQ5eeqg5+XoskyW1zZgfA/KdF1AskrAAAAAECpYwUWytc3Z+4n0z2S7195d7b/TtVDm3TZ/pupCAAAAACAUscKLJSvTx3yjBKdb5HrL5V14XajBkank7wCAAAAAJTNTJcQoOxNvT+p/v2/I+myMr/SzTK/RFcd/r8UOgAAAACgnJDAQuX49mMXyP0aSf3L8OrapOgMXX3IIxQ0AAAAAKDc8AghKsdVh94k+URJM8rqusyaZdGBJK8AAAAAAOWKFVioPO6m78z8aBmsxlom2cW6+tDfUKgAAAAAgHJGAguV67uPjVbWvyzpLJXWasRNkt+gfgO+pI+nN1CQAAAAAIByRwIL+PqjaUX2RckzRX6mXZJ+pmT2S/rEkW0UHAAAAACgUpDAAl7xzUfeJtNlcnuvpKoiOrP1kt2iXPYb+uwRiykoAAAAAEClIYEFvN43H91L7h+Q2cWSRvbi7TlL0k3a2O9XmsqjggAAAACAykUCC9iWadMSWrzPkTKdLLdTJI3L8yfmJD0s2R8U7G595pC5FAIAAAAAACSwgO33zYf3lxLHSN4o6RBJE7VrjxqulesJSXMU2UNKdN2rTxz5MoEGAAAAAOC1SGABO2tqS7X6tTdInpKiEfIwQrIRMhvy2v/QuyStkmyl3Jcr8pWS5uvqw58jiAAAAAAAAAAAAAAAAAAAAAAAAAAAAAAAAAAAAAAAAAAAAAAAAAAAAAAAAAAAAAAAAAAAAAAAAAAAAAAAAAAAAAAAAAAAAAAAAAAAAAAAAAAAAAAAAAAAAAAAAAAAAAAAAAAAAAAAAAAAAAAAAAAAAAAAAAAAAAAAAAAAAAAAAAAAAAAAAAAAAAAAAAAAAAAAAAAAAAAAAAAAAAAAAAAAAAAAAAAAAAAAAAAAAAAAAAAAAAAAAAAAAAAAAAAAAAAAAAAAAAAAAAAAAAAAAAAAAAAAAAAAAAAAAAAAAAAAAAAAAAAAAAAAAAAAAAAAAAAAAAAAAAAAAAAAAAAAAAAAAAAAAAAAAAAAAAAAAAAAAAAAAAAAAAAAAAAAAAAAAAAAAAAAAAAAAAAAAAAAAAAAAAAAAAAAAAAAAAAAAAAAAAAAAAAAAAAAAAAAAAAAAAAAAAAAAAAAAAAAAAAAAAAAAAAAAAAAAAAAAAAAAAAAAAAAAAAAAAAAAAAAAAAAAAAAAAAAAAAAAAAAAAAAAAAAAAAAAAAAAAAAAAAAAAAAAAAAAAAAAAAAAAAAAAAAAAAAAAAAAAAAAAAAAAAAAAAAAAAAAAAAAAAAAAAAAAAAAAAAAAAAAAAAAAAAAAAAAAAAAAAAAAAAAAAAAAAAAAAAAAAAAAAAIE+MEAA7p7Yh85xJo3b9SP7t1vnTryaiAAAAKFfpdKZ6rWtzTLPYC1tbmm8iqkBlSRKC8pBKZfpGQ6tqXlO47V3h2Web1xIdAAAAAABQykhglYLJk5O1q4anJT8wCuEAmY2RVOvSCElDJNVIUsh1vebXOmukVENmVz99g6TXHti0Ri7f4m9yMq17zX8TtNlMG1/5o5vWm1vWpU7J27v/0ldLkiLbKNlm85B1s/WSZMHXBVMusmidydtz0oZEFNZlN1evizZm21tbmzdRMQAAAAAAqAwksIrU6NGZwV01froUneAr/R1SGCJJbgV/6nPAf/yNa+hW/u617HV/5XpdzkvSK9fi3f/jW/ySm8kkuXf/lkkKuUhRMisNklLpTE6udZLWSWqXtMGTuTPanryjldoDAAAAAEB5IYFVZFINZxxulri4U56RW9//zAxBkuRKSBra89NdmbuUIzAAAAAAAJQfElhFYkT9mQdHUfiSXO9xJ2m1Mzqq+q8jCgAAAAAAlB8SWL0slcr01UD/oqJwVc+qIuyc7Ionb24nDAAAAAAAlB8SWL2oNp05UK7bJRvNk4K7jLctAgAAAABQpiJC0DtS6SlnmOufkkYTjViQwAIAAAAAoEyRwOoFdQ1NH5T7NEn9iUZsSGABAAAAAFCmSGAVWF06c77L/pfYx8xJYAEAAAAAUK5IohTQiPSUo9x1E3HPAyOBBQAAAABAuSKRUiCpsZlac79dUhXRyAPTOoIAAAAAAEB5IoFVIJ7UjSYNJxL5CjArsAAAAAAAKFcksAogNaHpdJNOIRL54zxCCAAAAABA2UoSgnzLJBT0NeKQXxZIYAEAAAAAUK5YgZVndWmbImkskch7TSaBBQAAAABA2U77kVfufiVRyD8LzibuAAAAAACUKR4hzKMRE88Yr5wOLcBHPSPTDAuaFcxflNlLiVxlrUiKarLPUOMAAAAAAChPJLDyyLJ2jixfB1dO0q9CFL66bO7tC4k2AAAAAAAoVySw8sjM3pGnQz+Rs+js5fNuW0CUAQAAAABAuSOBlSfDJ53XX9mOxriPa9IDm3KbT3hx/m/XE2UAAAAAAFAJ2MQ9T6q7NjdKqor1oKZVkecyLz5F8goAAAAAAFQOElh54pHGxX1MC3bB8wvuWE50AQAAAABAJSGBlS8exsZ8xDlLF0y7i8ACAAAAAIBKQwIrX1y1sR7P7EaCCgAAAAAAKhEJrLxF1gbFdixTrmZz1W0EFQAAAAAAVCISWHnirsHxHUwLFi26ZR1RBQAAAAAAlYgEVp6YVB3jwR4hogAAAAAAoFKRwCoFwZ8mCAAAAAAAoFKRwCqJUopWEwQAAAAAAFCpSGCVAHetJQoAAAAAAKBSkcAqAebaQBQAAAAAlKqamqFOFADsChJYJVFKHggCAAAAgFI1a9ZNWaIAYFeQwAIAAAAA5JvLlCMMAHYWCSwAAAAAQP65uggCgJ1FAgsAAAAAUAgksADsNBJYAAAAAIBCIIEFYKeRwAIAAAAA5J2TwAKwC0hgAQAAAADyzqROogBgZ5HAAgAAAAAUAiuwAOw0ElgAAAAAgPwzElgAdh4JLAAAAABA/jkJLAA7L0kIAJSLUQeeOiTkErsF14AoG1V5IopywQdLkiL1NQ81kmQWDZHcJFV78KRFtlGSLGitR5a1oFXZhK2Ksp0r2xbe+RKRjUft+NN296poWCJnw1wa4NIAWdTP5H0UNFiR/ceXKuYh62brJcndV0uSSRuCR10JC5st2MZsFEIyobWSlOsKa21DcmNra/MmIh7ffdW5qWp4MqlhQRrg7gPl6muR1Zj7QLco+Z/lppybr3vlvgrmwTxqD1JnQuo09/asRZ5MZtdIUuemaH00uKN92ay7NxLx3jdmzLmDssncbjnzAeahjyRlzYZ233/eR+b9usvZBilSwoInFVmNSxu6/xtbHzxkLdKqKPiqzcmwasWTd66S5ES3/IyceM7Q0NWVCkkfmPBoYPAwyCwa4iH0f6V/dffVZrbeQtTqUVjW2tL8MpGLqY0edX5NZ5/2fSxpI2Shv4L6RtIAN6uy7r52w2v6ULP1wcOKRK5qxZ4DBq2aNeumwiaUXB0yyq00ZBKjxifqgnK7Z82GRokwyNwGudsgmfq+plhz/ve2hc0PlXtERo/ODM5VabdcVRj4hnMN7x7XmqwqhFC15VwjRMpZTquihFZlu5Irlz396xepa9uPBBaAopRKZfqGoWGfyG0vD9GekfvuknaTuv/psu4/m3aTaXdJu2U7lXjl90MkyYMie3XA1J366B7F/XuibfbqlMqt+9+5SYngUpRUqiHTJdOzci2Q+1MeRQuUs4faFt72NKX0OpMnJ2tXDU+b5yZIGtP9Y2Mk7SNpmKSk5f49g7Uty8JeWy7/Huf+u3xsixFvZC6XySMpUqSQ6/lvokgapO5yk9ZKWifTann3/zezde5a6+brLPg6M60KkVaZ28pgieXVG2pWLV78847KKrip0ciGufXuNvHVcjMb49K+kvbIdqo6Skhhy3Kw7nuqu3y2Vm56zX3V/TuuqOev3aRIQSHXnbNMVkvaVKNUQybbU25rTVrjrnUyrZVpnbrLa61btE7BXwyRrbRgq4K6lifWJ1aStNxWMuqEPh19BtRZsBEeaZjku7v77ibt5op2N/luLvX8ufufHeqserUse2676DW5J9vivpV8i3a0u+i9u8yDFGSqykZKpTM5uRZLesplC8z0lHL+cOvCdIs0NVBSpdEva4gfbh6lg9Rg7uMlNYRc116KpCjYv8ve/TX9q/W05W5BcinVkFkj1xxFesJkj4Rc1718YfTmyYTatCZGwY9UFB3u8v3lGpVV+97RK/1pzw37Shv82rvWXm2gI0XyRE4rNq1WqiGzUq4XzOyp4GFhFEULcsGeUr+NC/PxpYKZ1pDJLj4jJ54zNJftOtIimyB52lxpN9VnPdf31T4gWE+d8v/4OsJMH5H0UKm1aT4gqrNkboQHDZOi18w1IqlnzqFX5hy7d3rPXCNEbzzXeHWc5P8x1zCXFHWPq6Jk9pWxz7MuLTTTU+a+IBslHl4+77YF1EwSWACKZELV2bdfrWcTqSDfR+YpWZSK3OtcGikpJWn3qGdya/JXJ1Ha2td2+R0JVck1TtI4mcncpchV25BZYdI/XX5fNpm7c8WTd66syMnMQDvGIr1D7of6Sh0khX4qjq9WqyTtIWmP10yse5It5t2jLZdkPVPnyHPK9mtXKp1ZK9dySaskrZD0gkyrXPa85XxxSOi5ZS1qk5pzpVhu6XSmenWwo6PI3ynpMHnLwUHRwCL5Rjyp7oHi7luOA7VFecldMilyl8yVUOKVpOUGSctcWmmmVQq+TKZVpmhpMF+czOq55/detVQzZmTL5R5sbLygannH6r0lq0tIIz14SuYpyfaRKeWuVIc0vDtx4P+RDH5lKmLbbl3j0z3o30/SfiY/UT0D+FRDy2p55gGX/8Uju2NZS/MSeskiSpjUR4dGCse56ThJRyhYTXeSapcNkWmyXJNdLkskc6mGzGPufps8dzPJrG7DJ522Z3WuKuPup0k6XK4B3QnjWAc+e8q0p8snmZncXZG5tKkmm6rPzJHZQzJ/OBdyDyxfcMfzMaSwVrMYs0ju7/E6zCJ7l8zfGULXYWZKvFK3fAfH126+uNjGOhuyqg0JT7mifWSqlXvKpH1cSsmUkmuYKUjhlV7R33h6kb9qm5Q01qSxr3w5mAhBqXRmlVwPmPt9kcKdzy+4Yzn1VizgzNvEriHziKTDYiqlE1pbmv9IVItLbUPmOZNGxTCq/3br/OlXl1t8Ro/ODO7qG411hf3lGudmY819P0l1kvYqs5Y0J9ff5f4rrbdbynklSCqV6esDPWOyjEzHSupXoU1Al6Slkp6TabEFPefmixX53NZ5tz9ZbCebTmeq17idavIpkt4paWCFllvWpVZzLXaz58x8sQc9l3DNX7KweVZxTmDP65/IbhxrSuwfeRjrkY2VNEaufWQaLv/3ytMy4JIedfdb+2y2nz37bPPaUr6Yuvqma9zsvTv567nW+c3jVOCZfjqdqV7nfoLL3ifTO+Qa3Auh65CpWdKXWluaF1VaI5VOZ6rXyM624Oco0nFFdo8/K/nvIrffVXdt+PuiRfds3ok50o8kXRDD2OvC1pbmm4pgzvffkt6346fvM5fOn35mYc92ajSyvuW4YPYByd8jaUiMY+H9C32/jhlz7qDOZOf+nrCx7mGsXONktuVco5xyHUHSP13262yyz80rnry5vVLn4KzAArALHccJfTqr+40JHo1VZGPVvZx9rKRxndKe8n8/FWJext+2dQ8uj5HZMRqkr9XWN/0gW5W7oZxWZY0af9aoXCJc7u4fMHXvhVPhqiSNljRarz61YVLO7pB0RtFMoMedNcITuUvXuD5o8uEUm5ImjZJplMknyyUzKZj+LuntvXVSjY0XVL3QvnZfJXNjo6BxUrS/y8dK2l/ZjpR6Hr58/aN6ZbiIwSQdbmaHd9boS6l05qfJXOJ7ixfeurgkuwaL9pR89E63uweeOnjxnLvWFOJca8dnjlDC3rfW/Ux1P6Lfm/WrRq7zJJ1V19D0Ezf7fCXsmTWi8eR+0caaj651XWXy1CuPIBWZ0ZJdFkyXdVQP2JBqyPxJrlsGR/p9S0tz5/bd5bZG5TQmdN9dZjt8nwdZwV6mNnLiGaNDLvqA1HJ+kEbmoWKFwdKS1jycezqdqX7Zov2SOR/n8v23mG+M61DnXj1l0N19lPfSnEjS0SY/uirb8ZVUQ+YmyyWuX/rUrcsqbiDHWBbAjko1TLlO5id1uPaRFG1r/6IKtYeZ/b+qbPKKVH3my4MjXbvdg7oiNOrAU4dku6o+l/XcZXL1oXjfbGDurcVwGsMnnde/Krv5alfuKkn9WW79pgW3tFfa0nTmM3J9aMWm1aMsUtVr9hfBQLkuz0a5j6UaMt/dbPrKqpbmDZUUgGxX1R6S1uS3fa++UO4fkTSmCPvxKpd9TNLJdROaPrR03vR7y7Okp0Z16fkX+Sb/L5n2LKETHyDpDJnOWOt6KdWQ+bVZ9IulLbc99sa/1r2ZfMX3OlKtlEnkcTsCG5GeclLkfmXIabLym95ZFvdYN5We8g25N62V9kmEkHh1KxHmG5K0m6TPeCJ3aV1909cTmwZ8u5L2b40ofwA70enuJde+tCFvMvkyfXOta+6ICU1HluIF1KanHNPVWbVQrqslklfbd29ES3v7HOrSZx5ale1okfyLkvpTKtvBQ28lHneTtL+6V/Rh6/pI+kwf11Mj0lNOrrB6uXs+Drt3/en71KWnfDfbWbVE7l9X98sbijgOqvVgf6yrz3y+3Io4VX/G/qmGlhnufoNUUsmr19td0iXu4dFUQ2Z2qqHp3MbGC7barr3yNkSoqnZSbu/Yjzp5cjKVzpyTSmeeiNx/K+kY5X2LQy2O/Zjue6p7lXuCqrJN/d3sy9l+7S2pCU2TK+WimXwC2PFOpcg2aixyY6NgM+rSmU+ohBY3p+qbPmXy+0zisbMdG3H1agIrlc5c4B7+oe43P2I7WdQ7iUcLtKU7YETk/ptUeso3NHlyRTxB4B7tEefxRo7PNNamp/w6YYlF7n6FSmsvPHPT/9Smp3xfmloW85dUOnOJougJSW8rs6p7kGS/XLFp9TN1DVOuGj0685p91CK3NTRnPfd4iEbGdawxY07oU9vQdGFq5bCn5LpFrokFuzkVf1+Wj2OWsdFy+3Ntw5TPqQL2OCeBBWAnJl16jijskCp3fSfVMOXm7uXixa22oemzMvsG33rtuFyi9xJYqXTmArl+KFbL7cw0olfKzRUxQN/hOY1/qm7lsHtGNJ5c/i+QiCyWBFZqfGZiqiHz+xBpprmfpRLeQsTcL06lW75e2gWbSdSmp3xfruvl6lvGNbjO5d/qrNHi2oYpnxs+6bzuFcEJVmC9IpFTHAksSzVMeV9H9YBFJvuhuvfnLGxfZvH3Ze7MNXZwQJEw+VdSDZnmba1+LJuukdIGsOMdFd+K7GTkzk016BfFnMRK1Td9xGRfoax2VrKX9lKacoakG8XbhXdKzkOvlFsuYQzQd2qcruOjTTV3l3sSK/KwSwms2kmnp2obpvxUkeZIOrGMKsDVtQ1NF5biqQ+fdF7/VL3uMveLK+iWHWLyr1RlO/5VV5+5KCdV1F52b9KW7VICq3Z85ohUQ+YhyW+WlOqt68jHauKIL3h21hkrOlbfVs5JLBJYAHZYSDiTrp13TqpBNxbjie094cx6mV0vkiA7OYJTbtkeLywv9MeOmHBWneQ/YcXcLrRpnVGv7IFlfTY+L3Zs31nHRptqppfL42Rbn9zu3Aqs0aMzg1MNma9ZLvG0yT9YjuN9k31v7wln1pfSOY8Zc0KfqmzHH2Q6qULv2b3ddGPkdhfN1ysV2ep2tt9P1Tf9yiI9IOnwXm+r8vDFdi4RMdfY+c7jtBWb1vysXC+PBBaAHW84VkdMunbNBamGpnOL65QyiUQIP5NUQ/Hs9IBhuWbMyBb8fgy5H8k1mALY6ZnwphcWNb/YGx+9bNbdG11aSSHstBNqG+Z/powntzuYwJoa1dVnLuqs0TOSPlPmj6fVJEL4eSk8lv9KaXZU9f+ZpKPpKzWMpuuVUOzYCqzGxguq6tJT/l8UcgtldraK5AvHKEosjr1/nJdbJqmTWrLTtevcVDpzQVnOQylcADuqtbV5k6QVRGKXxrI/TNWfsX+xnE2q3j+oIvgWr7SLVAV/DK2ufsqpkk4g+Ls0g2hVLybkTezzsWvx8/8ekZ5yVHnWTd9j+9uCMyek0i3/dNON6n4jXCU4rK7B318KJ5pqyHy1J+EAbNn+b/cKrBENZxy0YtPqx9z9S5KK6fHpMCgvj+E35yQtpZbsku/V1Z85odwuigQWgJ21mBDskgFSdE1xnEomIbNPUSS7ONeUlhT8MyOn3Hbdkl6tN2a0pbsmGQW/sYRW4uyIN01EjRp1fk2qYcpUtzBLriMqr921L6bTmepiPsfaCU0nSfoMtyq24k1XYDU2XlCVSk/5dKToYUkHFOE1tLW0NOdrpRT94641kH09CjeU22WRwAKwk40i+2DtMtNJtekpx/T64LrBT5e0PwWyywOFtoKWW3rKMZU4YY39NjRr69XPd16KEUNbOqkurfPKr0nRHm/cdjcdl+3XPlfyL0qqrtDS32eddE6xntyoA08dYsF+xE2Kbdj91bczbkVd+sxDV2xa/bjcv16s97hLz+exg2ausesF9PaeJHrZIIEFYCf7FB57iWny2uuvAzfZhyiJOAYJvrSwdSdQbjEI8qW9fAPSlsZy++nLxb4SZyf62a0msIalMwNSDU0/Mdl9ksZQ+PpIsZ5aV2fVdyWN4A7FNifjofM/V2FNnpysTU/5sis8JCld1O2U8vcljDv9YyxlFOxrKqMXNCUpUgA71alYtFie921jNkt62aU15mo30xo3rZe0wdzb3bXWLVpn7u2SNrj5OkmKIq3N5aIgSUqEjcmsbZakkAxdUVDOI/XN5RJDEpH3C241Zj7EZMODa1/J97fuJdoDCxTKw1LpzGGtLc2P9kY5jpx4ztCQ6zq2AB+VVfe3dIvc7BmTr/Dg6yKL1gXzdR5sTSKRW2PZ6D8rVVVY3XOA6mRX9Oo3lbnIh7hHJkndZel9JCmyKOnyLcrPhkqSeRjk3W/qGyCzKpn6mluNy6tN6u9SQqZBPROioT2/PFjdX/YMkPSGryS2KCpYIiSdzlSvlU7O+85Nppy7lkbSIsmecekFN6214OvcfJ17tDqKfF2UU+4/2ohktMYs67muZDKh8Gp55BIa7MG6v0CL1Nc81EhS5Ep4ZINePUDwIYoic/lAC56URf0k72NmNXL1dXmVSQNcimQ9m9i7hkgymQbKlZTUX2/2rbX3bgLLzBe7531c2eXSy2ZaI2mDvOefUnv3n321SRtCFLWbtME9rOk+N1sfgmUlKRl5h3La1FOGuWDR5qps6JeLfIgi9VVQX7NoiHvYw1z7ymy0pIOlV++lfEutcTtV0rQy6mp3637L4tTw6kWmM4fJdYtkhU5cZWV6Rq557j4/iuxZl60PQWsTka31XOhwaYCZDZWFoSbt5WYHuOttJo3Kb/5KR42YeMb4ZXNvX1hMhVebnnKMuZ/fi6fwkqQlMi0zt40ybXL3jp52b6BZlHT3YTLt4dIwk4aJxQ2Fn4y7j5S04NV7fGymViv1K8lLYsN/tyhvCSwzX1yAHSo7Jb0saY1cG8y0xqUNkm8wRe3uYY3J1gd5d/9oWtsz1lyXCz1jn0ibkrnue+uVuYZCVJM1G9o9zlFfMx9iQcM80r6Sxsh1kKRBBSqmCbXpKZPbWqbdTwILQMWKgi8OOzbn2iBpuUkrQ/eg6mXJev6pl6Xwkqz7zy69nEvUvLTiyZvbe+fqpkYjG+bWu0XvctdJkt6ez0Gdu31MUq8ksHLZzpPNLP5VC91JjruC7C+m8PDwfrsvnjXrpq5Sr/epVKZvNLSqJuFenbPO/q8kZzwZzKzPM4U6j7XBjpd5Pt482C7335pFf85G9tBuHp5pmd9c8m8BGjXq/JowsLPvZttU1cejASFEUZTrTnptrs71agIrZBOLLQo78isbXVpppuUKeskie1khbNGW6mWTvZRV9FK128sbfONLLz712/W9ds+kM2Pc7XgzP0mud+pNEsG71uz4x1ROCSxXonb8E0PbFuolKZOobbBPy31qPmO4RTBzPf3SHz1E9w6Jwuyd3ecmNeGMScrZBYrsQ/l6M6Ll7DRJXyum4rPusiqUDXLda+YPmtkjm6Q5q1qaN+zIAcaMOaHP5qpB+7vC/pLvryjq/qdrrKS9Gfnm6zb/9z5YqXTm3ZJ+UWRvauyU1C7TGvl/ppOiEFry1j+aL4527AuedkkvyLXCTC+9Mt+IvLtvDGYvSeEll78si17qkl7e0fskzrnGiIlzx0a5xDvd/CRzHZfPuUbk4WOSSGABqFwh0nOSVsm1Uq5Vki+XaZW5rZTZ8pxplQVbFdS1PLE+sbLnzYUlYmpYMl8tklokXVM34cz93MOlcl2kPOxBYPIzx4w594pFi25ZV/ABtukdcSdATDbV1/r3l7ZOf7XMW8uk3re2Nm9Sq3q9Llukd8S8AHKzZF/vyHV8Z8tkx/IyKbfFi3/eIamj548ri+nc+mbXPd9RPeAll1aatMpkK1y+QqZVkl4w9xW5SKsSSqzojKpf6L3E/k7eMy3NiyQtkvTDfepP3ztnyQsl/6S6VzXGbXIqnRnT85nlMbn15B4jJpzVL/LczXJ/e767dkn3mvv/WaL6T0vm/mr1K/9iVzaKa513+5OSLhmRznwzkn6oPLw51dzeqSJKYKXGZ94uKd8raFyu3yuyn2ut/2FXx1mLFt2zWdK8np/XGDPm3EGb+nQ1mvxwSYdJOkyuWkbDMRRiCHWaPDmZWjnsy3J9WoV/1CvI1OJuM6XwL0mLZPYv5bJL2/ZavVYzZmR7KzZVufBczhIvSlop0yqXLTcPK821yqUXLLKVIUQrq9xe6OzfvnLZrLs3ltJcY9lcLZS0UNJ1e9efvk/Coksku0RSTfyNhZ06YuzZeyx7+tcvlvo9QwILwK5MSvashGtdOu+2ZyRdkUpnbpDrl5IOj/kj+nXUbD5e0h29kAo5JMaDvRQFvWvJwmmzuEPyPqs9NMajtSvoPa0Lp/2NwBZez6Rxj0q41ucX3LFc0tRR6cwPs9L/yvWe2PMYspMlfbdcYhYl/CMKuQ8rv49iLpH8p8HsZ8tamvP2Vs7uY089qbah5VsmfSLekteRw9KZAb23muL1Baf/yvMnTFcUvtyTHCxAO3XLOnWv3nh1BUfduLNGKAqHyXSYy7uTWoXbfqFsmNlhtSuH3S/prYUaQcg1yyP9yYI9WL3ZH3j22ea1W/0ve/mh3J4+Y1gl1IPlC+54XtLVe9effkPCEr9Q/AnwaktkT5B0c6nHigQWAGyn1pbmRel05uh1br90eSbWg+f0bhU4gTVmzLmDOtQ5NrYBkel9SxY2k7zKu0zCpQNjHMte2LpwOskrFMziluYXJJ1cl55yjbtfEetkMPi7VUYJLMmuyt+hNUuyr7W2NNy55T5b+TU1tM3XJ1PpzDB5rG+OrK4ynyTpwd4usboJZxziQfnaW3J5MLtwWcu0u3v7Opc+desySXf1/EiTJydHvLjHYQmPjvPgx8p0hKQ+tHhv6l0FWHIVTHoomN0eQvaOnmQJitDyBXc8r8mTj6tbtedP3P39sTb5Zu8SCSwAqCwtLc2djY0XnLti4+phMk2OsVd5V6GvZXNV14GK73n737S2NP+RGpJ/IxvC+KCofxzHcumfbfOn30JU0Qt8acu0T6QaMntKOie+tlRHj2g8uV9pPUpSYKa/mflXl86bfm9vncJm6eI+0jGSUnEdM5GzA1QECSwP0QfydOhHQjZ5UtE+AjRjRnZZd/wflPTlEY0n90turDkqyI+T7DhFOkjdL1JB4SyR7GfB/Kf5XF2J+O+lpcp8KNWgYYrzkWvzd77+xSCliARWSQzxdE+qIVPJEfhX6/zmsVQEFItZs27qGjHhrPdHnpsrV1wbaY/cu/70fQr5rVhQGGUxbbUQmb5DzSiMnEejLKava811DRFFb45wajqrL+qo7jxK0j4xHbMmaq85VBKrCv/T/SHyLyybN73XkzyrWpo3pNJTviT3m2KcnE3q7etqbLygasWm1Wfl4dB/6krWnLFifunsgdeTRL6v50cjJ54zNBe6jjNXM7diXnXJdbfM/7d1/oQ/lXqyonI156qisz/YFbLzFNc2A65hI9Mt45e0aH4pR4ZXpQLAzgzM5t261IK+Fecxk1HigMJ2AFYX06GWLmlpfoBaUSDmca1YWFfTteEPBBS9qXtvHftCvI2bHUBkXzNpmWmRv6t1fvOxxZC8etVa/6Wk1fFdpo3q7Uta2bH6BMW/p928zaamUnuBw+stmfur1UOk33JD5s1LJvuaJ3OjWxc0n9E6f/o9JK9K23Pzfr3C3b8Sb3dQ+v0jCSwA2EmbwubrJMW4YWyBOxWLLYH1D0lOjSitcnPTIz0biAO9qnV+w69cWhzfEQMJrG4L3ZRpXdB8WG8+LrjNcm9t3iSz22OcmY3o7WvyePf1kqR1USK8t2g2p0cxmiezC7ROdUvnT/tc25N3tBKS8lG1acAPJb0cWxsVAgksAKhULz712/WST4tv4OsF7VSCfO84jmMmNm4vIPOYys0pNxSLqcFMP4vvJqn4FVgrZbqwdc9VE9tamqermL9gCB7fKlDr3QRWY+MFVZLeHecx3Wzqkrm3P0sbgf+sHJrRs7JyYmvLtB+3tjZvIijlZ/Hin3dIFt9epcYKLACo7GRCjMvhTdq3wB1Av3jGUMbbbAo5ZrWIckMZzsVifLTIC9uWFpHNMvtmTWf1/q0tzTdpxoxs0fehIfFIjIfbrTevZVXH6sMlDYjxkC1tw1ZeT+uA13bd+n2I/KjWBc3HFOPKSsQveIz9o5V+/0gCCwB2QVWHzZApF9MErqDfHgepJpbzzvkyakIBJ3zusZRbZJQbikdbS/MTMq2K6XBDR406v6bCQjg9kVN9a8u0T3fvK1Yalj516zJJa+Ka14wZc0Kf3ptk2vFxHs9d3yiFJCQKVb10m1t0UGtL80lFtZcd8q56U79/SuqIp2Hp/Uetd7mhp0oAwM579tnmtZIWxXS4PTV5csHeDmumvrEcKBHxuvrCiqXccsEoNxQTV9DjcTVvYeD6ERURNdMskx/dOr858/xTzc+V6DUsiOtQ2QF9+vZeBfbjYjzcyr5dG6bRLFS8Tsl/6iGqb2tpPqut5bYnCEnlWbz45x2m2N4cOHCPcacMLOV4kMACgF0ftc6Lq02ufXm3vQp43rF8Ux1MnVSCgta3WMotIcoNRVa1Lba2VApRuSewXnbZRa0t6cOWzp/+j9IueI8tgWXZvr2yAmuPcacMNOnwGA/5U16yUcFMmyS7Ppj2b50//cNtC297mqBUep2w2PrHavUp6f4xSW0AgF3sU9yXuFksx0pkbbCkQr1BJpZHH6uyoR+1oKAD23geWY2cckORtaVaoniaUuWCBpdpmFymX3YlsletePLOlWVxQWbLLaZt5kNuc698OV9TVd2ooKq4jhcFTadFqEgbJP+pZZPf6Hm8Fuhu26QlMXWPipKl3T+SwAKAXZ5N6IXYjhWpkI8/xPI8fS5RthPFIp3lqyOOd4pZoNxQbFVbL8T2urzCtqWFCtAsefh4a8vtj5RZuW8o+YvI2QFxJV9laluysHk2LULFWZKs7jpg8Zy71hAK/GeXFmP/mCvt/pEEFgDscq9ia+J6Sbl5VMiNh2N5PIFESIEFbY5jouQR5YZibEvjaUzNrZw2cV/vsk+1tTTcJE0NZVjyJZ/ActOBseWv3O+W5DQIFWcDyStss43xsEYxZcktUdr9IwksANjVTiV4h8X0CGE2FLRTWR3L9Uc2ilpQyEm+VseyAsspNxRZW5rzjth2Z/VQPgks19y2BdN+WK7lbu7tHtvypV66BunA2Irb7B+0BgBe28hEHXF9wVPq/SObuAPALjektjm+Y6m6cJMij2X/lMjDW6gFhZzsWSzl5nLKDUXFLYqtLbVCtqXYJaHEV2Cl05lqSQ2x1V2LHqFWAHht/xhi6x9DifePJLAAoJg6KHnBvob2KK5EiB1OyRVwsuchro2bD5EyCSKKshRFRhBKg0XxvJiit6y1MF5xTQhNq5bOu+0ZagWAPHaQJd0/ksACgErtvtzjGiTvU5s+8wAiWhgeRXGV28DaBp9MRAFg55lHo+Jr4DWLiALAtrEHVmlMV66TWUvFDgyC1lIHgPjlIj0VxbQdsHnuMkkfJqoFaBNz9pSiuPb3tcsk/YWoAsBOjtLd94ltc2WzhUQUALaNBFZJzFbsntaW5j8SCACxdgBWvSCoyxXHyNvsA6mGM25qnX87e3fkWdteK55NrRzWIWmXN+E06ZRUOvNu+hgA2DmuaB+L66WBwZ8mogCwbTxCCAAVasncX612KZ5ve10JKWreZ1xmXyKbZzNmZCU9FuPs6+a6+jMnEFgA2KnJ1Mi4jhUiPUVEAeAN21wAQKUy93/GeLi6XEKP1tVnziSyeS43WZzltodbeCBV3/QRSWx8DQA7wOX7xHcsLSKiALBtJLAAoJIH3pHdG/Mh93DTrbUNmd+MqD/zYCKcr3ILcZfbIJn9ONWQuW9kOvNWIgwA2y2uFVg+VHqBcALAtpHAAoAKlk3U3CPTpriPa9IpkYVZdQ2Z++rSmVPGjDmhD9GOT+s8+4dMq/Jw6OOC6x91DZl/1jZMmTKi8eR+RBsA3tDuMR3npZaW5k7CCQDbxibuAHrViMaT+0UdNSPkYffgiYGJRIhC0OCSugizt8i9JOO/4smb2+sapvzO5Zl8HN+l4+U6vqN6wJrahsxdck3PVtXMWPHkze3U/l3RnHNNaTb5xXkqt6NMfpRtqtmQqm+6W7Lmmq7qvyxadMs6Yl+cRo06v0Y1HXvlEj4sF3xwd9MUhpbWVfj+lCRKyR7jThkoqSqesYSWE1EgfqlUpq8NiUa4h91DsEFJueXMh5TUVCMYTzX0IIEFoECmRiPHtxwUTG9VpIlyTZJprDa9kqyKFJnLg5XcJjxeosmrV88/+PcVKZPnjxli0vkynV+V7eiqbcg8YtJfFfn9oc/mR5fNunsj98iOSXjuxqDoIuV336oBMjtb0tkdfTpzqYbMTJP91dzv3xg2P/ziU79dT0kU3siGM9Lu0dEyO0DyCS6Nz6q9exWIS5H9e0ZcYq0RhYuSUp3sMzSuaus8PgjsKqtNZw4w97fJNVFmkySNkzTEQ+iebZgrSDK2/CxZJLAA5E1j4wVVKze9fGIwO9u85fjwyjJ7Z65STFoXNv8t1ZB5XNJBBfrIKpPeKumtCvZf0aaabKo+M0fmD5rroVxkDy5raV5CybyxJfNvb0nVZ+6T6Z0Fyi0kJB3u8sPd9NmaZJ9cqiEzz80eUPCHo0T04NJ5tz1DyeTD1Ki2Yd4xUnSuyd8VpBHdY28aUaBXZ8uKhkohrqO9RESBHTR5crJ2xbB3mdnZkr9Drj0l45U0ZYwEFoDY7Tvh7OFdnvvEik2rPyTZHsYcq+hFrk8H07299PFJmQ6R7BA3XRa5lEpn2uR6yM0eVLCHhkRhNnuD/Keg6LORwvHqjT0tuxNaB5j7ATJd7CGotiGzwqSH5HowivRQWKtZra3NmyipnTN6dGZwVx9d4tZyoWR1JKyA4mK5MCSu1tdCYEUrsJ1GjD17D6vKXqGV+oiZhtM/Vg4SWABinmz5F7s8+zG5+hKR0rFkQfN9tQ2Z35p0SlGckKtWUpO5N8lca10ddQ2ZWS5/yDx6IBH5w4tbmiv+cYtlC26bnUpnfibXh4tiMicNl3SqTKcGlzRIXamGzGwzeyh4eFDJ8FDbk3e0cse9sVGjzq/J9m//VKfrSklDiAhQnMxsqMc0cXaL2GMQeBN7jDtlYE2y5gvy7MVyDSAilYcEFoBY1DY0ZTqlayXbmy9BSlN1lLygM2QP70lCFJsal46S7Cg3vyrrUqoh86zU/dhhiOzBthbNlZpzlVZuNZurP9FR3XmMpNFFeHpVkg5398NNdoWyCaUaMkvd7AFzPWRmD+1ZM3jOrFk3dXEH9rSl6cyxWW//oVxsaA4UuRBpcFyrzE2swALeSF06c4q7bpB7HdGoXCSwAOySMWNO6NNR1f96yT5KNErbc/N+vaK2oelcyf4gqboETnm0ZKPd9D5zKdWgDVLmUTd70IIeipLJh5bM/dXqci+3RYtuWVc34YwzPUQzJPUvhTGouZ8l6Sx314pNqzemGjIz5f6QRfZg12Y99MKi5lWVdwdOjVIN8/9L7v8ldu8ASoLF2FeyAgvYusbGC6pWbHr52+66jGiABBaAnVY7/rTdO6Lk7yS9hWiUh7b50/9SV9/0ATe7Rb2xr9KuGSDpWHM/ViaFXJfXNmQWmvwhU/RANrKHls+7baHKcKOEpfNun5lKZ5rk+q3ieqV74fSTdLTMjnaXktVSqiHzr+7HDvWQBX+gdaHml/PqulQq09cHtdyqYnmEF8B2sRCq3OLJN0fBO4go8FqjR2cGr+hY/RvJ3k40IJHAArCT9hqTGWaR7pN0ANEoL0sXTL+1tqEpZ7JfSKop5bmFSfWS1bv8Q4ngSjVkVkt6yNwfcrd/DE7ooXLZHL61pfmPdROaTvJg0yUNLPHL2d/d9zfp/YqkVIPWuWUeMbcHI/cHwnr9s1w2hx/ReHI/26TfSDqe1gcoLS6L7QsDjyxLRIF/G3XgqUM6O3WvXIcSDbyCBBaAHTZ80nn9k9mOe0Xyqmy1zZ/ePDKdWR6kW3s2VC8XQyWd6GYnyqS1rvZUOjPDZPd4l9/V+nRzWylf3NJ50++tTWeONlezpDFlVG6DzPUOyd8RTNJgbUoNzPzDIv0pkUvcsXjhrYtL87IyiWiTbneSV0BJMrOquDZxNw8ksIAeo0adX5PtbL9HInmF14oIAYAdlcxt/l9JBxKJ8rakpfmfnsseIOn2Mr7M/nK9x91vUFJL6hoy/0w1NF06cuI5Q0v1gtpamud05DYf7LKflW2pufrK9E53fScb5Z5L1Wceq2to+uTwSaftWUqXkar3r0h6N60NUJqCQmwrsIKzAgt4RbZ/+w1iixJsBQksADs24UpnLujZgBkVoG3hnS+1zm9uktt7JD1d7n1iz5sOrwu5rmWphqabU+nMYaV4IS8+9dv1bfOnfUhBk+V6suwrqukQl327KptcmmrITE9NaJpcAm3pu2X2KVoZoISbHovvEcKIRwiB7v6xYcr75PowkcBW20pCAGB77Tvh7OFyfYNIVJ7WBdP+MNg0UWYXSHqmAi65RrL3yfVIqiHzl9r0lGNKstwWNv+tdYEOluw8SfMroNyqJZ2hYPen0pkHayc0nVSMJzmi8eR+km4UbxsESpoHj287luCBiKLSpdKZ3ST/DpHAtpDAArDdOkPua5KGEInK1NLS3NnaMu3HrXuuGu+yM036s6RKGHAfa+5/TdVn7h4x8YzxpXf6zbnW+dN+2To/PTGYnSLX72TKlX2puY6wYHen6jP3j6g/8+CiGnxt6nO1XPvSqgClzWJsSz1Sgoii4rn+W9KeBALbwibuALbLiHRmpLm/r4Af2SVplUzLzbW6qPta03C5JlZMZZgxI9smTZM0beTEM0Z7NjpbptNdOrisr9t0UpSL3lmXnvI/S4et/JpmzCixxz2mhmUtulvS3bWTTk9ZV+JsmU6XdLjKeSWQaXJk4dFUQ9N3kxsH/L/Fi3/eq6+qH5bODJDrsgJef06uVXKtNNPK4p63aLDYsBclNdeOuiymTdxjXc0FlKB9J5w9vMuzH47pltoeWUkrJa0w6aUi7x/3EPsPSyKBBWA7JYJf4THu9bAVS+X+R5P+6jn7Rym9Da6uPnOmm26txHqxZO7tz0r6iqSvjBp/1qiuKLzb5MdJOkbS7mV4ydXu/qXUymEnh3SmaVlL85JSvIi2J+9olfQtSd9Kjc3UKqF3S36cmx1r0vAynGUmJLsq26/9xBETzzhj2dzbF/bWqfQJ+rBMu+XtA0yrJP3RZX+pykV/W7xw/BJpakmslKytP/MtZuEhelyUCnPviiv9H1nEvAwVrdNzl5irbx4/Ypnkf5TZX4Il/rFs3q2tUgHTZbvSP05oOsmC3U0tIYEFYHtMnpz0lXZuno7+L5l9trXF75Km5wh26Vq88NbFkn7Y/TM1So1vSXtkR5n5kXIdKWm/MrrcQyPXYyPSU05f1jLtgVK+kJ5k8U96fmzvCWeOTwY/IkhvNfkRksapfFZoNUQhejiVzpzV2tL8x96Z8eoDeTrycrn+X03nhl8uWnTPZlokIP9c3mUxNY9uPEKIimbm/v489bvPmezzS4etbC691fN4PRJYAN7UyBXDjgmWh+fRTT9Jtve/pLcf6UE+TA2tCzVX0lx1J7U0Kp3ZKxt0hNurSa1GdW+6Xar2jNzvTU1oek/rvOkzymU+tnzebQskLZD0U0mqHX/a7p6oOjJyP1LSUTIdovx+Q5rvGedgSb+tq58yZemCaXcV8qNrx585VgoH5eGafpfs03Xe4jl3raHtAQoniqIu93gWcBiPEKKCjZjQdISCRsZ/ZLsl1Gy6YNmsuzcS5fJAQwngTQWzk+NeYetmN7a1TPs40a0ci1uaX5B0Z8+PRo06vyb0bz8kBD+yO6mlI+QaVmKX1U/Bfl+XPnPy0pbbHivHcmtbeOdLUvfeWZLU2HhB1Qsb1zYq8iPM/ShJR0rau8Quq8rNp42on3LisgXT/ly4yW7uZI95MZtLv20bvuoMvlUGCs/lXfHNs70fEUWlioKdHP/9qZ+3zZ/2IZXIY4LYPiSwAGzPoOrIWJt+15NDzK9sI7IVrWfl3T97fiR1r1CJEuFIlx2l7hU/9Sr+x9f6uYfbh0867ZAVT965stzLbdasm7okPdzz811J2mdcZt9cwo5y0xEW/K2KlO7ed6qoVUXmt44af9YhPY+/5n+y63ZkzLV5mZk+SPIK6B0u2xzbJu6yQUQUFezImI/3tPft+LhIXpUdElgA3tCIxpP7aZMOiPGQIVg4v6Xl9k6ii9drW3jb05KelvRzSRo58ZyhIZs9wiM/0oKOkulQSf2L8NTrqrqSP5B0RiWW2/NPNT8n6TlJv5SkMWPOHbS5ZvNbPERHuvmR5nqLpIFFeOq7Z6Pc/0maXJBBrumIWA9numhpS/PLtBxA74iC1npMSWlzH0hEUYkaGy+oWrFp9SExHtJD5B/kscHyRAILwBsPqDr67S+FONuKPy2bf/vjRBbbY8ncX62W9IeeH2ny5GTdquEHeQhHmvmRLjtSUqo4bhadnqqfcmLrgml/qPRyW7TolnWS7u35kZRJ1KajCVHIHeUWHenyo0waVSSne3RtfdN5bQum/yKfHzLqwFOHZDtjfdRy/tKW5t/SSgC9x91Xx7Wq0qOIBBYq0oqO1ftIivMR2n8smzf9QSJbnkhgAXhDUfB9PcZHXsztJqKKnTZjRnap9Ji6f66VpBHpzMiE7Ch/ZZNxaWKv9W/mX5V0j1iy/jrNubYWPSHpCUk3SlLduLNGhGTuyKi77I6QdLCkql4pNrMvNTZe8OuexyPzorMzsW8U78T5x9QroHd5IlpjHmLqPgKPEKJC5xraN8T6eL0z1yhjJLAAvKGgMCquV0TLtGnPvkN+v5SwIkbLWpqXSFoi6ddS9+NrG/t0vT3ycLxkx0lKF/B0Dkg1NL27df70eyiZN7b0qVuXSZre86Phk87rX5XreJvcj5PseEmTJEUFOp19Xti4+ixJN+dtgO7RqDj3v7KcNVOLgN7lCqsttmPZ7kQUFTnXiGyUPLbv/bJdyb53EdXyRQILwBtPkkyDYzzcnHyucACkVx9fe/WteamxmVol/XTJMupeoZXXpIjJLlL3KizsgBVP3twu6Y89Pxo+6bQ9q3LJU82VcdMx+d4U3iJdpDwmsCzS4PjG51rW+nQz78EAelm/zdVrOqpj29JzLyKKipxruAbH1j265veMJ1CmIkIA4E1mXfE9k+7+GAFFobU+3dzWOn/69a3zm4+2XKJOZp9R94qtvHDpXal0Zjciv2tWPHnnytaW5puWzm9+R3az9pbrCkmLlL+Ce8vIiWeMztvxg8e5vwdtKVAEFi26Zb2kuN4CSgILFcktxv4xon8sdySwALzZpK5vjD3UswQUvWnpU7cua22Z9o3WPVft5/Ipkubl4WOqzf29RDs+LyxqXtW6oPna1vnpcR75ycpPAsdCNsrfWyQtvrbUpWeoFUCRjJKkF2I61m7pdKaakIK5xi4cirlG2SOBBeBNeoIQWzthkdYSUBSFGTOybfOnN7fuueogd79S0rpYbxuzYwhyPkwNbfOm/651fvotcv+opBdjPbwpb+XmMT4CafJ11AWgaCbfca3otZdDbm8CiopjFttcIzLmGuWOBBaAwo3xAp0KisyMGdm2BdO/l4uit0iK7/0CrrcT3HyaGloXTP/fnOcOkbQwxgMfpcmTi35/UHfaUqBo7scovr4jsmgMEQXoH/EG7SQhAFDABmcDUUAxWj7vtgUKeo+kjpgOOXLE2LP3ILJ5LrcFdzyfDIkTJK2J6ZCDRry0e9FPII22FCim+zHGPRWj/YkosAv3o9M/VsB8EgAAtC5sniv51+M6XiKRayCq+bd44a2LzewLsQ2M3Cg3ANvPPb4VWB7GElAAeIN2khAAANAtWZ29VlIsr18OFuqJaGEk2vv9xKUVcRzLcka5Adj+NsPs+biO5ZGRwAKAN0ACCwCAHovn3LVG0j3xzERUS0QLVG6Lf94Rye+M41ghotwA7EBTH8KC+A6mRiIKANtGAgsAgC2Y66+xHMdsONEsnKCYyi2IcgOw3VoXTHxGMa3clbTXiHRmJFEFgK0jgQUAwBZyCX8ipkPtSTQLKCRiKTc3yg3AjpgaJM2Pb3JmhxJTANhWG4mi50EJogAABeoY3VbG03irH9EsnKqazbGUWyTKDcAON/hz4zqShXAU8QSAbY7TUPSFFNkgolDGQx5FVinXmo2sptyuaZ9xmX090uepyeXU5la9FM8sRDVEs3AWz7lrraTsrrfJJVBuZdiWjhh79h4Wha9Tk1GSYzmL5sV2rMhOJKLAzgpl1z/WTjo9ZW5TKdueIRAhKIHb0DWYKJQv81Axk1wLPqScric1PvP2XEKPyjWRmlw+lswdu1ZSiOFQfYhmYeeQktZUQrlZKK9xQWp8ZmJUlX1UrrdTjVGSEyoPM2Nsycal0pkx5RinNbnsQGoL8jpvtqis5hq19We+xbKJR3nBwxbtLSEogUm/ldekH68bp1hU3I+rmHKxHSoqn0lXKp25QJHuk7QHtbjMTJ4RxdE/utRFMAsujkfu81JuFlk2rmN5GY0L6hqa3qtID8i1L9UXpapPZ/ujkjriG3rplHKLUW1D03EWJWdTW/Af9d1jnGtY+cw1ausz55mF+yXtTS35NxJYpaGBEJTzTRj6F/UJujbFNyCzoaVeXmPGnNAnVd90g1w/klRFDS4/o5cMi+WeNNdGollwA2KYOOan3EJ8bams9NtSaWpUV9/0BZfdIYlVGShpixbds1muh2Mberk+VC6xGdF4cr9Uw5TrTHafJN6wiK11vPH1jyGUfP/Y2HhBVaqh6Vtm+oXEdhT/OXdG8d+ILt5GUsZctn9xtxIW22QulHgytjadObCjz4DHZPZxam75ytaEVNH1A3hT+044e7jiSSrnpdxCjG2pSrwt3WdcZt9UQ8sMN/syY1GU0dj/7zEeLT0iPaXkN3NPNZxxeLSp5nHJL5VkVBJsfTIUYusfzayk+8eRDWekV3Ssfkiyq6gY25iaEoI89WGudTEebuzIiecMJarFNk5RZ0yHmjh80nn9i/g6N8R3X/gRpVnamURtw5TPmesR9ruqgHGUJ/aP6UCswCqgnGdjKbdg+VmBFWdbKtfBY8acUJJ7rKXSUz6aS+gJSW+j1qKs+g7T3+I8XsJ1eanGYsyYE/rUNTR9RYr+KWkstQNv2O/G2D+6dIRKMlk6NapraPpkUDST/a7eGAmsfHVi8rVxlpOH7DlEtejE9S19MpnrOLxoOxW31hgPt0/duLNGlFIh144/c2yqQf80+VckVVPtK6D9jvzIeI4TrSaahRwAWyyrFSL3/JSb5+JsS/tsSg44uJTKZ5/60/dONWR+L/ebxCODKEO2Vg8p1om4N6XSmcNKLQ4j05m3dlQPmOOyz0lKUjPw5pU91rnGHqn6M0rqJQg9q5Lvd9m3xSODbz5OIwR56sSkJbHe1/ILiWrRiW9vqOBnFW1dNl8cb3Igd0JJDMAmnjO0tmHKty0KcyW9hepeSQMpxfIKc5MvJZgFLbgT4in+ePvvVyQtej7extlLoi1NpTJ96+ozn89Z4ikpnnsLKEatrc2b3Ox3sU4nXN+WppbEfG3MmHMH1aanfD+4/iZpPDUC2ythIda5hixxQqncM3UNU76aS6pF0tHUhO1DAitPgkVPxzyhmlg7oekkIls8TFoV38Hs3GJdmdSVyMbcqegjxVyuPRsnXhpyXf8y+SfFqquKMmJC05GS0vFUdXueiBao3MZlxsljG/zlJYG1uKV5hWLcIN7Mzm9svKCYXyRhqYYp79MgPeWm/xGrrlAZY8PpMR/yban0/KuLvg1OTzm5o7pznrlfzPwSO2pT9xc8Ht+N6B9RMT9GOHlysrah6cJN1Z1Pu/yzcvWlFmw/Gph8dWCeWxj7MYPdUDv+tN2JbnEIpjiXu/YLydw1xXidK568c6WkZTEe8i116SnvKr4rzSRqG5oyKzatnifZdZK41yqxUwz2hbiOlctTIgRbKbekPh/XYNXyV24u0xMxHq/uhU0vF+WbyuomNL0zVZ95VPKbJdVRQ1ExY8OaTfdIao+35fD/qaufUpSrM7q3Wcj8PnL/Lfc6dtaqluYNkhbF2NtOTE1oOq34rnRqVNfQ9N7UymFzTPZDk4ZT+jsx5iME+THYoscV/6u497EoeUcxb/hdUTzex4PMdWZdekpxvt0uxldDd4fObyiWejwsnRmQaphyWapBT5tsmthstGLV1mfOk3RCbHdNV+Ipopp/qYamE+Q6L67j5XK2MF/nasFjbUtN9tViWb07ZswJferSmfNT9ZknPNifZDqE2olKs2zW3Rvd9LuYD5t087trx2eK5kU4e4w7ZWAqPeUbPdss8Ggw4ujQYu0fFex7ow48dUgxXNqIxpP71dVnLko1tCxw2V2KaaV/pSKBlSctLc2dUsw3Yrejq7Mdf0+lM2OIcu9yi+bFfkz361LpzCVF16eYPRT3XKcq2/FLKZPotc5kwll1qXTmm31cSyW/VtJoanXlSo3PvN1MN8V4yEXLnv71i0Q2z/dxwxkHSXZrjId8edlTzU/n63yDKe62dDdP5G4f0Xhyv14rg7Fn71FX3/SFjuoBi931M5kmUTNR4TPxH+XhoIMs0h9T6cy7e/PK0ulMdV1908U1iT5Pyf1TYpsFxHXXhNj7x7psZ9Wtvfmofd24s0bUNTR9JdpUs8RNN4ovyWNBAiufXH/Mz2F1sFwtdQ1TfjginRlJoHvp5uny2Xm5J13X1zU03VY76fRUsVxrNrLf5+Gwp6YadPuwdGZAwZIU6cxuqfSUj6YaMn+NQm6xXFdLGhLfran7uTNKTyo95aOK9EfF+eYXy8sXGNhCbcOUKZGiv0kaFONhH1Gc+3C8TlV19j5JnTEf9i3Rxpr79p1wdsEeRRiWzgxIpTPnpOozd0fJbJubfVnSXjF+xF+p4ShVbS3T7pfryTwcepBcf0jVN3298JPyTKIunTl/jespN/u+pL0pacQ611DuD3nof9+1YtPqu0ePzgwu1HWMOvDUIXUNTR+sTWfu9WRuSc/bOOPclqTi+0debZpHXpX7tWUTX1d+EoXVLr8wcn001ZB5wqX7I7OZuaBVFvmLiSisq6hGr7rzhWWz7t5YyM9sfbq5LdWQWZ6PTtxlUyybOC3V0HSbzK5vbUnPlKaG3orv8nm3LUg1ZOZJmhDzod/bR3qydkLTZW3zpv8uH+c+fNJpe1ZlE+8w2Znuepfk+fi2sMtdHzbXEkU6htavFEyNRtTPPzZhPtXdj4r76Hn4JhE9oR2ZzhyVk/7L3N8R+8HjX236Govn3LUmlc7cJ9d74j1xHdnl2bm19U1XtS2Y8Mt89BejR2cGd/bRsR7ZFHM/RVK/PGyR6zJ9LplL3JqNcs9R3VHCrpP0v/loA2X26RWbVp9e29D0+bb506crj0n3UenMXlnpfLk+6q7RRrkiX3ONBXc8n2rIPCrp8JgP/a7OGs1NTWi6onXe9Dvzcb/Ujj9t98iSx7vprGynTpDUxzz2Oz8n6WKzMNtD9Fgl1xUSWHnU9uQdrXUNmb+6dHwePyaSdJBJB7m7Iuu+LUOushbXJTb2OVvSrYX+XJf90eQfzNPhqyR7n1zvS6Vb1sozD7n7Y2ZaJellebQ6bOc3+cuGr5yhGTOyu9Ruut/mZhPyEMR9ze3uVDozy91/XB1V3fXcvF+v2JVJVkdfOzqSHyfpWGU1QZJ5/qrBRrll2hZM+8Pe9afvk1BCKE4jJ54zNOedR1nQO6SW0yTV5aleeC6R+B0Rj8eYMecO2tyn64jgeofJ3xtcY/I1iQryu/PebwTdZhZzAqu7LR1mZv+Xamj5vFnmR9mQu335gjt2+k2Ywyed179PV8eRwXSspGM7TY1yJczz1ppmTXbh0pZpP9XkycnUymFZxqkoWev1Kw3W1+QalqdP2N9k01INmXnu/pNcl93ywqLmWN6Ove+Es4d3ha7j5XZ61nVy93g0dl2SlortG7BlN2Z2m7kfnodD1ynY7amGzBNm9uMoZO94fsEdy3dlXLKpqvNtMh1r0rGSJnl+n2zbLPNzWudNv2PE2LP3iJLZiq4nDAzyLfJvKdjxBCK/gmlwb3yuReF3CvbBvH+Qa7Ckd5vZv/c+MN/ulrL2heHj2qRd2telsyp3U1U2+XnF+ZjVa6+x0WSNXSH7w1RD5nlJM2X2mHlY6ZHWutuaRE5ru2c5NjSyUOXSAJP2crN6c42VaXynqzZyL1QVeDlEfvKyec0PStLy4S+3leqka8S4zLgo4YeYR+05aUPSfXW2KrTLq9qTFm1YMvdXa5THb3njkE5nqjeE3O5BVbsHyw2PXONcapBZvaSGkOvaywrwVmWXHlg279alhbjmvetP3ydhybfJvT3I1iciW2sK7VlpQzKqWr9k7ti1vbl6c7tMnpzc98W9d895dvdgvqcHjTOpoee+ru9QZ0pekPdhL2xraZ6T7w/p27VhWkf1gG8q3kfutjTWXd9JWOI7qYbMcpNmummmgto80loPtiaRyK2xbOS5hAZHsqrgYVDktodHGifXeJfGWbZjZLAtupn83v0dJj9r6fzm30iSZszIekOm1aRRjHBQilpbmzfVDmz6qpl9N88fNcHMvpus1rdS6cxjcv3NI39A2cTTQxJhcc+evNu015jMsOo+GheCxpk87WbHdoXsJMny112aVlmwJpne7fLPUlvwiqqqzp9lO6v+W9LAPH3EAe5+Q84SN6QaMktlmunuj0XSC939o9Ymgq2RpFzkQ0yqdmlAZNGeHkK9mY1zaVyHOusKuBpxnZud2jav+X5JWvb0r19MNWQ2SBpQqfWEBFaeLZ03/d6e5ZCHEY08JpK8dxJYXVHfP1V5x1r10udv94Q64eO0iwmsFU/eubKuYcr/ufzCApzyPpL2kfsZLpNC9+Q19EylIrmkf4+tXl1eVcj0iutJKTQtm3f7v179uxkzskpnlsq1b6ndQ4mEnezSt7wnMRpMinKRpJyCcko1ZKTuV4N3SlonKSdpvUxZBa03U9ZN680t6/IuSRteGy5bbx52/CujyGrk6ttTvNWRrL8kuXnSXANdGiTTMLl2X+saJEtICjKZvJeedTDTbQXrxKPEMe7+M1n3feHucnV/DRhyXUo1tEiW2SRXh6T1krJybVCkLkkbzNXlUrvJOt1DVmbrX9u2ervvxJ5NFkV93L1fT9lXRT0DLZdHJg327sHp7jIN00oN7lJP1fCt3NeFK7mClNuiRfdsrm1ous5kXy3Ax+3t0slynSzrjqmZy0Mkj7r/7PJ/3y/+yvyyoJ43izJLW2577HX9+mIZCSyUriGR3bjWdbGk/Qsyp3MdIekICyZFQWulXKohs0xSu0ztPf3yAEkD5OovabCkgaF7SCUvxJ3vejIZEu9dvPDWxXX1mbR4JhFbWDznrjW1DZkfm/SJAnxcnVx1JjvNpf+Ya7wyGjFJ7i6Z9ca3uAsj0xlLWqbNf32oFP+2LiWDBFYBhMivjIL9Q2yan7/+MLJBvfG5K568uT3VkLlZ0iXFHJ8o+HhJu/xojCVy3/Rc9AHlaxVWiTD3/8v123zxVvddcy2WSi+BFeR7b8c4sn/Pz9Atrrdn4Nv9/30b3bupu/PficHuFsfY4vi+xb8qpnVhprVRVHVLwcrNfe83/Zq8OwHY99Vy2yJR8e/c79bLx23nZhe+xSpIe12tcG3rD71qc4iinxTqw/p02I2dNbpC0p4V3n3f4yF7XuvCO1/6z7qnxcxtUcpaWpo76+qnfMrN7+ydwbESkuqKpq113bE50gdaW27dIEkh4UstcJfjdcOorK5RUheoglcY9fSBt23Obv7oi0/9dv1W5xpWuQksEioFsGze9AdN9mMikc+EQu+tgMpF0Y2SQpHf6ePiOMySubc/K9PXKriqdch04dIF08/f1ksDXLa4JO+h/D3OVGEjDl27ZO6vVlNupTZQtJ8U6rFPSXr22ea17n51BYc8yPTF1vnpk9q2krzqrtv2PDUTpW7pgml3uem+Cg9DkOy/Wxc0N61qad7w73vcl1BD8HqtTze3mXxqBYegS64r2lqaz9pq8qr75llcyXWEBFaBbMp1XO3SAiKRt1lcryWwls+7bYG531zUkzOPJ4ElScn2/t+U6akKrGULo6C3trY03/TGVTGU6qSLV2LvujXJ6q7vFvIDTRHltus6lMgWPDHftmD6zXLNqMD+ui1yvbu1pflLb7Q/m5kvpmqiLCZb2cT5kl6s0MtfoqBjW+dPm6rXrQOLrM9Sage2Zs++u13XvVVHxXnGg97euqD52jfuRiv7Cx4SWAXy4lO/Xe+JcLq6945BzLyX96DKRfZfkjYW7XzB4ktgLV788w5ZmFLM1xuzrMm+ltzY/6AlC5tnvWldtKhUJ10kQna5HfLLF8+5a00hPzPIKbddbx8/3/bkHa29UWWU0/tcWlEpt4jcf1y9SeklC5rfdEWKk8BCmVj61K3L3HW+ivxFKHnoFH+drO46oHVh89+29q97VitvoIbg9WbNuqnLPcpUzLzZlHPpmtC3Y1LbwuaH3nTsV+H9IwmsAlo29/aFbnZqBU38CzkB6dUE1rKW5iWSf6aIpw3Daseftntch2udd/uTkl9QAVVrTvDo8KXzp31u8eKfd2xXXcyVbKfCo2i7couZbmtbMP0XhR/zUG67GL8/L21Jf6+3Pr/16eY2CzpTUrm/E/tZl7+jdcH0C559tnnt9vxCMptcTA1FuWhb0Px7l75bERdrWivTua0Lpp/zZl/quMQqLGz9nll429OqjMRvizwc1Ta/+ZPb2p7k9SILFd0/ksAq9M3YMu3+4PZemTYRjThnj73/FsDW+dNvkPSnog1RMjEu5uu9xeRXlenga5O5vjC879DDli24bfaO/GrOciXXqaRSmb6ShtCQ7HR9mZuIqi7qpU9nBdbOezby3Pvf6DG2gvQdC5v/Zq73yZQrwxhnzex7XcmaSW3zp/9lR35x8V4vtKr8E3uopDnA/PTVkt1S5pf5m1zIHdDa0vyr7eo+nQQW3qB/XNB8p7k+rvJMYm129y/XdG5obJ1/+yM7NNforF5cyfWCBFYvWLZg2p/NwtEytRGN2CaQg4vgLDxKVJ0taX4xhigRNC7uYy6dP/07cn2qjGpSkPyXwRLjli5o/sqsWTd17egBlg9/uU1SVylddDQ0kATZ+bZnbnazjivkxu2vGDPm3EHqfiskdtyzwXTM8wvuWF4MJ7N0QfNtJjuvrJJYpt/nomjS0pZpV6548ub2Hf79GTOyLrVSVVE+pobWPVeeL2l6GV7c0zKd0Dq/+dTlC+7Y/v15IhJYeNP+8QdmdqnKJ4nlJp+WyKm+bcH0/1q06J7NO5xLePrXL6qCH78lgdVbN+O822cmQu5QSfcTjTiagqJIYGnJ3F+tznnuRElF92aVODdy31LrguZvuev9kjpKug6Z/hYFHdY6f/p5u/Q2shkzsrLSmnRl3XgMbSfrTHazjnthUfOq3vj4jYlOEo87V26zgumY7ke/i2hc0DLt1yZ7j6TVJR7hOS4/vrWl+aTl827bpZfXmFf2m5ZQhmbMyA7vO/QckzWXyRVtkNlnBpsmtrY0/3EnBqcksLA9/eP3XX6mpPaSvhDTQ+7RkUvnTz/z+aean9vFo1Vs/0gCqxc9v+CO5a3zm49z2UVic/ddNUiSFcOJLF9wx/OezB0lqaW4Gk0bn69Dty1ovtmi8DZJpfhWjIUmP7W1pXny9mzSvn0DstLqVCLnTXY7qMvln2tt6b3klSRFxv5XOyjI/RuDpSOLLXm1xSD9TzIdVqJvX2o1+Yda56cbd/RxwW02pUYCC+Vn1qybupbOn3am3D+t0n1MdrPJf6isxre2TPtGS0tz587N5yMSWNi+ucb86c2KwpGSFpXg6S9y+ZTWluaj2hbc9nAlzjViHf9yO/Q6b5s/7YfZTo1x2XfYG2unJYelM0XzKE3bk3e0ynS0SXcXUYzG5fPgS+fdPrMjt3mipBskhWKvMCbNdlOmdX46vXT+9N/EelPLSqxT4U122ymYfFqkcFDb/Olfk5p79XEvM8ptB27431sUDm9dMP0zOzvRKpTWluZFgyMdKtl/S+osgej+S66PDDbtt3T+9J/FuaeYiTcRonzH/60Lpn/Tzd5ZYm8ibXfpGsslRi+dP/2i1qebd2k7FGMFFnakf5x3+5Ohb8cBLl1TEo/cm+bKdG7rfI1vmz+9WXE+BlnBX/AkuRWKQ8+3+FftO+Hsb3V614dM9mFJ+xGZ7denS4NVRM8Dt7Y0vyzpval05uNyfU3SgF4+pf0aGy+o2pl9nbbXi0/9dr2kS2vHZ35lpq/KNLnIqkmXye4K5j9sbWn+a/dfxb+K38wXl9KT+i7tZTQhb2SDS9Mjj76zdMFt84rlpEIU7W3ulM62dbjZXZHsmqUttz1WSifek2SbOjKdmRZcX5V0iopklfEr1U/Sveb2o6UL/G6pOZeP56bN7HmqOMpZW8u0+0dOPKc+5DqnqvuJjKoiPdWX3exG70pc27P/TiyyybA0yrGeAtuv5019n6ybcMavPURfkemdRXaKWUm/M7MfLm2Zdq/ytHeXyRe7KnP0TgKryDw379crJH1N0tdr6888XMqdaGbvlnQQ5aUuSRtkWiNXu6SNJq1z1zpFaq+qThbjMmxvbWm+YZ/602/PWfQ/MvuAXIleORNTtLxj9d4qwP5cbQubH5J0TG16yjEW/DMyHa/eXfH5mMmmJcx/ubhl2gt5L/Tgi81Kp1Mx970lUlivs9mkfwSzX3bKb1/V0lx0m2WaeIRwGwPHB13266rqzlvf7BXuxW5JS/N8SaeOqD/z4MjC59SdyOrNCW6L5M2JnP0ihv073rwtNV8sp21Ceet5Ccjle08484eJEL4j6YRiGXeb9Mdg+kXfzRvu3pnNpt9MzvotjUp8C1X0jqXzbp8p6V0j05m3Bukzkt7da3MsvfpkR7O6dPOurkzcHsHseavQL3hIYBUv73lG9mFJ/5VKZfpqsCa6+0Fm0Wi5aiUfKVM/uYbIFLmrn+3q5namdm3jkQV3bYpet1G3u9aZ2RZLOIO77DUTBjPb6CFs9siyJlsvSRZ8nUfKefAOmTaZRSEErZWkyHLroxBl3aLNlsxulPqsHhi62ov9sY830vOmqw+PGn/Wl7uicInJPyRpaIFa1LlyuyPIf1rofV/aWqbdL+n+UePPGpWNwvnq3oBxfAE+ul3S39z9vmSw3xRiovWakLs9brZzG7QGWcHfilbdYZ/oqAk3mEX7WfDRZtFoyfdzabSkkRXSV2R7Jud/k0d/6qrq87edenNaAW2Wf7lPFG5RLtrPzEcHs/3MNVrd5TZKxftNfpztW06uhSb/h7vdW9NV/ZdFi24puz0lly24bbakpn0nnD28K5d9v0xnSzpQ+c88b5b0gEz3RR7uXjL/9oLu7ZjIhaeCJXd2mWwx7JPyqMmqd3miEump8h7xWmtcm5p7sqZksyE9Lz04cWQ60xDcL5Ts/ZKGFPg0gqRZct3SVZX99Yon71yZzw9b8eTN7XXpKb+Qq++O/m4u6Nki6Ygej6X+euCtqzthSUvzPyWdVDvp9FSUS37Q3adImlCAj94o6R8mv8/NfrO0pbmwfU4uetIib965qlbaj+7ytRbQCxobL6havnHN2yPz90p6m6R0TEmC5ZLmuPvMyDTLszazEN8C7Ii960/fJ7Lo3Sa9VbKD1L03165c+2ZJ/5J8jtxmhshmDpU/VsoJz2Krqys3rx1puTA6SCMtshHuvqekvV0abtJwSSMk9S+hy1omaZFM/5L7Ex5spm3QnNbW5jLagzCTGDU+UdcVZfeLpJFyG+Hme5q0l8v2lmlPuUZIGlgyc1xpRSQtCtK/ItNcBZvZEfnsYlwdVwj7Tjh7eGeu611mervJDvTuAfuuJEu6JD1nsifc/TGPbKbXbHqk53ENAAU2ovHkflFHzanqXllyvKR87Xv4tJv+YrK/SH5/zxYYQMmqnXR6yrqid1sUvc2DHyhTwy7ONTpdesbc53gUPRZ5mJnYOOCxxYt/zvLBXkACCygCwyed178qu3GCeTTKpZGS7+5RNNDck/+evNl685CVRR3dm/17uwVrDe4rPJloHeq5FaWYtEmlMn01JOzvuajOItXKbYQ81Hhkg2yLpcDm3h4i22hBq2T+olu0rCoXPbd44fglcW4ajF2ow7mOvYNseBR8T49skMkHuvtAcw3uLk8fKNlASQNlGizXYHU/WtpXUs0WPdOgHVgGnpW0fotHizeYtMHdV8m0yhWtiMyXebCVSuRaQ5/ORUzIX3v/Jfprr64q3zuRi/YMCoOiKBro0gCFMNSjaKDJB8r1SrkN6fn/yZ4y2/Jb84E7MEAMktaq+w28G3rKbb3kL7uiFeZhpSxaFqKwUm6tm7Obn+nZYw/b0Nh4QdWqTS+NDRbVWXfCMqXg/SQNkFnVFvfXJnPbGEyrFPzFhPRCiPRc67BVizVjRpZIAsVpZMMZaXd7u5vVyzVWkfaXNHK7+0vTKrkWyP0pMz3lHi3wquyTbU/ewcoflLVRo86vyda07y+zOimMkEWp7rnGa+daZrZRHjYG1yozrXLphWTOnn3+KS3p7Rf3YMumDACAojU1Gjnx6cGv/Kl6k+XK8RGxchxfjJx4zpBX/pBs7wrPPtu8lrAAQHzGjDmhT1dV3908aX3VFQ31yPvlPOqTjLwjJ21IRGFdriusHZJIrmdlOgAAAAAAAAAAAAAAAAAAAAAAAAAAAAAAAAAAAAAAAAAAAAAAAAAAAAAAAAAAAAAAAAAAAAAAAAAAAAAAAAAAAAAAAAAAAAAAAAAAAAAAAAAAAAAAAAAAAAAAAAAAAAAAAAAAAAAAAAAAAAAAAAAAAAAAAAAAAAAAAAAAAAAAAAAAAAAAAAAAAAAAAAAAAAAAAAAAAAAAAAAAAAAAAAAAAAAAAAAAAAAAAAAAAAAAAAAAAAAAAAAAAAAAAAAAAAAAAAAAAAAAAAAAAAAAAAAAAAAAAAAAAAAAAAAAAAAAAAAAAAAAAAAAAAAAAAAAAAAAAAAAAAAAAAAAAAAAAAAAAAAAAAAAAAAAAAAAAAAAAAAAAAAAAAAAAAAAAAAAAAAAAAAAAAAAAAAAAAAAAAAAAAAAAAAAAAAAAAAAAAAAAAAAAAAAAAAAAAAAAAAAAAAAAAAAAAAAAAAAAAAAAAAAAAAAAAAAAAAAAAAAAAAAAAAAAAAAAAAAAAAAAAAAAAAAAAAAAAAAAAAAAAAAAAAAAAAAAAAAAAAAAAAAAAAAAAAAAAAAAAAAAAAAAAAAAAAAAAAAAAAAAAAAAAAAAAAAAAAAAAAAAAAAAAAAAAAAAAAAAAAAAAAAAAAAAAAAAAAAAAAAAAAAAAAAAAAAAAAAAAAAAAAAAAAAAAAAAAAAAAAAAAAAAAAAAAAAAAAAAAAAAAAAAAAAAAAAAAAAAAAAAAAAAAAAAAAAAAAAAAAAAAAAAAAAAAAAAAAAAAAAAAAAAAAAAAAAAAAAAAAAAAAAAAAAAAAAAAAAAAAAAAAAAAAAAAAAAAAAAAAAAAAAAAAAAAAAAAAAAAAAAAAAAAAAAAAAAAAAAAAAAAAAAAAAAAAAAAAAAAAAAAAAAAAAAAAAAAAAAAAA/789OCQAAAAAEPT/tTcMAAAAAAAAAAAAAAAAAAAAvAUVhgDndKbJygAAACV0RVh0ZGF0ZTpjcmVhdGUAMjAxOS0xMS0xMlQxNDowOToyMSswMDowMCNg5NIAAAAldEVYdGRhdGU6bW9kaWZ5ADIwMTktMTEtMTJUMTQ6MDk6MjErMDA6MDBSPVxuAAAAAElFTkSuQmCC" vertex="1" parent="1">
          <mxGeometry x="710" y="670" width="80" height="80" as="geometry" />
        </mxCell>
        <mxCell id="pGYAa5rE9HQfa07IEvMs-72" value="Audit Log" style="text;html=1;strokeColor=none;fillColor=none;align=center;verticalAlign=middle;whiteSpace=wrap;rounded=0;dashed=1;fontStyle=1" vertex="1" parent="1">
          <mxGeometry x="720" y="750" width="60" height="20" as="geometry" />
        </mxCell>
        <mxCell id="pGYAa5rE9HQfa07IEvMs-73" value="" style="rounded=0;whiteSpace=wrap;html=1;fontSize=15;dashed=1;" vertex="1" parent="1">
          <mxGeometry x="-240" y="262" width="150" height="288" as="geometry" />
        </mxCell>
        <mxCell id="pGYAa5rE9HQfa07IEvMs-79" style="edgeStyle=orthogonalEdgeStyle;rounded=0;orthogonalLoop=1;jettySize=auto;html=1;entryX=0;entryY=0.5;entryDx=0;entryDy=0;" edge="1" parent="1" source="pGYAa5rE9HQfa07IEvMs-74" target="fQ13p7MDhRn6-QS3Xnmx-4">
          <mxGeometry relative="1" as="geometry">
            <Array as="points">
              <mxPoint x="-30" y="343" />
              <mxPoint x="-30" y="426" />
            </Array>
          </mxGeometry>
        </mxCell>
        <mxCell id="pGYAa5rE9HQfa07IEvMs-74" value="Partner service" style="rounded=0;whiteSpace=wrap;html=1;fontSize=15;fillColor=#6a00ff;strokeColor=#3700CC;fontColor=#ffffff;fontStyle=1" vertex="1" parent="1">
          <mxGeometry x="-230" y="316" width="120" height="60" as="geometry" />
        </mxCell>
        <mxCell id="pGYAa5rE9HQfa07IEvMs-81" style="edgeStyle=orthogonalEdgeStyle;rounded=0;orthogonalLoop=1;jettySize=auto;html=1;" edge="1" parent="1" source="pGYAa5rE9HQfa07IEvMs-75" target="fQ13p7MDhRn6-QS3Xnmx-4">
          <mxGeometry relative="1" as="geometry" />
        </mxCell>
        <mxCell id="pGYAa5rE9HQfa07IEvMs-75" value="Partner service" style="rounded=0;whiteSpace=wrap;html=1;fontSize=15;fillColor=#6a00ff;strokeColor=#3700CC;fontColor=#ffffff;fontStyle=1" vertex="1" parent="1">
          <mxGeometry x="-230" y="396" width="120" height="60" as="geometry" />
        </mxCell>
        <mxCell id="pGYAa5rE9HQfa07IEvMs-80" style="edgeStyle=orthogonalEdgeStyle;rounded=0;orthogonalLoop=1;jettySize=auto;html=1;entryX=0;entryY=0.5;entryDx=0;entryDy=0;" edge="1" parent="1" source="pGYAa5rE9HQfa07IEvMs-76" target="fQ13p7MDhRn6-QS3Xnmx-4">
          <mxGeometry relative="1" as="geometry" />
        </mxCell>
        <mxCell id="pGYAa5rE9HQfa07IEvMs-76" value="Partner service" style="rounded=0;whiteSpace=wrap;html=1;fontSize=15;fillColor=#6a00ff;strokeColor=#3700CC;fontColor=#ffffff;fontStyle=1" vertex="1" parent="1">
          <mxGeometry x="-230" y="470" width="120" height="60" as="geometry" />
        </mxCell>
        <mxCell id="pGYAa5rE9HQfa07IEvMs-77" value="MISA Application" style="text;html=1;strokeColor=none;fillColor=none;align=center;verticalAlign=middle;whiteSpace=wrap;rounded=0;fontSize=15;fontStyle=1" vertex="1" parent="1">
          <mxGeometry x="-215" y="274" width="90" height="20" as="geometry" />
        </mxCell>
      </root>
    </mxGraphModel>
  </diagram>
</mxfile>
